<ttFont>
    <TTGlyph name="A" xMin="-12" yMin="0" xMax="484" yMax="700">
      <contour>
        <pt x="484" y="0" on="1"/>
        <pt x="409" y="0" on="1"/>
        <pt x="377" y="221" on="1"/>
        <pt x="151" y="221" on="1"/>
        <pt x="58" y="0" on="1"/>
        <pt x="-12" y="0" on="1"/>
        <pt x="292" y="700" on="1"/>
        <pt x="374" y="700" on="1"/>
      </contour>
      <contour>
        <pt x="370" y="286" on="1"/>
        <pt x="322" y="624" on="1"/>
        <pt x="177" y="286" on="1"/>
      </contour>
    </TTGlyph>
    <TTGlyph name="AE" xMin="-12" yMin="0" xMax="773" yMax="700">
      <contour>
        <pt x="675" y="0" on="1"/>
        <pt x="317" y="0" on="1"/>
        <pt x="348" y="221" on="1"/>
        <pt x="186" y="221" on="1"/>
        <pt x="58" y="0" on="1"/>
        <pt x="-12" y="0" on="1"/>
        <pt x="380" y="700" on="1"/>
        <pt x="773" y="700" on="1"/>
        <pt x="764" y="635" on="1"/>
        <pt x="474" y="635" on="1"/>
        <pt x="443" y="413" on="1"/>
        <pt x="710" y="413" on="1"/>
        <pt x="701" y="346" on="1"/>
        <pt x="434" y="346" on="1"/>
        <pt x="394" y="65" on="1"/>
        <pt x="684" y="65" on="1"/>
      </contour>
      <contour>
        <pt x="222" y="286" on="1"/>
        <pt x="357" y="286" on="1"/>
        <pt x="406" y="634" on="1"/>
      </contour>
    </TTGlyph>
    <TTGlyph name="Aacute" xMin="-12" yMin="0" xMax="484" yMax="876">
      <contour>
        <pt x="484" y="0" on="1"/>
        <pt x="409" y="0" on="1"/>
        <pt x="377" y="221" on="1"/>
        <pt x="151" y="221" on="1"/>
        <pt x="58" y="0" on="1"/>
        <pt x="-12" y="0" on="1"/>
        <pt x="292" y="700" on="1"/>
        <pt x="374" y="700" on="1"/>
      </contour>
      <contour>
        <pt x="370" y="286" on="1"/>
        <pt x="322" y="624" on="1"/>
        <pt x="177" y="286" on="1"/>
      </contour>
      <contour>
        <pt x="280" y="752" on="1"/>
        <pt x="365" y="876" on="1"/>
        <pt x="441" y="876" on="1"/>
        <pt x="335" y="752" on="1"/>
      </contour>
    </TTGlyph>
    <TTGlyph name="Acircumflex" xMin="-12" yMin="0" xMax="484" yMax="880">
      <component glyphName="A" x="0" y="0" flags="0x1004"/>
      <component glyphName="circumflex" x="48" y="60" flags="0x1004"/>
    </TTGlyph>
    <TTGlyph name="Adieresis" xMin="-12" yMin="0" xMax="484" yMax="861">
      <component glyphName="A" x="0" y="0" flags="0x1004"/>
      <component glyphName="dieresis" x="44" y="46" flags="0x1004"/>
    </TTGlyph>
    <TTGlyph name="Agrave" xMin="-12" yMin="0" xMax="484" yMax="877">
      <contour>
        <pt x="484" y="0" on="1"/>
        <pt x="409" y="0" on="1"/>
        <pt x="377" y="221" on="1"/>
        <pt x="151" y="221" on="1"/>
        <pt x="58" y="0" on="1"/>
        <pt x="-12" y="0" on="1"/>
        <pt x="292" y="700" on="1"/>
        <pt x="374" y="700" on="1"/>
      </contour>
      <contour>
        <pt x="370" y="286" on="1"/>
        <pt x="322" y="624" on="1"/>
        <pt x="177" y="286" on="1"/>
      </contour>
      <contour>
        <pt x="332" y="753" on="1"/>
        <pt x="277" y="753" on="1"/>
        <pt x="207" y="877" on="1"/>
        <pt x="283" y="877" on="1"/>
      </contour>
    </TTGlyph>
    <TTGlyph name="Aring" xMin="-12" yMin="0" xMax="484" yMax="972">
      <contour>
        <pt x="484" y="0" on="1"/>
        <pt x="409" y="0" on="1"/>
        <pt x="377" y="221" on="1"/>
        <pt x="151" y="221" on="1"/>
        <pt x="58" y="0" on="1"/>
        <pt x="-12" y="0" on="1"/>
        <pt x="292" y="700" on="1"/>
        <pt x="374" y="700" on="1"/>
      </contour>
      <contour>
        <pt x="370" y="286" on="1"/>
        <pt x="322" y="624" on="1"/>
        <pt x="177" y="286" on="1"/>
      </contour>
      <contour>
        <pt x="349" y="972" on="1"/>
        <pt x="437" y="972" on="0"/>
        <pt x="437" y="886" on="1"/>
        <pt x="437" y="828" on="0"/>
        <pt x="381" y="752" on="0"/>
        <pt x="320" y="752" on="1"/>
        <pt x="232" y="752" on="0"/>
        <pt x="232" y="838" on="1"/>
        <pt x="232" y="896" on="0"/>
        <pt x="288" y="972" on="0"/>
      </contour>
      <contour>
        <pt x="325" y="796" on="1"/>
        <pt x="356" y="796" on="0"/>
        <pt x="386" y="846" on="0"/>
        <pt x="386" y="882" on="1"/>
        <pt x="386" y="928" on="0"/>
        <pt x="344" y="928" on="1"/>
        <pt x="313" y="928" on="0"/>
        <pt x="283" y="878" on="0"/>
        <pt x="283" y="842" on="1"/>
        <pt x="283" y="796" on="0"/>
      </contour>
    </TTGlyph>
    <TTGlyph name="Atilde" xMin="-69" yMin="0" xMax="459" yMax="870">
      <contour>
        <pt x="383" y="757" on="0"/>
        <pt x="348" y="757" on="0"/>
        <pt x="251" y="812" on="0"/>
        <pt x="227" y="812" on="0"/>
        <pt x="198" y="793" on="0"/>
        <pt x="181" y="774" on="1"/>
        <pt x="156" y="800" on="1"/>
        <pt x="174" y="824" on="0"/>
        <pt x="232" y="870" on="0"/>
        <pt x="267" y="870" on="0"/>
        <pt x="363" y="815" on="0"/>
        <pt x="375" y="815" on="1"/>
        <pt x="398" y="815" on="0"/>
        <pt x="424" y="844" on="1"/>
        <pt x="432" y="853" on="1"/>
        <pt x="459" y="827" on="1"/>
        <pt x="441" y="803" on="0"/>
      </contour>
      <contour>
        <pt x="427" y="0" on="1"/>
        <pt x="352" y="0" on="1"/>
        <pt x="320" y="221" on="1"/>
        <pt x="94" y="221" on="1"/>
        <pt x="1" y="0" on="1"/>
        <pt x="-69" y="0" on="1"/>
        <pt x="235" y="700" on="1"/>
        <pt x="317" y="700" on="1"/>
      </contour>
      <contour>
        <pt x="313" y="286" on="1"/>
        <pt x="265" y="624" on="1"/>
        <pt x="120" y="286" on="1"/>
      </contour>
    </TTGlyph>
    <TTGlyph name="B" xMin="57" yMin="0" xMax="505" yMax="700">
      <contour>
        <pt x="335" y="700" on="1"/>
        <pt x="420" y="700" on="0"/>
        <pt x="505" y="626" on="0"/>
        <pt x="505" y="489" on="0"/>
        <pt x="425" y="386" on="0"/>
        <pt x="365" y="379" on="1"/>
        <pt x="423" y="372" on="0"/>
        <pt x="486" y="293" on="0"/>
        <pt x="486" y="236" on="1"/>
        <pt x="486" y="133" on="0"/>
        <pt x="349" y="0" on="0"/>
        <pt x="231" y="0" on="1"/>
        <pt x="57" y="0" on="1"/>
        <pt x="155" y="700" on="1"/>
      </contour>
      <contour>
        <pt x="261" y="65" on="1"/>
        <pt x="326" y="65" on="0"/>
        <pt x="415" y="161" on="0"/>
        <pt x="415" y="278" on="0"/>
        <pt x="348" y="343" on="0"/>
        <pt x="281" y="343" on="1"/>
        <pt x="175" y="343" on="1"/>
        <pt x="136" y="65" on="1"/>
      </contour>
      <contour>
        <pt x="290" y="407" on="1"/>
        <pt x="348" y="407" on="0"/>
        <pt x="434" y="485" on="0"/>
        <pt x="434" y="545" on="1"/>
        <pt x="434" y="635" on="0"/>
        <pt x="331" y="635" on="1"/>
        <pt x="216" y="635" on="1"/>
        <pt x="184" y="407" on="1"/>
      </contour>
    </TTGlyph>
    <TTGlyph name="C" xMin="62" yMin="-6" xMax="533" yMax="709">
      <contour>
        <pt x="286" y="-6" on="1"/>
        <pt x="176" y="-6" on="0"/>
        <pt x="62" y="136" on="0"/>
        <pt x="62" y="262" on="1"/>
        <pt x="62" y="453" on="0"/>
        <pt x="243" y="709" on="0"/>
        <pt x="395" y="709" on="1"/>
        <pt x="467" y="709" on="0"/>
        <pt x="533" y="680" on="1"/>
        <pt x="509" y="618" on="1"/>
        <pt x="457" y="644" on="0"/>
        <pt x="330" y="644" on="0"/>
        <pt x="244" y="595" on="0"/>
        <pt x="190" y="518" on="0"/>
        <pt x="172" y="468" on="1"/>
        <pt x="138" y="377" on="0"/>
        <pt x="138" y="175" on="0"/>
        <pt x="217" y="59" on="0"/>
        <pt x="376" y="59" on="0"/>
        <pt x="452" y="103" on="1"/>
        <pt x="462" y="46" on="1"/>
        <pt x="376" y="-6" on="0"/>
      </contour>
    </TTGlyph>
    <TTGlyph name="Ccedilla" xMin="62" yMin="-182" xMax="533" yMax="709">
      <contour>
        <pt x="62" y="262" on="1"/>
        <pt x="62" y="453" on="0"/>
        <pt x="243" y="709" on="0"/>
        <pt x="395" y="709" on="1"/>
        <pt x="467" y="709" on="0"/>
        <pt x="533" y="680" on="1"/>
        <pt x="509" y="618" on="1"/>
        <pt x="457" y="644" on="0"/>
        <pt x="330" y="644" on="0"/>
        <pt x="244" y="595" on="0"/>
        <pt x="190" y="518" on="0"/>
        <pt x="172" y="468" on="1"/>
        <pt x="138" y="377" on="0"/>
        <pt x="138" y="175" on="0"/>
        <pt x="217" y="59" on="0"/>
        <pt x="376" y="59" on="0"/>
        <pt x="452" y="103" on="1"/>
        <pt x="462" y="46" on="1"/>
        <pt x="393" y="4" on="0"/>
        <pt x="321" y="-4" on="1"/>
        <pt x="314" y="-51" on="0"/>
        <pt x="284" y="-116" on="0"/>
        <pt x="240" y="-182" on="1"/>
        <pt x="200" y="-151" on="1"/>
        <pt x="230" y="-100" on="0"/>
        <pt x="250" y="-50" on="0"/>
        <pt x="256" y="-4" on="1"/>
        <pt x="161" y="5" on="0"/>
        <pt x="62" y="144" on="0"/>
      </contour>
    </TTGlyph>
    <TTGlyph name="Crculo0" xMin="50" yMin="-5" xMax="563" yMax="710">
      <contour>
        <pt x="247" y="159" on="1"/>
        <pt x="286" y="436" on="1"/>
        <pt x="349" y="436" on="1"/>
        <pt x="310" y="159" on="1"/>
      </contour>
      <contour>
        <pt x="255" y="-5" on="1"/>
        <pt x="152" y="-5" on="0"/>
        <pt x="50" y="140" on="0"/>
        <pt x="50" y="261" on="1"/>
        <pt x="50" y="433" on="0"/>
        <pt x="122" y="566" on="1"/>
        <pt x="158" y="631" on="0"/>
        <pt x="279" y="710" on="0"/>
        <pt x="356" y="710" on="1"/>
        <pt x="460" y="710" on="0"/>
        <pt x="563" y="566" on="0"/>
        <pt x="563" y="445" on="1"/>
        <pt x="563" y="272" on="0"/>
        <pt x="490" y="140" on="1"/>
        <pt x="453" y="75" on="0"/>
        <pt x="332" y="-5" on="0"/>
      </contour>
      <contour>
        <pt x="495" y="522" on="0"/>
        <pt x="421" y="645" on="0"/>
        <pt x="273" y="645" on="0"/>
        <pt x="165" y="521" on="0"/>
        <pt x="119" y="358" on="0"/>
        <pt x="119" y="178" on="0"/>
        <pt x="191" y="61" on="0"/>
        <pt x="335" y="61" on="0"/>
        <pt x="444" y="177" on="0"/>
        <pt x="495" y="341" on="0"/>
      </contour>
      <contour>
        <pt x="369" y="565" on="1"/>
        <pt x="357" y="476" on="1"/>
        <pt x="290" y="476" on="1"/>
        <pt x="302" y="565" on="1"/>
      </contour>
    </TTGlyph>
    <TTGlyph name="D" xMin="57" yMin="0" xMax="570" yMax="700">
      <contour>
        <pt x="570" y="434" on="1"/>
        <pt x="570" y="355" on="0"/>
        <pt x="517" y="201" on="0"/>
        <pt x="422" y="77" on="0"/>
        <pt x="275" y="0" on="0"/>
        <pt x="189" y="0" on="1"/>
        <pt x="57" y="0" on="1"/>
        <pt x="155" y="700" on="1"/>
        <pt x="315" y="700" on="1"/>
        <pt x="434" y="700" on="0"/>
        <pt x="570" y="554" on="0"/>
      </contour>
      <contour>
        <pt x="206" y="65" on="1"/>
        <pt x="290" y="65" on="0"/>
        <pt x="425" y="180" on="0"/>
        <pt x="492" y="345" on="0"/>
        <pt x="492" y="527" on="0"/>
        <pt x="387" y="635" on="0"/>
        <pt x="309" y="635" on="1"/>
        <pt x="219" y="635" on="1"/>
        <pt x="139" y="65" on="1"/>
      </contour>
    </TTGlyph>
    <TTGlyph name="Delta" xMin="2" yMin="0" xMax="499" yMax="700">
      <contour>
        <pt x="499" y="0" on="1"/>
        <pt x="2" y="0" on="1"/>
        <pt x="307" y="700" on="1"/>
        <pt x="389" y="700" on="1"/>
      </contour>
      <contour>
        <pt x="414" y="77" on="1"/>
        <pt x="337" y="624" on="1"/>
        <pt x="98" y="77" on="1"/>
      </contour>
    </TTGlyph>
    <TTGlyph name="E" xMin="57" yMin="0" xMax="494" yMax="700">
      <contour>
        <pt x="396" y="0" on="1"/>
        <pt x="57" y="0" on="1"/>
        <pt x="155" y="700" on="1"/>
        <pt x="494" y="700" on="1"/>
        <pt x="485" y="635" on="1"/>
        <pt x="213" y="635" on="1"/>
        <pt x="182" y="413" on="1"/>
        <pt x="432" y="413" on="1"/>
        <pt x="423" y="346" on="1"/>
        <pt x="173" y="346" on="1"/>
        <pt x="133" y="65" on="1"/>
        <pt x="405" y="65" on="1"/>
      </contour>
    </TTGlyph>
    <TTGlyph name="Eacute" xMin="57" yMin="0" xMax="494" yMax="876">
      <contour>
        <pt x="396" y="0" on="1"/>
        <pt x="57" y="0" on="1"/>
        <pt x="155" y="700" on="1"/>
        <pt x="494" y="700" on="1"/>
        <pt x="485" y="635" on="1"/>
        <pt x="213" y="635" on="1"/>
        <pt x="182" y="413" on="1"/>
        <pt x="432" y="413" on="1"/>
        <pt x="423" y="346" on="1"/>
        <pt x="173" y="346" on="1"/>
        <pt x="133" y="65" on="1"/>
        <pt x="405" y="65" on="1"/>
      </contour>
      <contour>
        <pt x="245" y="752" on="1"/>
        <pt x="330" y="876" on="1"/>
        <pt x="406" y="876" on="1"/>
        <pt x="300" y="752" on="1"/>
      </contour>
    </TTGlyph>
    <TTGlyph name="Ecircumflex" xMin="57" yMin="0" xMax="494" yMax="880">
      <contour>
        <pt x="396" y="0" on="1"/>
        <pt x="57" y="0" on="1"/>
        <pt x="155" y="700" on="1"/>
        <pt x="494" y="700" on="1"/>
        <pt x="485" y="635" on="1"/>
        <pt x="213" y="635" on="1"/>
        <pt x="182" y="413" on="1"/>
        <pt x="432" y="413" on="1"/>
        <pt x="423" y="346" on="1"/>
        <pt x="173" y="346" on="1"/>
        <pt x="133" y="65" on="1"/>
        <pt x="405" y="65" on="1"/>
      </contour>
      <contour>
        <pt x="283" y="880" on="1"/>
        <pt x="326" y="880" on="1"/>
        <pt x="434" y="780" on="1"/>
        <pt x="413" y="751" on="1"/>
        <pt x="296" y="826" on="1"/>
        <pt x="158" y="751" on="1"/>
        <pt x="145" y="780" on="1"/>
      </contour>
    </TTGlyph>
    <TTGlyph name="Edieresis" xMin="57" yMin="0" xMax="494" yMax="861">
      <contour>
        <pt x="396" y="0" on="1"/>
        <pt x="57" y="0" on="1"/>
        <pt x="155" y="700" on="1"/>
        <pt x="494" y="700" on="1"/>
        <pt x="485" y="635" on="1"/>
        <pt x="213" y="635" on="1"/>
        <pt x="182" y="413" on="1"/>
        <pt x="432" y="413" on="1"/>
        <pt x="423" y="346" on="1"/>
        <pt x="173" y="346" on="1"/>
        <pt x="133" y="65" on="1"/>
        <pt x="405" y="65" on="1"/>
      </contour>
      <contour>
        <pt x="187" y="755" on="1"/>
        <pt x="201" y="861" on="1"/>
        <pt x="265" y="861" on="1"/>
        <pt x="251" y="755" on="1"/>
      </contour>
      <contour>
        <pt x="349" y="755" on="1"/>
        <pt x="363" y="861" on="1"/>
        <pt x="426" y="861" on="1"/>
        <pt x="412" y="755" on="1"/>
      </contour>
    </TTGlyph>
    <TTGlyph name="Egrave" xMin="57" yMin="0" xMax="494" yMax="877">
      <contour>
        <pt x="396" y="0" on="1"/>
        <pt x="57" y="0" on="1"/>
        <pt x="155" y="700" on="1"/>
        <pt x="494" y="700" on="1"/>
        <pt x="485" y="635" on="1"/>
        <pt x="213" y="635" on="1"/>
        <pt x="182" y="413" on="1"/>
        <pt x="432" y="413" on="1"/>
        <pt x="423" y="346" on="1"/>
        <pt x="173" y="346" on="1"/>
        <pt x="133" y="65" on="1"/>
        <pt x="405" y="65" on="1"/>
      </contour>
      <contour>
        <pt x="347" y="753" on="1"/>
        <pt x="292" y="753" on="1"/>
        <pt x="222" y="877" on="1"/>
        <pt x="298" y="877" on="1"/>
      </contour>
    </TTGlyph>
    <TTGlyph name="Eth" xMin="51" yMin="0" xMax="595" yMax="700">
      <contour>
        <pt x="595" y="434" on="1"/>
        <pt x="595" y="355" on="0"/>
        <pt x="542" y="201" on="0"/>
        <pt x="447" y="77" on="0"/>
        <pt x="300" y="0" on="0"/>
        <pt x="214" y="0" on="1"/>
        <pt x="82" y="0" on="1"/>
        <pt x="126" y="317" on="1"/>
        <pt x="51" y="317" on="1"/>
        <pt x="61" y="382" on="1"/>
        <pt x="135" y="382" on="1"/>
        <pt x="180" y="700" on="1"/>
        <pt x="340" y="700" on="1"/>
        <pt x="459" y="700" on="0"/>
        <pt x="595" y="554" on="0"/>
      </contour>
      <contour>
        <pt x="231" y="65" on="1"/>
        <pt x="315" y="65" on="0"/>
        <pt x="450" y="180" on="0"/>
        <pt x="517" y="345" on="0"/>
        <pt x="517" y="527" on="0"/>
        <pt x="412" y="635" on="0"/>
        <pt x="334" y="635" on="1"/>
        <pt x="244" y="635" on="1"/>
        <pt x="208" y="382" on="1"/>
        <pt x="367" y="382" on="1"/>
        <pt x="357" y="317" on="1"/>
        <pt x="199" y="317" on="1"/>
        <pt x="164" y="65" on="1"/>
      </contour>
    </TTGlyph>
    <TTGlyph name="Euro" xMin="27" yMin="-6" xMax="576" yMax="710">
      <contour>
        <pt x="180" y="154" on="0"/>
        <pt x="264" y="59" on="0"/>
        <pt x="399" y="59" on="0"/>
        <pt x="495" y="98" on="1"/>
        <pt x="505" y="46" on="1"/>
        <pt x="419" y="-6" on="0"/>
        <pt x="222" y="-6" on="0"/>
        <pt x="106" y="127" on="0"/>
        <pt x="102" y="240" on="1"/>
        <pt x="27" y="240" on="1"/>
        <pt x="36" y="305" on="1"/>
        <pt x="106" y="305" on="1"/>
        <pt x="112" y="370" on="0"/>
        <pt x="120" y="401" on="1"/>
        <pt x="50" y="401" on="1"/>
        <pt x="59" y="466" on="1"/>
        <pt x="138" y="466" on="1"/>
        <pt x="178" y="581" on="0"/>
        <pt x="335" y="710" on="0"/>
        <pt x="441" y="710" on="1"/>
        <pt x="509" y="710" on="0"/>
        <pt x="576" y="680" on="1"/>
        <pt x="552" y="618" on="1"/>
        <pt x="498" y="645" on="0"/>
        <pt x="352" y="645" on="0"/>
        <pt x="242" y="550" on="0"/>
        <pt x="211" y="466" on="1"/>
        <pt x="421" y="466" on="1"/>
        <pt x="410" y="400" on="1"/>
        <pt x="193" y="400" on="1"/>
        <pt x="180" y="348" on="0"/>
        <pt x="179" y="305" on="1"/>
        <pt x="397" y="305" on="1"/>
        <pt x="387" y="240" on="1"/>
        <pt x="175" y="240" on="1"/>
      </contour>
    </TTGlyph>
    <TTGlyph name="F" xMin="57" yMin="0" xMax="495" yMax="700">
      <contour>
        <pt x="495" y="700" on="1"/>
        <pt x="486" y="635" on="1"/>
        <pt x="213" y="635" on="1"/>
        <pt x="182" y="413" on="1"/>
        <pt x="433" y="413" on="1"/>
        <pt x="424" y="346" on="1"/>
        <pt x="173" y="346" on="1"/>
        <pt x="124" y="0" on="1"/>
        <pt x="57" y="0" on="1"/>
        <pt x="155" y="700" on="1"/>
      </contour>
    </TTGlyph>
    <TTGlyph name="G" xMin="60" yMin="-6" xMax="555" yMax="710">
      <contour>
        <pt x="300" y="-6" on="1"/>
        <pt x="186" y="-6" on="0"/>
        <pt x="60" y="143" on="0"/>
        <pt x="60" y="273" on="1"/>
        <pt x="60" y="441" on="0"/>
        <pt x="142" y="571" on="1"/>
        <pt x="181" y="634" on="0"/>
        <pt x="312" y="710" on="0"/>
        <pt x="476" y="710" on="0"/>
        <pt x="555" y="674" on="1"/>
        <pt x="531" y="612" on="1"/>
        <pt x="502" y="626" on="0"/>
        <pt x="406" y="645" on="0"/>
        <pt x="378" y="645" on="1"/>
        <pt x="316" y="645" on="0"/>
        <pt x="218" y="575" on="0"/>
        <pt x="190" y="520" on="1"/>
        <pt x="135" y="409" on="0"/>
        <pt x="135" y="187" on="0"/>
        <pt x="224" y="59" on="0"/>
        <pt x="363" y="59" on="0"/>
        <pt x="423" y="84" on="1"/>
        <pt x="453" y="290" on="1"/>
        <pt x="321" y="290" on="1"/>
        <pt x="330" y="355" on="1"/>
        <pt x="529" y="355" on="1"/>
        <pt x="486" y="48" on="1"/>
        <pt x="394" y="-6" on="0"/>
      </contour>
    </TTGlyph>
    <TTGlyph name="H" xMin="57" yMin="0" xMax="589" yMax="700">
      <contour>
        <pt x="491" y="0" on="1"/>
        <pt x="423" y="0" on="1"/>
        <pt x="469" y="331" on="1"/>
        <pt x="171" y="331" on="1"/>
        <pt x="125" y="0" on="1"/>
        <pt x="57" y="0" on="1"/>
        <pt x="155" y="700" on="1"/>
        <pt x="223" y="700" on="1"/>
        <pt x="181" y="396" on="1"/>
        <pt x="479" y="396" on="1"/>
        <pt x="521" y="700" on="1"/>
        <pt x="589" y="700" on="1"/>
      </contour>
    </TTGlyph>
    <TTGlyph name="I" xMin="57" yMin="0" xMax="222" yMax="700">
      <contour>
        <pt x="124" y="0" on="1"/>
        <pt x="57" y="0" on="1"/>
        <pt x="155" y="700" on="1"/>
        <pt x="222" y="700" on="1"/>
      </contour>
    </TTGlyph>
    <TTGlyph name="Iacute" xMin="32" yMin="0" xMax="276" yMax="877">
      <contour>
        <pt x="99" y="0" on="1"/>
        <pt x="32" y="0" on="1"/>
        <pt x="130" y="700" on="1"/>
        <pt x="197" y="700" on="1"/>
      </contour>
      <contour>
        <pt x="115" y="753" on="1"/>
        <pt x="200" y="877" on="1"/>
        <pt x="276" y="877" on="1"/>
        <pt x="170" y="753" on="1"/>
      </contour>
    </TTGlyph>
    <TTGlyph name="Icircumflex" xMin="56" yMin="0" xMax="345" yMax="883">
      <contour>
        <pt x="151" y="0" on="1"/>
        <pt x="84" y="0" on="1"/>
        <pt x="182" y="700" on="1"/>
        <pt x="249" y="700" on="1"/>
      </contour>
      <contour>
        <pt x="194" y="883" on="1"/>
        <pt x="237" y="883" on="1"/>
        <pt x="345" y="783" on="1"/>
        <pt x="324" y="754" on="1"/>
        <pt x="207" y="829" on="1"/>
        <pt x="69" y="754" on="1"/>
        <pt x="56" y="783" on="1"/>
      </contour>
    </TTGlyph>
    <TTGlyph name="Idieresis" xMin="41" yMin="0" xMax="280" yMax="861">
      <contour>
        <pt x="109" y="0" on="1"/>
        <pt x="42" y="0" on="1"/>
        <pt x="140" y="700" on="1"/>
        <pt x="207" y="700" on="1"/>
      </contour>
      <contour>
        <pt x="41" y="755" on="1"/>
        <pt x="55" y="861" on="1"/>
        <pt x="119" y="861" on="1"/>
        <pt x="105" y="755" on="1"/>
      </contour>
      <contour>
        <pt x="203" y="755" on="1"/>
        <pt x="217" y="861" on="1"/>
        <pt x="280" y="861" on="1"/>
        <pt x="266" y="755" on="1"/>
      </contour>
    </TTGlyph>
    <TTGlyph name="Igrave" xMin="76" yMin="0" xMax="241" yMax="877">
      <contour>
        <pt x="143" y="0" on="1"/>
        <pt x="76" y="0" on="1"/>
        <pt x="174" y="700" on="1"/>
        <pt x="241" y="700" on="1"/>
      </contour>
      <contour>
        <pt x="214" y="753" on="1"/>
        <pt x="159" y="753" on="1"/>
        <pt x="89" y="877" on="1"/>
        <pt x="165" y="877" on="1"/>
      </contour>
    </TTGlyph>
    <TTGlyph name="Itilde" xMin="27" yMin="0" xMax="330" yMax="878">
      <component glyphName="I" x="0" y="0" flags="0x1004"/>
      <component glyphName="tilde" x="-113" y="75" flags="0x1004"/>
    </TTGlyph>
    <TTGlyph name="J" xMin="-22" yMin="-7" xMax="300" yMax="700">
      <contour>
        <pt x="65" y="-7" on="1"/>
        <pt x="17" y="-7" on="0"/>
        <pt x="-22" y="4" on="1"/>
        <pt x="-13" y="67" on="1"/>
        <pt x="29" y="58" on="0"/>
        <pt x="64" y="58" on="1"/>
        <pt x="143" y="58" on="0"/>
        <pt x="166" y="228" on="1"/>
        <pt x="224" y="641" on="1"/>
        <pt x="93" y="641" on="1"/>
        <pt x="102" y="700" on="1"/>
        <pt x="300" y="700" on="1"/>
        <pt x="231" y="211" on="1"/>
        <pt x="200" y="-7" on="0"/>
      </contour>
    </TTGlyph>
    <TTGlyph name="Jcircumflex" xMin="-22" yMin="-7" xMax="355" yMax="880">
      <contour>
        <pt x="65" y="-7" on="1"/>
        <pt x="17" y="-7" on="0"/>
        <pt x="-22" y="4" on="1"/>
        <pt x="-13" y="67" on="1"/>
        <pt x="29" y="58" on="0"/>
        <pt x="64" y="58" on="1"/>
        <pt x="143" y="58" on="0"/>
        <pt x="166" y="228" on="1"/>
        <pt x="224" y="641" on="1"/>
        <pt x="93" y="641" on="1"/>
        <pt x="102" y="700" on="1"/>
        <pt x="300" y="700" on="1"/>
        <pt x="231" y="211" on="1"/>
        <pt x="200" y="-7" on="0"/>
      </contour>
      <contour>
        <pt x="204" y="880" on="1"/>
        <pt x="247" y="880" on="1"/>
        <pt x="355" y="780" on="1"/>
        <pt x="334" y="751" on="1"/>
        <pt x="217" y="826" on="1"/>
        <pt x="79" y="751" on="1"/>
        <pt x="66" y="780" on="1"/>
      </contour>
    </TTGlyph>
    <TTGlyph name="K" xMin="57" yMin="0" xMax="567" yMax="700">
      <contour>
        <pt x="475" y="0" on="1"/>
        <pt x="390" y="0" on="1"/>
        <pt x="260" y="383" on="1"/>
        <pt x="165" y="288" on="1"/>
        <pt x="125" y="0" on="1"/>
        <pt x="57" y="0" on="1"/>
        <pt x="155" y="700" on="1"/>
        <pt x="222" y="700" on="1"/>
        <pt x="178" y="384" on="1"/>
        <pt x="485" y="700" on="1"/>
        <pt x="567" y="700" on="1"/>
        <pt x="313" y="434" on="1"/>
      </contour>
    </TTGlyph>
    <TTGlyph name="L" xMin="57" yMin="0" xMax="403" yMax="700">
      <contour>
        <pt x="394" y="0" on="1"/>
        <pt x="57" y="0" on="1"/>
        <pt x="155" y="700" on="1"/>
        <pt x="222" y="700" on="1"/>
        <pt x="133" y="65" on="1"/>
        <pt x="403" y="65" on="1"/>
      </contour>
    </TTGlyph>
    <TTGlyph name="Lslash" xMin="37" yMin="0" xMax="340" yMax="700">
      <contour>
        <pt x="118" y="345" on="1"/>
        <pt x="37" y="295" on="1"/>
        <pt x="47" y="367" on="1"/>
        <pt x="128" y="416" on="1"/>
        <pt x="168" y="700" on="1"/>
        <pt x="236" y="700" on="1"/>
        <pt x="201" y="448" on="1"/>
        <pt x="309" y="514" on="1"/>
        <pt x="299" y="442" on="1"/>
        <pt x="191" y="378" on="1"/>
        <pt x="147" y="66" on="1"/>
        <pt x="340" y="66" on="1"/>
        <pt x="331" y="0" on="1"/>
        <pt x="70" y="0" on="1"/>
      </contour>
    </TTGlyph>
    <TTGlyph name="M" xMin="25" yMin="0" xMax="686" yMax="700">
      <contour>
        <pt x="588" y="0" on="1"/>
        <pt x="520" y="0" on="1"/>
        <pt x="601" y="574" on="1"/>
        <pt x="344" y="184" on="1"/>
        <pt x="320" y="185" on="1"/>
        <pt x="172" y="573" on="1"/>
        <pt x="92" y="0" on="1"/>
        <pt x="25" y="0" on="1"/>
        <pt x="123" y="700" on="1"/>
        <pt x="199" y="700" on="1"/>
        <pt x="351" y="315" on="1"/>
        <pt x="618" y="700" on="1"/>
        <pt x="686" y="700" on="1"/>
      </contour>
    </TTGlyph>
    <TTGlyph name="N" xMin="57" yMin="-1" xMax="602" yMax="700">
      <contour>
        <pt x="504" y="-1" on="1"/>
        <pt x="430" y="-1" on="1"/>
        <pt x="206" y="560" on="1"/>
        <pt x="127" y="0" on="1"/>
        <pt x="57" y="0" on="1"/>
        <pt x="155" y="700" on="1"/>
        <pt x="225" y="700" on="1"/>
        <pt x="454" y="118" on="1"/>
        <pt x="535" y="700" on="1"/>
        <pt x="602" y="700" on="1"/>
      </contour>
    </TTGlyph>
    <TTGlyph name="Nacute" xMin="57" yMin="-1" xMax="602" yMax="876">
      <contour>
        <pt x="504" y="-1" on="1"/>
        <pt x="430" y="-1" on="1"/>
        <pt x="206" y="560" on="1"/>
        <pt x="127" y="0" on="1"/>
        <pt x="57" y="0" on="1"/>
        <pt x="155" y="700" on="1"/>
        <pt x="225" y="700" on="1"/>
        <pt x="454" y="118" on="1"/>
        <pt x="535" y="700" on="1"/>
        <pt x="602" y="700" on="1"/>
      </contour>
      <contour>
        <pt x="337" y="752" on="1"/>
        <pt x="422" y="876" on="1"/>
        <pt x="498" y="876" on="1"/>
        <pt x="392" y="752" on="1"/>
      </contour>
    </TTGlyph>
    <TTGlyph name="Ntilde" xMin="0" yMin="-1" xMax="545" yMax="870">
      <contour>
        <pt x="425" y="757" on="0"/>
        <pt x="390" y="757" on="0"/>
        <pt x="293" y="812" on="0"/>
        <pt x="269" y="812" on="0"/>
        <pt x="240" y="793" on="0"/>
        <pt x="223" y="774" on="1"/>
        <pt x="198" y="800" on="1"/>
        <pt x="216" y="824" on="0"/>
        <pt x="274" y="870" on="0"/>
        <pt x="309" y="870" on="0"/>
        <pt x="405" y="815" on="0"/>
        <pt x="417" y="815" on="1"/>
        <pt x="440" y="815" on="0"/>
        <pt x="466" y="844" on="1"/>
        <pt x="474" y="853" on="1"/>
        <pt x="501" y="827" on="1"/>
        <pt x="483" y="803" on="0"/>
      </contour>
      <contour>
        <pt x="447" y="-1" on="1"/>
        <pt x="373" y="-1" on="1"/>
        <pt x="149" y="560" on="1"/>
        <pt x="70" y="0" on="1"/>
        <pt x="0" y="0" on="1"/>
        <pt x="98" y="700" on="1"/>
        <pt x="168" y="700" on="1"/>
        <pt x="397" y="118" on="1"/>
        <pt x="478" y="700" on="1"/>
        <pt x="545" y="700" on="1"/>
      </contour>
    </TTGlyph>
    <TTGlyph name="O" xMin="60" yMin="-5" xMax="573" yMax="710">
      <contour>
        <pt x="265" y="-5" on="1"/>
        <pt x="162" y="-5" on="0"/>
        <pt x="60" y="140" on="0"/>
        <pt x="60" y="261" on="1"/>
        <pt x="60" y="424" on="0"/>
        <pt x="130" y="560" on="1"/>
        <pt x="165" y="627" on="0"/>
        <pt x="287" y="710" on="0"/>
        <pt x="366" y="710" on="1"/>
        <pt x="470" y="710" on="0"/>
        <pt x="573" y="566" on="0"/>
        <pt x="573" y="445" on="1"/>
        <pt x="573" y="283" on="0"/>
        <pt x="502" y="146" on="1"/>
        <pt x="466" y="78" on="0"/>
        <pt x="343" y="-5" on="0"/>
      </contour>
      <contour>
        <pt x="500" y="522" on="0"/>
        <pt x="428" y="645" on="0"/>
        <pt x="299" y="645" on="0"/>
        <pt x="207" y="569" on="0"/>
        <pt x="182" y="510" on="1"/>
        <pt x="134" y="393" on="0"/>
        <pt x="134" y="178" on="0"/>
        <pt x="204" y="61" on="0"/>
        <pt x="333" y="61" on="0"/>
        <pt x="424" y="137" on="0"/>
        <pt x="450" y="195" on="1"/>
        <pt x="500" y="310" on="0"/>
      </contour>
    </TTGlyph>
    <TTGlyph name="OE" xMin="59" yMin="0" xMax="791" yMax="700">
      <contour>
        <pt x="265" y="0" on="1"/>
        <pt x="161" y="0" on="0"/>
        <pt x="59" y="142" on="0"/>
        <pt x="59" y="262" on="1"/>
        <pt x="59" y="436" on="0"/>
        <pt x="131" y="562" on="1"/>
        <pt x="167" y="625" on="0"/>
        <pt x="287" y="700" on="0"/>
        <pt x="363" y="700" on="1"/>
        <pt x="791" y="700" on="1"/>
        <pt x="782" y="635" on="1"/>
        <pt x="511" y="635" on="1"/>
        <pt x="480" y="413" on="1"/>
        <pt x="729" y="413" on="1"/>
        <pt x="720" y="346" on="1"/>
        <pt x="471" y="346" on="1"/>
        <pt x="431" y="65" on="1"/>
        <pt x="702" y="65" on="1"/>
        <pt x="693" y="0" on="1"/>
      </contour>
      <contour>
        <pt x="356" y="635" on="1"/>
        <pt x="300" y="635" on="0"/>
        <pt x="211" y="567" on="0"/>
        <pt x="186" y="513" on="1"/>
        <pt x="133" y="402" on="0"/>
        <pt x="133" y="275" on="1"/>
        <pt x="133" y="180" on="0"/>
        <pt x="204" y="64" on="0"/>
        <pt x="275" y="64" on="1"/>
        <pt x="370" y="64" on="1"/>
        <pt x="450" y="635" on="1"/>
      </contour>
    </TTGlyph>
    <TTGlyph name="Oacute" xMin="60" yMin="-5" xMax="573" yMax="877">
      <contour>
        <pt x="265" y="-5" on="1"/>
        <pt x="162" y="-5" on="0"/>
        <pt x="60" y="140" on="0"/>
        <pt x="60" y="261" on="1"/>
        <pt x="60" y="424" on="0"/>
        <pt x="130" y="560" on="1"/>
        <pt x="165" y="627" on="0"/>
        <pt x="287" y="710" on="0"/>
        <pt x="366" y="710" on="1"/>
        <pt x="470" y="710" on="0"/>
        <pt x="573" y="566" on="0"/>
        <pt x="573" y="445" on="1"/>
        <pt x="573" y="283" on="0"/>
        <pt x="502" y="146" on="1"/>
        <pt x="466" y="78" on="0"/>
        <pt x="343" y="-5" on="0"/>
      </contour>
      <contour>
        <pt x="299" y="645" on="0"/>
        <pt x="207" y="569" on="0"/>
        <pt x="182" y="510" on="1"/>
        <pt x="134" y="393" on="0"/>
        <pt x="134" y="274" on="1"/>
        <pt x="134" y="178" on="0"/>
        <pt x="204" y="61" on="0"/>
        <pt x="333" y="61" on="0"/>
        <pt x="424" y="137" on="0"/>
        <pt x="450" y="195" on="1"/>
        <pt x="500" y="310" on="0"/>
        <pt x="500" y="428" on="1"/>
        <pt x="500" y="522" on="0"/>
        <pt x="428" y="645" on="0"/>
      </contour>
      <contour>
        <pt x="300" y="753" on="1"/>
        <pt x="385" y="877" on="1"/>
        <pt x="461" y="877" on="1"/>
        <pt x="355" y="753" on="1"/>
      </contour>
    </TTGlyph>
    <TTGlyph name="Ocircumflex" xMin="60" yMin="-5" xMax="573" yMax="883">
      <contour>
        <pt x="265" y="-5" on="1"/>
        <pt x="162" y="-5" on="0"/>
        <pt x="60" y="140" on="0"/>
        <pt x="60" y="261" on="1"/>
        <pt x="60" y="424" on="0"/>
        <pt x="130" y="560" on="1"/>
        <pt x="165" y="627" on="0"/>
        <pt x="287" y="710" on="0"/>
        <pt x="366" y="710" on="1"/>
        <pt x="470" y="710" on="0"/>
        <pt x="573" y="566" on="0"/>
        <pt x="573" y="445" on="1"/>
        <pt x="573" y="283" on="0"/>
        <pt x="502" y="146" on="1"/>
        <pt x="466" y="78" on="0"/>
        <pt x="343" y="-5" on="0"/>
      </contour>
      <contour>
        <pt x="500" y="522" on="0"/>
        <pt x="428" y="645" on="0"/>
        <pt x="299" y="645" on="0"/>
        <pt x="207" y="569" on="0"/>
        <pt x="182" y="510" on="1"/>
        <pt x="134" y="393" on="0"/>
        <pt x="134" y="178" on="0"/>
        <pt x="204" y="61" on="0"/>
        <pt x="333" y="61" on="0"/>
        <pt x="424" y="137" on="0"/>
        <pt x="450" y="195" on="1"/>
        <pt x="500" y="310" on="0"/>
      </contour>
      <contour>
        <pt x="340" y="883" on="1"/>
        <pt x="383" y="883" on="1"/>
        <pt x="491" y="783" on="1"/>
        <pt x="470" y="754" on="1"/>
        <pt x="353" y="829" on="1"/>
        <pt x="215" y="754" on="1"/>
        <pt x="202" y="783" on="1"/>
      </contour>
    </TTGlyph>
    <TTGlyph name="Odieresis" xMin="60" yMin="-5" xMax="573" yMax="860">
      <contour>
        <pt x="265" y="-5" on="1"/>
        <pt x="162" y="-5" on="0"/>
        <pt x="60" y="140" on="0"/>
        <pt x="60" y="261" on="1"/>
        <pt x="60" y="424" on="0"/>
        <pt x="130" y="560" on="1"/>
        <pt x="165" y="627" on="0"/>
        <pt x="287" y="710" on="0"/>
        <pt x="366" y="710" on="1"/>
        <pt x="470" y="710" on="0"/>
        <pt x="573" y="566" on="0"/>
        <pt x="573" y="445" on="1"/>
        <pt x="573" y="283" on="0"/>
        <pt x="502" y="146" on="1"/>
        <pt x="466" y="78" on="0"/>
        <pt x="343" y="-5" on="0"/>
      </contour>
      <contour>
        <pt x="299" y="645" on="0"/>
        <pt x="207" y="569" on="0"/>
        <pt x="182" y="510" on="1"/>
        <pt x="134" y="393" on="0"/>
        <pt x="134" y="274" on="1"/>
        <pt x="134" y="178" on="0"/>
        <pt x="204" y="61" on="0"/>
        <pt x="333" y="61" on="0"/>
        <pt x="424" y="137" on="0"/>
        <pt x="450" y="195" on="1"/>
        <pt x="500" y="310" on="0"/>
        <pt x="500" y="428" on="1"/>
        <pt x="500" y="522" on="0"/>
        <pt x="428" y="645" on="0"/>
      </contour>
      <contour>
        <pt x="230" y="754" on="1"/>
        <pt x="244" y="860" on="1"/>
        <pt x="308" y="860" on="1"/>
        <pt x="294" y="754" on="1"/>
      </contour>
      <contour>
        <pt x="392" y="754" on="1"/>
        <pt x="406" y="860" on="1"/>
        <pt x="469" y="860" on="1"/>
        <pt x="455" y="754" on="1"/>
      </contour>
    </TTGlyph>
    <TTGlyph name="Ograve" xMin="60" yMin="-5" xMax="573" yMax="877">
      <contour>
        <pt x="265" y="-5" on="1"/>
        <pt x="162" y="-5" on="0"/>
        <pt x="60" y="140" on="0"/>
        <pt x="60" y="261" on="1"/>
        <pt x="60" y="424" on="0"/>
        <pt x="130" y="560" on="1"/>
        <pt x="165" y="627" on="0"/>
        <pt x="287" y="710" on="0"/>
        <pt x="366" y="710" on="1"/>
        <pt x="470" y="710" on="0"/>
        <pt x="573" y="566" on="0"/>
        <pt x="573" y="445" on="1"/>
        <pt x="573" y="283" on="0"/>
        <pt x="502" y="146" on="1"/>
        <pt x="466" y="78" on="0"/>
        <pt x="343" y="-5" on="0"/>
      </contour>
      <contour>
        <pt x="299" y="645" on="0"/>
        <pt x="207" y="569" on="0"/>
        <pt x="182" y="510" on="1"/>
        <pt x="134" y="393" on="0"/>
        <pt x="134" y="274" on="1"/>
        <pt x="134" y="178" on="0"/>
        <pt x="204" y="61" on="0"/>
        <pt x="333" y="61" on="0"/>
        <pt x="424" y="137" on="0"/>
        <pt x="450" y="195" on="1"/>
        <pt x="500" y="310" on="0"/>
        <pt x="500" y="428" on="1"/>
        <pt x="500" y="522" on="0"/>
        <pt x="428" y="645" on="0"/>
      </contour>
      <contour>
        <pt x="353" y="753" on="1"/>
        <pt x="298" y="753" on="1"/>
        <pt x="228" y="877" on="1"/>
        <pt x="304" y="877" on="1"/>
      </contour>
    </TTGlyph>
    <TTGlyph name="Omega" xMin="35" yMin="0" xMax="606" yMax="710">
      <contour>
        <pt x="92" y="264" on="1"/>
        <pt x="92" y="437" on="0"/>
        <pt x="165" y="568" on="1"/>
        <pt x="201" y="632" on="0"/>
        <pt x="322" y="710" on="0"/>
        <pt x="398" y="710" on="1"/>
        <pt x="502" y="710" on="0"/>
        <pt x="606" y="567" on="0"/>
        <pt x="606" y="338" on="0"/>
        <pt x="533" y="121" on="0"/>
        <pt x="468" y="65" on="1"/>
        <pt x="583" y="65" on="1"/>
        <pt x="574" y="0" on="1"/>
        <pt x="336" y="0" on="1"/>
        <pt x="345" y="65" on="1"/>
        <pt x="398" y="85" on="0"/>
        <pt x="474" y="163" on="0"/>
        <pt x="494" y="214" on="1"/>
        <pt x="532" y="312" on="0"/>
        <pt x="532" y="428" on="1"/>
        <pt x="532" y="645" on="0"/>
        <pt x="390" y="645" on="1"/>
        <pt x="335" y="645" on="0"/>
        <pt x="247" y="575" on="0"/>
        <pt x="221" y="520" on="1"/>
        <pt x="167" y="404" on="0"/>
        <pt x="167" y="279" on="1"/>
        <pt x="167" y="194" on="0"/>
        <pt x="222" y="75" on="0"/>
        <pt x="282" y="65" on="1"/>
        <pt x="273" y="0" on="1"/>
        <pt x="35" y="0" on="1"/>
        <pt x="44" y="65" on="1"/>
        <pt x="156" y="65" on="1"/>
        <pt x="92" y="136" on="0"/>
      </contour>
    </TTGlyph>
    <TTGlyph name="Oslash" xMin="60" yMin="-109" xMax="573" yMax="800">
      <contour>
        <pt x="265" y="-5" on="1"/>
        <pt x="227" y="-5" on="0"/>
        <pt x="192" y="6" on="1"/>
        <pt x="140" y="-109" on="1"/>
        <pt x="79" y="-109" on="1"/>
        <pt x="143" y="33" on="1"/>
        <pt x="60" y="100" on="0"/>
        <pt x="60" y="261" on="1"/>
        <pt x="60" y="424" on="0"/>
        <pt x="130" y="560" on="1"/>
        <pt x="165" y="627" on="0"/>
        <pt x="287" y="710" on="0"/>
        <pt x="366" y="710" on="1"/>
        <pt x="407" y="710" on="0"/>
        <pt x="443" y="697" on="1"/>
        <pt x="490" y="800" on="1"/>
        <pt x="552" y="800" on="1"/>
        <pt x="492" y="668" on="1"/>
        <pt x="573" y="601" on="0"/>
        <pt x="573" y="445" on="1"/>
        <pt x="573" y="283" on="0"/>
        <pt x="502" y="146" on="1"/>
        <pt x="466" y="78" on="0"/>
        <pt x="343" y="-5" on="0"/>
      </contour>
      <contour>
        <pt x="358" y="645" on="1"/>
        <pt x="299" y="645" on="0"/>
        <pt x="207" y="569" on="0"/>
        <pt x="182" y="510" on="1"/>
        <pt x="134" y="393" on="0"/>
        <pt x="134" y="162" on="0"/>
        <pt x="177" y="108" on="1"/>
        <pt x="414" y="632" on="1"/>
        <pt x="388" y="645" on="0"/>
      </contour>
      <contour>
        <pt x="458" y="592" on="1"/>
        <pt x="222" y="71" on="1"/>
        <pt x="243" y="61" on="0"/>
        <pt x="275" y="61" on="1"/>
        <pt x="333" y="61" on="0"/>
        <pt x="424" y="137" on="0"/>
        <pt x="450" y="195" on="1"/>
        <pt x="500" y="310" on="0"/>
        <pt x="500" y="532" on="0"/>
      </contour>
    </TTGlyph>
    <TTGlyph name="Otilde" xMin="4" yMin="-5" xMax="517" yMax="867">
      <contour>
        <pt x="403" y="754" on="0"/>
        <pt x="368" y="754" on="0"/>
        <pt x="271" y="809" on="0"/>
        <pt x="247" y="809" on="0"/>
        <pt x="218" y="790" on="0"/>
        <pt x="201" y="771" on="1"/>
        <pt x="176" y="797" on="1"/>
        <pt x="195" y="823" on="0"/>
        <pt x="251" y="867" on="0"/>
        <pt x="286" y="867" on="0"/>
        <pt x="383" y="812" on="0"/>
        <pt x="395" y="812" on="1"/>
        <pt x="418" y="812" on="0"/>
        <pt x="444" y="840" on="1"/>
        <pt x="452" y="850" on="1"/>
        <pt x="478" y="824" on="1"/>
        <pt x="459" y="798" on="0"/>
      </contour>
      <contour>
        <pt x="209" y="-5" on="1"/>
        <pt x="106" y="-5" on="0"/>
        <pt x="4" y="140" on="0"/>
        <pt x="4" y="261" on="1"/>
        <pt x="4" y="424" on="0"/>
        <pt x="74" y="560" on="1"/>
        <pt x="109" y="627" on="0"/>
        <pt x="231" y="710" on="0"/>
        <pt x="310" y="710" on="1"/>
        <pt x="414" y="710" on="0"/>
        <pt x="517" y="566" on="0"/>
        <pt x="517" y="445" on="1"/>
        <pt x="517" y="283" on="0"/>
        <pt x="446" y="146" on="1"/>
        <pt x="410" y="78" on="0"/>
        <pt x="287" y="-5" on="0"/>
      </contour>
      <contour>
        <pt x="243" y="645" on="0"/>
        <pt x="151" y="569" on="0"/>
        <pt x="126" y="510" on="1"/>
        <pt x="78" y="393" on="0"/>
        <pt x="78" y="274" on="1"/>
        <pt x="78" y="178" on="0"/>
        <pt x="148" y="61" on="0"/>
        <pt x="277" y="61" on="0"/>
        <pt x="368" y="137" on="0"/>
        <pt x="394" y="195" on="1"/>
        <pt x="444" y="310" on="0"/>
        <pt x="444" y="428" on="1"/>
        <pt x="444" y="522" on="0"/>
        <pt x="372" y="645" on="0"/>
      </contour>
    </TTGlyph>
    <TTGlyph name="P" xMin="57" yMin="0" xMax="502" yMax="700">
      <contour>
        <pt x="257" y="294" on="1"/>
        <pt x="165" y="294" on="1"/>
        <pt x="124" y="0" on="1"/>
        <pt x="57" y="0" on="1"/>
        <pt x="155" y="700" on="1"/>
        <pt x="305" y="700" on="1"/>
        <pt x="502" y="700" on="0"/>
        <pt x="502" y="554" on="1"/>
        <pt x="502" y="433" on="0"/>
        <pt x="372" y="294" on="0"/>
      </contour>
      <contour>
        <pt x="295" y="636" on="1"/>
        <pt x="213" y="636" on="1"/>
        <pt x="174" y="358" on="1"/>
        <pt x="234" y="358" on="1"/>
        <pt x="433" y="358" on="0"/>
        <pt x="433" y="531" on="1"/>
        <pt x="433" y="585" on="0"/>
        <pt x="367" y="636" on="0"/>
      </contour>
    </TTGlyph>
    <TTGlyph name="Q" xMin="60" yMin="-54" xMax="575" yMax="710">
      <contour>
        <pt x="266" y="-7" on="1"/>
        <pt x="162" y="-7" on="0"/>
        <pt x="60" y="141" on="0"/>
        <pt x="60" y="263" on="1"/>
        <pt x="60" y="417" on="0"/>
        <pt x="128" y="554" on="1"/>
        <pt x="163" y="623" on="0"/>
        <pt x="287" y="710" on="0"/>
        <pt x="367" y="710" on="1"/>
        <pt x="471" y="710" on="0"/>
        <pt x="575" y="566" on="0"/>
        <pt x="575" y="446" on="1"/>
        <pt x="575" y="244" on="0"/>
        <pt x="470" y="96" on="1"/>
        <pt x="544" y="-5" on="1"/>
        <pt x="493" y="-54" on="1"/>
        <pt x="421" y="47" on="1"/>
        <pt x="353" y="-7" on="0"/>
      </contour>
      <contour>
        <pt x="501" y="428" on="1"/>
        <pt x="501" y="522" on="0"/>
        <pt x="429" y="646" on="0"/>
        <pt x="358" y="646" on="1"/>
        <pt x="300" y="646" on="0"/>
        <pt x="209" y="571" on="0"/>
        <pt x="184" y="512" on="1"/>
        <pt x="135" y="393" on="0"/>
        <pt x="135" y="178" on="0"/>
        <pt x="205" y="59" on="0"/>
        <pt x="336" y="59" on="0"/>
        <pt x="383" y="97" on="1"/>
        <pt x="317" y="189" on="1"/>
        <pt x="369" y="238" on="1"/>
        <pt x="430" y="149" on="1"/>
        <pt x="501" y="261" on="0"/>
      </contour>
    </TTGlyph>
    <TTGlyph name="R" xMin="57" yMin="0" xMax="499" yMax="700">
      <contour>
        <pt x="226" y="328" on="1"/>
        <pt x="170" y="328" on="1"/>
        <pt x="124" y="0" on="1"/>
        <pt x="57" y="0" on="1"/>
        <pt x="155" y="700" on="1"/>
        <pt x="337" y="700" on="1"/>
        <pt x="499" y="700" on="0"/>
        <pt x="499" y="559" on="1"/>
        <pt x="499" y="488" on="0"/>
        <pt x="413" y="362" on="0"/>
        <pt x="349" y="353" on="1"/>
        <pt x="388" y="342" on="0"/>
        <pt x="417" y="301" on="0"/>
        <pt x="433" y="234" on="1"/>
        <pt x="489" y="0" on="1"/>
        <pt x="418" y="0" on="1"/>
        <pt x="362" y="224" on="1"/>
        <pt x="346" y="288" on="0"/>
        <pt x="291" y="328" on="0"/>
      </contour>
      <contour>
        <pt x="324" y="636" on="1"/>
        <pt x="213" y="636" on="1"/>
        <pt x="179" y="392" on="1"/>
        <pt x="281" y="392" on="1"/>
        <pt x="344" y="392" on="0"/>
        <pt x="423" y="482" on="0"/>
        <pt x="423" y="536" on="1"/>
        <pt x="423" y="636" on="0"/>
      </contour>
    </TTGlyph>
    <TTGlyph name="Racute" xMin="57" yMin="0" xMax="499" yMax="876">
      <contour>
        <pt x="226" y="328" on="1"/>
        <pt x="170" y="328" on="1"/>
        <pt x="124" y="0" on="1"/>
        <pt x="57" y="0" on="1"/>
        <pt x="155" y="700" on="1"/>
        <pt x="337" y="700" on="1"/>
        <pt x="499" y="700" on="0"/>
        <pt x="499" y="559" on="1"/>
        <pt x="499" y="488" on="0"/>
        <pt x="413" y="362" on="0"/>
        <pt x="349" y="353" on="1"/>
        <pt x="388" y="342" on="0"/>
        <pt x="417" y="301" on="0"/>
        <pt x="433" y="234" on="1"/>
        <pt x="489" y="0" on="1"/>
        <pt x="418" y="0" on="1"/>
        <pt x="362" y="224" on="1"/>
        <pt x="346" y="288" on="0"/>
        <pt x="291" y="328" on="0"/>
      </contour>
      <contour>
        <pt x="324" y="636" on="1"/>
        <pt x="213" y="636" on="1"/>
        <pt x="179" y="392" on="1"/>
        <pt x="281" y="392" on="1"/>
        <pt x="344" y="392" on="0"/>
        <pt x="423" y="482" on="0"/>
        <pt x="423" y="589" on="0"/>
        <pt x="371" y="636" on="0"/>
      </contour>
      <contour>
        <pt x="280" y="752" on="1"/>
        <pt x="365" y="876" on="1"/>
        <pt x="441" y="876" on="1"/>
        <pt x="335" y="752" on="1"/>
      </contour>
    </TTGlyph>
    <TTGlyph name="Rcaron" xMin="-1" yMin="-1" xMax="466" yMax="902">
      <contour>
        <pt x="328" y="773" on="1"/>
        <pt x="285" y="773" on="1"/>
        <pt x="177" y="873" on="1"/>
        <pt x="198" y="902" on="1"/>
        <pt x="315" y="827" on="1"/>
        <pt x="453" y="902" on="1"/>
        <pt x="466" y="873" on="1"/>
      </contour>
      <contour>
        <pt x="168" y="327" on="1"/>
        <pt x="112" y="327" on="1"/>
        <pt x="66" y="-1" on="1"/>
        <pt x="-1" y="-1" on="1"/>
        <pt x="97" y="699" on="1"/>
        <pt x="279" y="699" on="1"/>
        <pt x="441" y="699" on="0"/>
        <pt x="441" y="558" on="1"/>
        <pt x="441" y="487" on="0"/>
        <pt x="355" y="361" on="0"/>
        <pt x="291" y="352" on="1"/>
        <pt x="330" y="341" on="0"/>
        <pt x="359" y="300" on="0"/>
        <pt x="375" y="233" on="1"/>
        <pt x="431" y="-1" on="1"/>
        <pt x="360" y="-1" on="1"/>
        <pt x="304" y="223" on="1"/>
        <pt x="288" y="287" on="0"/>
        <pt x="233" y="327" on="0"/>
      </contour>
      <contour>
        <pt x="266" y="635" on="1"/>
        <pt x="155" y="635" on="1"/>
        <pt x="121" y="391" on="1"/>
        <pt x="223" y="391" on="1"/>
        <pt x="286" y="391" on="0"/>
        <pt x="365" y="481" on="0"/>
        <pt x="365" y="534" on="1"/>
        <pt x="365" y="635" on="0"/>
      </contour>
    </TTGlyph>
    <TTGlyph name="Rcommaaccent" xMin="57" yMin="-217" xMax="499" yMax="700">
      <contour>
        <pt x="226" y="328" on="1"/>
        <pt x="170" y="328" on="1"/>
        <pt x="124" y="0" on="1"/>
        <pt x="57" y="0" on="1"/>
        <pt x="155" y="700" on="1"/>
        <pt x="337" y="700" on="1"/>
        <pt x="499" y="700" on="0"/>
        <pt x="499" y="559" on="1"/>
        <pt x="499" y="488" on="0"/>
        <pt x="413" y="362" on="0"/>
        <pt x="349" y="353" on="1"/>
        <pt x="388" y="342" on="0"/>
        <pt x="417" y="301" on="0"/>
        <pt x="433" y="234" on="1"/>
        <pt x="489" y="0" on="1"/>
        <pt x="418" y="0" on="1"/>
        <pt x="362" y="224" on="1"/>
        <pt x="346" y="288" on="0"/>
        <pt x="291" y="328" on="0"/>
      </contour>
      <contour>
        <pt x="324" y="636" on="1"/>
        <pt x="213" y="636" on="1"/>
        <pt x="179" y="392" on="1"/>
        <pt x="281" y="392" on="1"/>
        <pt x="344" y="392" on="0"/>
        <pt x="423" y="482" on="0"/>
        <pt x="423" y="536" on="1"/>
        <pt x="423" y="636" on="0"/>
      </contour>
      <contour>
        <pt x="250" y="-40" on="1"/>
        <pt x="314" y="-40" on="1"/>
        <pt x="307" y="-89" on="0"/>
        <pt x="277" y="-152" on="0"/>
        <pt x="233" y="-217" on="1"/>
        <pt x="193" y="-186" on="1"/>
        <pt x="224" y="-132" on="0"/>
        <pt x="244" y="-84" on="0"/>
      </contour>
    </TTGlyph>
    <TTGlyph name="S" xMin="32" yMin="-6" xMax="469" yMax="710">
      <contour>
        <pt x="445" y="608" on="1"/>
        <pt x="365" y="640" on="0"/>
        <pt x="249" y="640" on="0"/>
        <pt x="184" y="571" on="0"/>
        <pt x="184" y="477" on="0"/>
        <pt x="239" y="423" on="0"/>
        <pt x="317" y="394" on="0"/>
        <pt x="395" y="359" on="0"/>
        <pt x="450" y="285" on="0"/>
        <pt x="450" y="227" on="1"/>
        <pt x="450" y="130" on="0"/>
        <pt x="315" y="-6" on="0"/>
        <pt x="210" y="-6" on="1"/>
        <pt x="158" y="-6" on="0"/>
        <pt x="62" y="27" on="0"/>
        <pt x="32" y="49" on="1"/>
        <pt x="62" y="106" on="1"/>
        <pt x="140" y="64" on="0"/>
        <pt x="281" y="64" on="0"/>
        <pt x="376" y="142" on="0"/>
        <pt x="376" y="206" on="1"/>
        <pt x="376" y="250" on="0"/>
        <pt x="321" y="307" on="0"/>
        <pt x="244" y="339" on="0"/>
        <pt x="166" y="375" on="0"/>
        <pt x="111" y="450" on="0"/>
        <pt x="111" y="508" on="1"/>
        <pt x="111" y="594" on="0"/>
        <pt x="221" y="710" on="0"/>
        <pt x="315" y="710" on="1"/>
        <pt x="387" y="710" on="0"/>
        <pt x="469" y="675" on="1"/>
      </contour>
    </TTGlyph>
    <TTGlyph name="Scaron" xMin="-26" yMin="-6" xMax="451" yMax="902">
      <contour>
        <pt x="313" y="773" on="1"/>
        <pt x="270" y="773" on="1"/>
        <pt x="162" y="873" on="1"/>
        <pt x="183" y="902" on="1"/>
        <pt x="300" y="827" on="1"/>
        <pt x="438" y="902" on="1"/>
        <pt x="451" y="873" on="1"/>
      </contour>
      <contour>
        <pt x="387" y="608" on="1"/>
        <pt x="307" y="640" on="0"/>
        <pt x="191" y="640" on="0"/>
        <pt x="126" y="571" on="0"/>
        <pt x="126" y="477" on="0"/>
        <pt x="181" y="423" on="0"/>
        <pt x="259" y="394" on="0"/>
        <pt x="337" y="359" on="0"/>
        <pt x="392" y="285" on="0"/>
        <pt x="392" y="227" on="1"/>
        <pt x="392" y="130" on="0"/>
        <pt x="257" y="-6" on="0"/>
        <pt x="152" y="-6" on="1"/>
        <pt x="100" y="-6" on="0"/>
        <pt x="4" y="27" on="0"/>
        <pt x="-26" y="49" on="1"/>
        <pt x="4" y="106" on="1"/>
        <pt x="82" y="64" on="0"/>
        <pt x="223" y="64" on="0"/>
        <pt x="318" y="142" on="0"/>
        <pt x="318" y="206" on="1"/>
        <pt x="318" y="250" on="0"/>
        <pt x="263" y="307" on="0"/>
        <pt x="186" y="339" on="0"/>
        <pt x="108" y="375" on="0"/>
        <pt x="53" y="450" on="0"/>
        <pt x="53" y="508" on="1"/>
        <pt x="53" y="594" on="0"/>
        <pt x="163" y="710" on="0"/>
        <pt x="257" y="710" on="1"/>
        <pt x="329" y="710" on="0"/>
        <pt x="411" y="675" on="1"/>
      </contour>
    </TTGlyph>
    <TTGlyph name="T" xMin="82" yMin="0" xMax="509" yMax="700">
      <contour>
        <pt x="170" y="0" on="1"/>
        <pt x="259" y="633" on="1"/>
        <pt x="82" y="633" on="1"/>
        <pt x="91" y="700" on="1"/>
        <pt x="509" y="700" on="1"/>
        <pt x="500" y="633" on="1"/>
        <pt x="325" y="633" on="1"/>
        <pt x="236" y="0" on="1"/>
      </contour>
    </TTGlyph>
    <TTGlyph name="Thorn" xMin="55" yMin="0" xMax="485" yMax="700">
      <contour>
        <pt x="308" y="590" on="1"/>
        <pt x="392" y="590" on="0"/>
        <pt x="485" y="509" on="0"/>
        <pt x="485" y="442" on="1"/>
        <pt x="485" y="317" on="0"/>
        <pt x="358" y="184" on="0"/>
        <pt x="240" y="184" on="1"/>
        <pt x="148" y="184" on="1"/>
        <pt x="122" y="0" on="1"/>
        <pt x="55" y="0" on="1"/>
        <pt x="153" y="700" on="1"/>
        <pt x="220" y="700" on="1"/>
        <pt x="205" y="590" on="1"/>
      </contour>
      <contour>
        <pt x="278" y="526" on="1"/>
        <pt x="196" y="526" on="1"/>
        <pt x="157" y="248" on="1"/>
        <pt x="217" y="248" on="1"/>
        <pt x="315" y="248" on="0"/>
        <pt x="411" y="328" on="0"/>
        <pt x="411" y="421" on="1"/>
        <pt x="411" y="477" on="0"/>
        <pt x="352" y="526" on="0"/>
      </contour>
    </TTGlyph>
    <TTGlyph name="U" xMin="88" yMin="-6" xMax="589" yMax="700">
      <contour>
        <pt x="273" y="-6" on="1"/>
        <pt x="88" y="-6" on="0"/>
        <pt x="88" y="190" on="1"/>
        <pt x="88" y="218" on="0"/>
        <pt x="93" y="258" on="1"/>
        <pt x="155" y="700" on="1"/>
        <pt x="223" y="700" on="1"/>
        <pt x="160" y="246" on="1"/>
        <pt x="156" y="222" on="0"/>
        <pt x="156" y="198" on="1"/>
        <pt x="156" y="131" on="0"/>
        <pt x="221" y="59" on="0"/>
        <pt x="351" y="59" on="0"/>
        <pt x="444" y="156" on="0"/>
        <pt x="457" y="246" on="1"/>
        <pt x="520" y="700" on="1"/>
        <pt x="589" y="700" on="1"/>
        <pt x="527" y="258" on="1"/>
        <pt x="509" y="127" on="0"/>
        <pt x="379" y="-6" on="0"/>
      </contour>
    </TTGlyph>
    <TTGlyph name="Uacute" xMin="88" yMin="-6" xMax="589" yMax="877">
      <contour>
        <pt x="273" y="-6" on="1"/>
        <pt x="88" y="-6" on="0"/>
        <pt x="88" y="190" on="1"/>
        <pt x="88" y="218" on="0"/>
        <pt x="93" y="258" on="1"/>
        <pt x="155" y="700" on="1"/>
        <pt x="223" y="700" on="1"/>
        <pt x="160" y="246" on="1"/>
        <pt x="156" y="222" on="0"/>
        <pt x="156" y="198" on="1"/>
        <pt x="156" y="131" on="0"/>
        <pt x="221" y="59" on="0"/>
        <pt x="351" y="59" on="0"/>
        <pt x="444" y="156" on="0"/>
        <pt x="457" y="246" on="1"/>
        <pt x="520" y="700" on="1"/>
        <pt x="589" y="700" on="1"/>
        <pt x="527" y="258" on="1"/>
        <pt x="509" y="127" on="0"/>
        <pt x="379" y="-6" on="0"/>
      </contour>
      <contour>
        <pt x="319" y="753" on="1"/>
        <pt x="404" y="877" on="1"/>
        <pt x="480" y="877" on="1"/>
        <pt x="374" y="753" on="1"/>
      </contour>
    </TTGlyph>
    <TTGlyph name="Ucircumflex" xMin="88" yMin="-6" xMax="589" yMax="883">
      <contour>
        <pt x="273" y="-6" on="1"/>
        <pt x="88" y="-6" on="0"/>
        <pt x="88" y="190" on="1"/>
        <pt x="88" y="218" on="0"/>
        <pt x="93" y="258" on="1"/>
        <pt x="155" y="700" on="1"/>
        <pt x="223" y="700" on="1"/>
        <pt x="160" y="246" on="1"/>
        <pt x="156" y="222" on="0"/>
        <pt x="156" y="198" on="1"/>
        <pt x="156" y="131" on="0"/>
        <pt x="221" y="59" on="0"/>
        <pt x="351" y="59" on="0"/>
        <pt x="444" y="156" on="0"/>
        <pt x="457" y="246" on="1"/>
        <pt x="520" y="700" on="1"/>
        <pt x="589" y="700" on="1"/>
        <pt x="527" y="258" on="1"/>
        <pt x="509" y="127" on="0"/>
        <pt x="379" y="-6" on="0"/>
      </contour>
      <contour>
        <pt x="348" y="883" on="1"/>
        <pt x="391" y="883" on="1"/>
        <pt x="499" y="783" on="1"/>
        <pt x="478" y="754" on="1"/>
        <pt x="361" y="829" on="1"/>
        <pt x="223" y="754" on="1"/>
        <pt x="210" y="783" on="1"/>
      </contour>
    </TTGlyph>
    <TTGlyph name="Udieresis" xMin="88" yMin="-6" xMax="589" yMax="860">
      <component glyphName="U" x="0" y="0" flags="0x1004"/>
      <component glyphName="dieresis" x="82" y="45" flags="0x1004"/>
    </TTGlyph>
    <TTGlyph name="Ugrave" xMin="88" yMin="-6" xMax="589" yMax="878">
      <contour>
        <pt x="273" y="-6" on="1"/>
        <pt x="88" y="-6" on="0"/>
        <pt x="88" y="190" on="1"/>
        <pt x="88" y="218" on="0"/>
        <pt x="93" y="258" on="1"/>
        <pt x="155" y="700" on="1"/>
        <pt x="223" y="700" on="1"/>
        <pt x="160" y="246" on="1"/>
        <pt x="156" y="222" on="0"/>
        <pt x="156" y="198" on="1"/>
        <pt x="156" y="131" on="0"/>
        <pt x="221" y="59" on="0"/>
        <pt x="351" y="59" on="0"/>
        <pt x="444" y="156" on="0"/>
        <pt x="457" y="246" on="1"/>
        <pt x="520" y="700" on="1"/>
        <pt x="589" y="700" on="1"/>
        <pt x="527" y="258" on="1"/>
        <pt x="509" y="127" on="0"/>
        <pt x="379" y="-6" on="0"/>
      </contour>
      <contour>
        <pt x="381" y="754" on="1"/>
        <pt x="326" y="754" on="1"/>
        <pt x="256" y="878" on="1"/>
        <pt x="332" y="878" on="1"/>
      </contour>
    </TTGlyph>
    <TTGlyph name="V" xMin="85" yMin="0" xMax="553" yMax="700">
      <contour>
        <pt x="553" y="700" on="1"/>
        <pt x="261" y="0" on="1"/>
        <pt x="166" y="0" on="1"/>
        <pt x="85" y="700" on="1"/>
        <pt x="161" y="700" on="1"/>
        <pt x="228" y="85" on="1"/>
        <pt x="479" y="700" on="1"/>
      </contour>
    </TTGlyph>
    <TTGlyph name="W" xMin="84" yMin="0" xMax="737" yMax="699">
      <contour>
        <pt x="737" y="699" on="1"/>
        <pt x="489" y="0" on="1"/>
        <pt x="411" y="0" on="1"/>
        <pt x="376" y="406" on="1"/>
        <pt x="207" y="0" on="1"/>
        <pt x="133" y="0" on="1"/>
        <pt x="84" y="699" on="1"/>
        <pt x="162" y="699" on="1"/>
        <pt x="185" y="85" on="1"/>
        <pt x="365" y="510" on="1"/>
        <pt x="416" y="510" on="1"/>
        <pt x="466" y="85" on="1"/>
        <pt x="666" y="699" on="1"/>
      </contour>
    </TTGlyph>
    <TTGlyph name="X" xMin="-6" yMin="0" xMax="571" yMax="700">
      <contour>
        <pt x="483" y="0" on="1"/>
        <pt x="400" y="0" on="1"/>
        <pt x="284" y="315" on="1"/>
        <pt x="75" y="0" on="1"/>
        <pt x="-6" y="0" on="1"/>
        <pt x="254" y="368" on="1"/>
        <pt x="110" y="700" on="1"/>
        <pt x="196" y="700" on="1"/>
        <pt x="301" y="424" on="1"/>
        <pt x="490" y="700" on="1"/>
        <pt x="571" y="700" on="1"/>
        <pt x="332" y="368" on="1"/>
      </contour>
    </TTGlyph>
    <TTGlyph name="Y" xMin="84" yMin="0" xMax="558" yMax="700">
      <contour>
        <pt x="558" y="700" on="1"/>
        <pt x="297" y="315" on="1"/>
        <pt x="253" y="0" on="1"/>
        <pt x="185" y="0" on="1"/>
        <pt x="229" y="315" on="1"/>
        <pt x="84" y="700" on="1"/>
        <pt x="159" y="700" on="1"/>
        <pt x="273" y="376" on="1"/>
        <pt x="485" y="700" on="1"/>
      </contour>
    </TTGlyph>
    <TTGlyph name="Yacute" xMin="78" yMin="0" xMax="552" yMax="876">
      <contour>
        <pt x="552" y="700" on="1"/>
        <pt x="291" y="315" on="1"/>
        <pt x="247" y="0" on="1"/>
        <pt x="179" y="0" on="1"/>
        <pt x="223" y="315" on="1"/>
        <pt x="78" y="700" on="1"/>
        <pt x="153" y="700" on="1"/>
        <pt x="267" y="376" on="1"/>
        <pt x="479" y="700" on="1"/>
      </contour>
      <contour>
        <pt x="279" y="752" on="1"/>
        <pt x="364" y="876" on="1"/>
        <pt x="440" y="876" on="1"/>
        <pt x="334" y="752" on="1"/>
      </contour>
    </TTGlyph>
    <TTGlyph name="Ydieresis" xMin="84" yMin="0" xMax="558" yMax="922">
      <contour>
        <pt x="558" y="700" on="1"/>
        <pt x="297" y="315" on="1"/>
        <pt x="253" y="0" on="1"/>
        <pt x="185" y="0" on="1"/>
        <pt x="229" y="315" on="1"/>
        <pt x="84" y="700" on="1"/>
        <pt x="159" y="700" on="1"/>
        <pt x="273" y="376" on="1"/>
        <pt x="485" y="700" on="1"/>
      </contour>
      <contour>
        <pt x="196" y="816" on="1"/>
        <pt x="210" y="922" on="1"/>
        <pt x="274" y="922" on="1"/>
        <pt x="260" y="816" on="1"/>
      </contour>
      <contour>
        <pt x="358" y="816" on="1"/>
        <pt x="372" y="922" on="1"/>
        <pt x="435" y="922" on="1"/>
        <pt x="421" y="816" on="1"/>
      </contour>
    </TTGlyph>
    <TTGlyph name="Z" xMin="11" yMin="0" xMax="476" yMax="700">
      <contour>
        <pt x="406" y="0" on="1"/>
        <pt x="11" y="0" on="1"/>
        <pt x="20" y="62" on="1"/>
        <pt x="388" y="635" on="1"/>
        <pt x="99" y="635" on="1"/>
        <pt x="108" y="700" on="1"/>
        <pt x="476" y="700" on="1"/>
        <pt x="468" y="643" on="1"/>
        <pt x="102" y="66" on="1"/>
        <pt x="415" y="66" on="1"/>
      </contour>
    </TTGlyph>
    <TTGlyph name="Zcaron" xMin="11" yMin="0" xMax="476" yMax="902">
      <contour>
        <pt x="319" y="773" on="1"/>
        <pt x="277" y="773" on="1"/>
        <pt x="169" y="873" on="1"/>
        <pt x="190" y="902" on="1"/>
        <pt x="306" y="827" on="1"/>
        <pt x="445" y="902" on="1"/>
        <pt x="458" y="873" on="1"/>
      </contour>
      <contour>
        <pt x="406" y="0" on="1"/>
        <pt x="11" y="0" on="1"/>
        <pt x="20" y="62" on="1"/>
        <pt x="388" y="635" on="1"/>
        <pt x="99" y="635" on="1"/>
        <pt x="108" y="700" on="1"/>
        <pt x="476" y="700" on="1"/>
        <pt x="468" y="643" on="1"/>
        <pt x="102" y="66" on="1"/>
        <pt x="415" y="66" on="1"/>
      </contour>
    </TTGlyph>
    <TTGlyph name="a" xMin="52" yMin="-7" xMax="463" yMax="510">
      <contour>
        <pt x="184" y="-7" on="1"/>
        <pt x="52" y="-7" on="0"/>
        <pt x="52" y="167" on="1"/>
        <pt x="52" y="300" on="0"/>
        <pt x="101" y="398" on="1"/>
        <pt x="126" y="449" on="0"/>
        <pt x="216" y="510" on="0"/>
        <pt x="274" y="510" on="1"/>
        <pt x="362" y="510" on="0"/>
        <pt x="407" y="446" on="1"/>
        <pt x="423" y="500" on="1"/>
        <pt x="463" y="500" on="1"/>
        <pt x="392" y="0" on="1"/>
        <pt x="353" y="0" on="1"/>
        <pt x="337" y="59" on="1"/>
        <pt x="324" y="48" on="1"/>
        <pt x="259" y="-7" on="0"/>
      </contour>
      <contour>
        <pt x="379" y="400" on="1"/>
        <pt x="332" y="445" on="0"/>
        <pt x="235" y="445" on="0"/>
        <pt x="171" y="397" on="0"/>
        <pt x="154" y="356" on="1"/>
        <pt x="122" y="280" on="0"/>
        <pt x="122" y="178" on="1"/>
        <pt x="122" y="58" on="0"/>
        <pt x="197" y="58" on="1"/>
        <pt x="250" y="58" on="0"/>
        <pt x="342" y="141" on="0"/>
        <pt x="351" y="205" on="1"/>
      </contour>
    </TTGlyph>
    <TTGlyph name="a.salt" xMin="45" yMin="-6" xMax="414" yMax="510">
      <contour>
        <pt x="337" y="299" on="1"/>
        <pt x="343" y="340" on="0"/>
        <pt x="343" y="414" on="0"/>
        <pt x="302" y="445" on="0"/>
        <pt x="174" y="445" on="0"/>
        <pt x="121" y="424" on="1"/>
        <pt x="117" y="482" on="1"/>
        <pt x="196" y="510" on="0"/>
        <pt x="277" y="510" on="1"/>
        <pt x="414" y="510" on="0"/>
        <pt x="414" y="378" on="1"/>
        <pt x="414" y="358" on="0"/>
        <pt x="411" y="334" on="1"/>
        <pt x="364" y="0" on="1"/>
        <pt x="325" y="0" on="1"/>
        <pt x="309" y="59" on="1"/>
        <pt x="263" y="21" on="0"/>
        <pt x="199" y="-6" on="0"/>
        <pt x="103" y="-6" on="0"/>
        <pt x="45" y="58" on="0"/>
        <pt x="45" y="114" on="1"/>
        <pt x="45" y="293" on="0"/>
        <pt x="300" y="299" on="1"/>
      </contour>
      <contour>
        <pt x="288" y="236" on="1"/>
        <pt x="165" y="236" on="0"/>
        <pt x="130" y="190" on="1"/>
        <pt x="114" y="167" on="0"/>
        <pt x="114" y="98" on="0"/>
        <pt x="145" y="57" on="0"/>
        <pt x="206" y="57" on="0"/>
        <pt x="268" y="90" on="0"/>
        <pt x="314" y="131" on="1"/>
        <pt x="329" y="236" on="1"/>
      </contour>
    </TTGlyph>
    <TTGlyph name="aacute" xMin="24" yMin="-7" xMax="437" yMax="733">
      <contour>
        <pt x="156" y="-7" on="1"/>
        <pt x="24" y="-7" on="0"/>
        <pt x="24" y="167" on="1"/>
        <pt x="24" y="300" on="0"/>
        <pt x="73" y="398" on="1"/>
        <pt x="98" y="449" on="0"/>
        <pt x="188" y="510" on="0"/>
        <pt x="246" y="510" on="1"/>
        <pt x="334" y="510" on="0"/>
        <pt x="379" y="446" on="1"/>
        <pt x="395" y="500" on="1"/>
        <pt x="435" y="500" on="1"/>
        <pt x="364" y="0" on="1"/>
        <pt x="325" y="0" on="1"/>
        <pt x="309" y="59" on="1"/>
        <pt x="296" y="48" on="1"/>
        <pt x="231" y="-7" on="0"/>
      </contour>
      <contour>
        <pt x="351" y="400" on="1"/>
        <pt x="304" y="445" on="0"/>
        <pt x="207" y="445" on="0"/>
        <pt x="143" y="397" on="0"/>
        <pt x="126" y="356" on="1"/>
        <pt x="94" y="280" on="0"/>
        <pt x="94" y="178" on="1"/>
        <pt x="94" y="58" on="0"/>
        <pt x="169" y="58" on="1"/>
        <pt x="222" y="58" on="0"/>
        <pt x="314" y="141" on="0"/>
        <pt x="323" y="205" on="1"/>
      </contour>
      <contour>
        <pt x="302" y="571" on="1"/>
        <pt x="252" y="592" on="1"/>
        <pt x="374" y="733" on="1"/>
        <pt x="437" y="703" on="1"/>
      </contour>
    </TTGlyph>
    <TTGlyph name="aacute.salt" xMin="45" yMin="-6" xMax="465" yMax="733">
      <contour>
        <pt x="330" y="571" on="1"/>
        <pt x="280" y="592" on="1"/>
        <pt x="402" y="733" on="1"/>
        <pt x="465" y="703" on="1"/>
      </contour>
      <contour>
        <pt x="337" y="299" on="1"/>
        <pt x="343" y="340" on="0"/>
        <pt x="343" y="414" on="0"/>
        <pt x="302" y="445" on="0"/>
        <pt x="174" y="445" on="0"/>
        <pt x="121" y="424" on="1"/>
        <pt x="117" y="482" on="1"/>
        <pt x="196" y="510" on="0"/>
        <pt x="277" y="510" on="1"/>
        <pt x="414" y="510" on="0"/>
        <pt x="414" y="378" on="1"/>
        <pt x="414" y="358" on="0"/>
        <pt x="411" y="334" on="1"/>
        <pt x="364" y="0" on="1"/>
        <pt x="325" y="0" on="1"/>
        <pt x="309" y="59" on="1"/>
        <pt x="263" y="21" on="0"/>
        <pt x="199" y="-6" on="0"/>
        <pt x="103" y="-6" on="0"/>
        <pt x="45" y="58" on="0"/>
        <pt x="45" y="114" on="1"/>
        <pt x="45" y="293" on="0"/>
        <pt x="300" y="299" on="1"/>
      </contour>
      <contour>
        <pt x="288" y="236" on="1"/>
        <pt x="165" y="236" on="0"/>
        <pt x="130" y="190" on="1"/>
        <pt x="114" y="167" on="0"/>
        <pt x="114" y="98" on="0"/>
        <pt x="145" y="57" on="0"/>
        <pt x="206" y="57" on="0"/>
        <pt x="268" y="90" on="0"/>
        <pt x="314" y="131" on="1"/>
        <pt x="329" y="236" on="1"/>
      </contour>
    </TTGlyph>
    <TTGlyph name="acircumflex" xMin="24" yMin="-7" xMax="435" yMax="712">
      <contour>
        <pt x="156" y="-7" on="1"/>
        <pt x="24" y="-7" on="0"/>
        <pt x="24" y="167" on="1"/>
        <pt x="24" y="300" on="0"/>
        <pt x="73" y="398" on="1"/>
        <pt x="98" y="449" on="0"/>
        <pt x="188" y="510" on="0"/>
        <pt x="246" y="510" on="1"/>
        <pt x="334" y="510" on="0"/>
        <pt x="379" y="446" on="1"/>
        <pt x="395" y="500" on="1"/>
        <pt x="435" y="500" on="1"/>
        <pt x="364" y="0" on="1"/>
        <pt x="325" y="0" on="1"/>
        <pt x="309" y="59" on="1"/>
        <pt x="296" y="48" on="1"/>
        <pt x="231" y="-7" on="0"/>
      </contour>
      <contour>
        <pt x="351" y="400" on="1"/>
        <pt x="304" y="445" on="0"/>
        <pt x="207" y="445" on="0"/>
        <pt x="143" y="397" on="0"/>
        <pt x="126" y="356" on="1"/>
        <pt x="94" y="280" on="0"/>
        <pt x="94" y="178" on="1"/>
        <pt x="94" y="58" on="0"/>
        <pt x="169" y="58" on="1"/>
        <pt x="222" y="58" on="0"/>
        <pt x="314" y="141" on="0"/>
        <pt x="323" y="205" on="1"/>
      </contour>
      <contour>
        <pt x="272" y="712" on="1"/>
        <pt x="315" y="712" on="1"/>
        <pt x="423" y="612" on="1"/>
        <pt x="402" y="583" on="1"/>
        <pt x="285" y="658" on="1"/>
        <pt x="147" y="583" on="1"/>
        <pt x="134" y="612" on="1"/>
      </contour>
    </TTGlyph>
    <TTGlyph name="acircumflex.salt" xMin="45" yMin="-6" xMax="431" yMax="712">
      <contour>
        <pt x="280" y="712" on="1"/>
        <pt x="323" y="712" on="1"/>
        <pt x="431" y="612" on="1"/>
        <pt x="410" y="583" on="1"/>
        <pt x="293" y="658" on="1"/>
        <pt x="155" y="583" on="1"/>
        <pt x="142" y="612" on="1"/>
      </contour>
      <contour>
        <pt x="337" y="299" on="1"/>
        <pt x="343" y="340" on="0"/>
        <pt x="343" y="414" on="0"/>
        <pt x="302" y="445" on="0"/>
        <pt x="174" y="445" on="0"/>
        <pt x="121" y="424" on="1"/>
        <pt x="117" y="482" on="1"/>
        <pt x="196" y="510" on="0"/>
        <pt x="277" y="510" on="1"/>
        <pt x="414" y="510" on="0"/>
        <pt x="414" y="378" on="1"/>
        <pt x="414" y="358" on="0"/>
        <pt x="411" y="334" on="1"/>
        <pt x="364" y="0" on="1"/>
        <pt x="325" y="0" on="1"/>
        <pt x="309" y="59" on="1"/>
        <pt x="263" y="21" on="0"/>
        <pt x="199" y="-6" on="0"/>
        <pt x="103" y="-6" on="0"/>
        <pt x="45" y="58" on="0"/>
        <pt x="45" y="114" on="1"/>
        <pt x="45" y="293" on="0"/>
        <pt x="300" y="299" on="1"/>
      </contour>
      <contour>
        <pt x="288" y="236" on="1"/>
        <pt x="165" y="236" on="0"/>
        <pt x="130" y="190" on="1"/>
        <pt x="114" y="167" on="0"/>
        <pt x="114" y="98" on="0"/>
        <pt x="145" y="57" on="0"/>
        <pt x="206" y="57" on="0"/>
        <pt x="268" y="90" on="0"/>
        <pt x="314" y="131" on="1"/>
        <pt x="329" y="236" on="1"/>
      </contour>
    </TTGlyph>
    <TTGlyph name="acute" xMin="128" yMin="571" xMax="313" yMax="733">
      <contour>
        <pt x="178" y="571" on="1"/>
        <pt x="128" y="592" on="1"/>
        <pt x="250" y="733" on="1"/>
        <pt x="313" y="703" on="1"/>
      </contour>
    </TTGlyph>
    <TTGlyph name="acuteMAY" xMin="209" yMin="701" xMax="370" yMax="825">
      <contour>
        <pt x="209" y="701" on="1"/>
        <pt x="294" y="825" on="1"/>
        <pt x="370" y="825" on="1"/>
        <pt x="264" y="701" on="1"/>
      </contour>
    </TTGlyph>
    <TTGlyph name="adieresis" xMin="24" yMin="-7" xMax="435" yMax="700">
      <contour>
        <pt x="156" y="-7" on="1"/>
        <pt x="24" y="-7" on="0"/>
        <pt x="24" y="167" on="1"/>
        <pt x="24" y="300" on="0"/>
        <pt x="73" y="398" on="1"/>
        <pt x="98" y="449" on="0"/>
        <pt x="188" y="510" on="0"/>
        <pt x="246" y="510" on="1"/>
        <pt x="334" y="510" on="0"/>
        <pt x="379" y="446" on="1"/>
        <pt x="395" y="500" on="1"/>
        <pt x="435" y="500" on="1"/>
        <pt x="364" y="0" on="1"/>
        <pt x="325" y="0" on="1"/>
        <pt x="309" y="59" on="1"/>
        <pt x="296" y="48" on="1"/>
        <pt x="231" y="-7" on="0"/>
      </contour>
      <contour>
        <pt x="351" y="400" on="1"/>
        <pt x="304" y="445" on="0"/>
        <pt x="207" y="445" on="0"/>
        <pt x="143" y="397" on="0"/>
        <pt x="126" y="356" on="1"/>
        <pt x="94" y="280" on="0"/>
        <pt x="94" y="178" on="1"/>
        <pt x="94" y="58" on="0"/>
        <pt x="169" y="58" on="1"/>
        <pt x="222" y="58" on="0"/>
        <pt x="314" y="141" on="0"/>
        <pt x="323" y="205" on="1"/>
      </contour>
      <contour>
        <pt x="164" y="594" on="1"/>
        <pt x="178" y="700" on="1"/>
        <pt x="242" y="700" on="1"/>
        <pt x="228" y="594" on="1"/>
      </contour>
      <contour>
        <pt x="326" y="594" on="1"/>
        <pt x="340" y="700" on="1"/>
        <pt x="403" y="700" on="1"/>
        <pt x="389" y="594" on="1"/>
      </contour>
    </TTGlyph>
    <TTGlyph name="adieresis.salt" xMin="45" yMin="-6" xMax="414" yMax="700">
      <contour>
        <pt x="172" y="594" on="1"/>
        <pt x="186" y="700" on="1"/>
        <pt x="250" y="700" on="1"/>
        <pt x="236" y="594" on="1"/>
      </contour>
      <contour>
        <pt x="334" y="594" on="1"/>
        <pt x="348" y="700" on="1"/>
        <pt x="411" y="700" on="1"/>
        <pt x="397" y="594" on="1"/>
      </contour>
      <contour>
        <pt x="337" y="299" on="1"/>
        <pt x="343" y="340" on="0"/>
        <pt x="343" y="414" on="0"/>
        <pt x="302" y="445" on="0"/>
        <pt x="174" y="445" on="0"/>
        <pt x="121" y="424" on="1"/>
        <pt x="117" y="482" on="1"/>
        <pt x="196" y="510" on="0"/>
        <pt x="277" y="510" on="1"/>
        <pt x="414" y="510" on="0"/>
        <pt x="414" y="378" on="1"/>
        <pt x="414" y="358" on="0"/>
        <pt x="411" y="334" on="1"/>
        <pt x="364" y="0" on="1"/>
        <pt x="325" y="0" on="1"/>
        <pt x="309" y="59" on="1"/>
        <pt x="263" y="21" on="0"/>
        <pt x="199" y="-6" on="0"/>
        <pt x="103" y="-6" on="0"/>
        <pt x="45" y="58" on="0"/>
        <pt x="45" y="114" on="1"/>
        <pt x="45" y="293" on="0"/>
        <pt x="300" y="299" on="1"/>
      </contour>
      <contour>
        <pt x="288" y="236" on="1"/>
        <pt x="165" y="236" on="0"/>
        <pt x="130" y="190" on="1"/>
        <pt x="114" y="167" on="0"/>
        <pt x="114" y="98" on="0"/>
        <pt x="145" y="57" on="0"/>
        <pt x="206" y="57" on="0"/>
        <pt x="268" y="90" on="0"/>
        <pt x="314" y="131" on="1"/>
        <pt x="329" y="236" on="1"/>
      </contour>
    </TTGlyph>
    <TTGlyph name="ae" xMin="25" yMin="-7" xMax="692" yMax="510">
      <contour>
        <pt x="157" y="-7" on="1"/>
        <pt x="25" y="-7" on="0"/>
        <pt x="25" y="167" on="1"/>
        <pt x="25" y="300" on="0"/>
        <pt x="74" y="398" on="1"/>
        <pt x="99" y="449" on="0"/>
        <pt x="189" y="510" on="0"/>
        <pt x="247" y="510" on="1"/>
        <pt x="336" y="510" on="0"/>
        <pt x="382" y="466" on="1"/>
        <pt x="396" y="500" on="1"/>
        <pt x="436" y="500" on="1"/>
        <pt x="432" y="470" on="1"/>
        <pt x="482" y="510" on="0"/>
        <pt x="617" y="510" on="0"/>
        <pt x="692" y="444" on="0"/>
        <pt x="692" y="318" on="0"/>
        <pt x="570" y="231" on="0"/>
        <pt x="448" y="231" on="1"/>
        <pt x="423" y="231" on="0"/>
        <pt x="393" y="234" on="1"/>
        <pt x="389" y="211" on="0"/>
        <pt x="389" y="188" on="1"/>
        <pt x="389" y="118" on="0"/>
        <pt x="457" y="58" on="0"/>
        <pt x="510" y="58" on="1"/>
        <pt x="550" y="58" on="0"/>
        <pt x="590" y="72" on="1"/>
        <pt x="637" y="87" on="1"/>
        <pt x="639" y="29" on="1"/>
        <pt x="544" y="-6" on="0"/>
        <pt x="494" y="-6" on="1"/>
        <pt x="377" y="-6" on="0"/>
        <pt x="339" y="85" on="1"/>
        <pt x="341" y="99" on="1"/>
        <pt x="263" y="-7" on="0"/>
      </contour>
      <contour>
        <pt x="354" y="420" on="1"/>
        <pt x="309" y="445" on="0"/>
        <pt x="208" y="445" on="0"/>
        <pt x="144" y="397" on="0"/>
        <pt x="127" y="356" on="1"/>
        <pt x="95" y="280" on="0"/>
        <pt x="95" y="178" on="1"/>
        <pt x="95" y="58" on="0"/>
        <pt x="170" y="58" on="1"/>
        <pt x="223" y="58" on="0"/>
        <pt x="315" y="141" on="0"/>
        <pt x="324" y="205" on="1"/>
      </contour>
      <contour>
        <pt x="453" y="288" on="1"/>
        <pt x="526" y="288" on="0"/>
        <pt x="627" y="334" on="0"/>
        <pt x="627" y="381" on="1"/>
        <pt x="627" y="445" on="0"/>
        <pt x="540" y="445" on="1"/>
        <pt x="438" y="445" on="0"/>
        <pt x="404" y="291" on="1"/>
        <pt x="428" y="288" on="0"/>
      </contour>
    </TTGlyph>
    <TTGlyph name="ae.salt" xMin="45" yMin="-6" xMax="693" yMax="510">
      <contour>
        <pt x="693" y="346" on="1"/>
        <pt x="693" y="310" on="0"/>
        <pt x="679" y="234" on="1"/>
        <pt x="394" y="234" on="1"/>
        <pt x="390" y="200" on="0"/>
        <pt x="390" y="188" on="1"/>
        <pt x="390" y="118" on="0"/>
        <pt x="458" y="58" on="0"/>
        <pt x="511" y="58" on="1"/>
        <pt x="546" y="58" on="0"/>
        <pt x="585" y="70" on="0"/>
        <pt x="596" y="73" on="0"/>
        <pt x="631" y="85" on="0"/>
        <pt x="638" y="87" on="1"/>
        <pt x="640" y="29" on="1"/>
        <pt x="545" y="-6" on="0"/>
        <pt x="495" y="-6" on="1"/>
        <pt x="381" y="-6" on="0"/>
        <pt x="341" y="82" on="1"/>
        <pt x="256" y="-6" on="0"/>
        <pt x="159" y="-6" on="1"/>
        <pt x="103" y="-6" on="0"/>
        <pt x="45" y="58" on="0"/>
        <pt x="45" y="114" on="1"/>
        <pt x="45" y="212" on="0"/>
        <pt x="187" y="299" on="0"/>
        <pt x="300" y="299" on="1"/>
        <pt x="337" y="299" on="1"/>
        <pt x="343" y="340" on="0"/>
        <pt x="343" y="414" on="0"/>
        <pt x="302" y="445" on="0"/>
        <pt x="174" y="445" on="0"/>
        <pt x="121" y="424" on="1"/>
        <pt x="117" y="482" on="1"/>
        <pt x="196" y="510" on="0"/>
        <pt x="277" y="510" on="1"/>
        <pt x="377" y="510" on="0"/>
        <pt x="404" y="438" on="1"/>
        <pt x="464" y="510" on="0"/>
        <pt x="550" y="510" on="1"/>
        <pt x="618" y="510" on="0"/>
        <pt x="693" y="423" on="0"/>
      </contour>
      <contour>
        <pt x="288" y="236" on="1"/>
        <pt x="165" y="236" on="0"/>
        <pt x="130" y="190" on="1"/>
        <pt x="114" y="167" on="0"/>
        <pt x="114" y="98" on="0"/>
        <pt x="145" y="57" on="0"/>
        <pt x="206" y="57" on="0"/>
        <pt x="268" y="90" on="0"/>
        <pt x="314" y="131" on="1"/>
        <pt x="329" y="236" on="1"/>
      </contour>
      <contour>
        <pt x="628" y="341" on="1"/>
        <pt x="628" y="445" on="0"/>
        <pt x="541" y="445" on="1"/>
        <pt x="483" y="445" on="0"/>
        <pt x="418" y="359" on="0"/>
        <pt x="407" y="291" on="1"/>
        <pt x="624" y="291" on="1"/>
        <pt x="628" y="327" on="0"/>
      </contour>
    </TTGlyph>
    <TTGlyph name="agrave" xMin="24" yMin="-7" xMax="435" yMax="733">
      <contour>
        <pt x="156" y="-7" on="1"/>
        <pt x="24" y="-7" on="0"/>
        <pt x="24" y="167" on="1"/>
        <pt x="24" y="300" on="0"/>
        <pt x="73" y="398" on="1"/>
        <pt x="98" y="449" on="0"/>
        <pt x="188" y="510" on="0"/>
        <pt x="246" y="510" on="1"/>
        <pt x="334" y="510" on="0"/>
        <pt x="379" y="446" on="1"/>
        <pt x="395" y="500" on="1"/>
        <pt x="435" y="500" on="1"/>
        <pt x="364" y="0" on="1"/>
        <pt x="325" y="0" on="1"/>
        <pt x="309" y="59" on="1"/>
        <pt x="296" y="48" on="1"/>
        <pt x="231" y="-7" on="0"/>
      </contour>
      <contour>
        <pt x="351" y="400" on="1"/>
        <pt x="304" y="445" on="0"/>
        <pt x="207" y="445" on="0"/>
        <pt x="143" y="397" on="0"/>
        <pt x="126" y="356" on="1"/>
        <pt x="94" y="280" on="0"/>
        <pt x="94" y="178" on="1"/>
        <pt x="94" y="58" on="0"/>
        <pt x="169" y="58" on="1"/>
        <pt x="222" y="58" on="0"/>
        <pt x="314" y="141" on="0"/>
        <pt x="323" y="205" on="1"/>
      </contour>
      <contour>
        <pt x="315" y="592" on="1"/>
        <pt x="259" y="571" on="1"/>
        <pt x="160" y="703" on="1"/>
        <pt x="233" y="733" on="1"/>
      </contour>
    </TTGlyph>
    <TTGlyph name="agrave.salt" xMin="45" yMin="-6" xMax="414" yMax="733">
      <contour>
        <pt x="337" y="299" on="1"/>
        <pt x="343" y="340" on="0"/>
        <pt x="343" y="414" on="0"/>
        <pt x="302" y="445" on="0"/>
        <pt x="174" y="445" on="0"/>
        <pt x="121" y="424" on="1"/>
        <pt x="117" y="482" on="1"/>
        <pt x="196" y="510" on="0"/>
        <pt x="277" y="510" on="1"/>
        <pt x="414" y="510" on="0"/>
        <pt x="414" y="378" on="1"/>
        <pt x="414" y="358" on="0"/>
        <pt x="411" y="334" on="1"/>
        <pt x="364" y="0" on="1"/>
        <pt x="325" y="0" on="1"/>
        <pt x="309" y="59" on="1"/>
        <pt x="263" y="21" on="0"/>
        <pt x="199" y="-6" on="0"/>
        <pt x="103" y="-6" on="0"/>
        <pt x="45" y="58" on="0"/>
        <pt x="45" y="114" on="1"/>
        <pt x="45" y="293" on="0"/>
        <pt x="300" y="299" on="1"/>
      </contour>
      <contour>
        <pt x="288" y="236" on="1"/>
        <pt x="165" y="236" on="0"/>
        <pt x="130" y="190" on="1"/>
        <pt x="114" y="167" on="0"/>
        <pt x="114" y="98" on="0"/>
        <pt x="145" y="57" on="0"/>
        <pt x="206" y="57" on="0"/>
        <pt x="268" y="90" on="0"/>
        <pt x="314" y="131" on="1"/>
        <pt x="329" y="236" on="1"/>
      </contour>
      <contour>
        <pt x="343" y="592" on="1"/>
        <pt x="287" y="571" on="1"/>
        <pt x="188" y="703" on="1"/>
        <pt x="261" y="733" on="1"/>
      </contour>
    </TTGlyph>
    <TTGlyph name="ampersand" xMin="47" yMin="-7" xMax="600" yMax="710">
      <contour>
        <pt x="238" y="-7" on="1"/>
        <pt x="145" y="-7" on="0"/>
        <pt x="47" y="81" on="0"/>
        <pt x="47" y="236" on="0"/>
        <pt x="131" y="336" on="0"/>
        <pt x="217" y="374" on="1"/>
        <pt x="173" y="421" on="0"/>
        <pt x="131" y="489" on="0"/>
        <pt x="131" y="523" on="1"/>
        <pt x="131" y="609" on="0"/>
        <pt x="246" y="710" on="0"/>
        <pt x="403" y="710" on="0"/>
        <pt x="481" y="637" on="0"/>
        <pt x="481" y="508" on="0"/>
        <pt x="404" y="413" on="0"/>
        <pt x="319" y="365" on="1"/>
        <pt x="448" y="201" on="1"/>
        <pt x="485" y="264" on="0"/>
        <pt x="500" y="361" on="1"/>
        <pt x="565" y="361" on="1"/>
        <pt x="542" y="246" on="0"/>
        <pt x="517" y="195" on="1"/>
        <pt x="508" y="177" on="0"/>
        <pt x="491" y="147" on="1"/>
        <pt x="600" y="1" on="1"/>
        <pt x="510" y="1" on="1"/>
        <pt x="448" y="90" on="1"/>
        <pt x="412" y="49" on="0"/>
        <pt x="295" y="-7" on="0"/>
      </contour>
      <contour>
        <pt x="119" y="166" on="1"/>
        <pt x="119" y="117" on="0"/>
        <pt x="187" y="58" on="0"/>
        <pt x="294" y="58" on="0"/>
        <pt x="389" y="107" on="0"/>
        <pt x="413" y="138" on="1"/>
        <pt x="257" y="334" on="1"/>
        <pt x="119" y="269" on="0"/>
      </contour>
      <contour>
        <pt x="411" y="607" on="0"/>
        <pt x="360" y="645" on="0"/>
        <pt x="275" y="645" on="0"/>
        <pt x="206" y="587" on="0"/>
        <pt x="206" y="540" on="1"/>
        <pt x="206" y="511" on="0"/>
        <pt x="232" y="471" on="0"/>
        <pt x="242" y="457" on="0"/>
        <pt x="277" y="414" on="0"/>
        <pt x="281" y="409" on="1"/>
        <pt x="411" y="479" on="0"/>
        <pt x="411" y="570" on="1"/>
      </contour>
    </TTGlyph>
    <TTGlyph name="approxequal" xMin="74" yMin="131" xMax="482" yMax="461">
      <contour>
        <pt x="366" y="336" on="1"/>
        <pt x="324" y="336" on="0"/>
        <pt x="235" y="395" on="0"/>
        <pt x="166" y="395" on="0"/>
        <pt x="118" y="350" on="1"/>
        <pt x="102" y="397" on="1"/>
        <pt x="124" y="425" on="0"/>
        <pt x="184" y="461" on="0"/>
        <pt x="258" y="461" on="0"/>
        <pt x="347" y="401" on="0"/>
        <pt x="415" y="401" on="0"/>
        <pt x="465" y="447" on="1"/>
        <pt x="482" y="418" on="1"/>
        <pt x="437" y="336" on="0"/>
      </contour>
      <contour>
        <pt x="337" y="131" on="1"/>
        <pt x="295" y="131" on="0"/>
        <pt x="206" y="190" on="0"/>
        <pt x="137" y="190" on="0"/>
        <pt x="89" y="145" on="1"/>
        <pt x="74" y="192" on="1"/>
        <pt x="96" y="220" on="0"/>
        <pt x="156" y="256" on="0"/>
        <pt x="230" y="256" on="0"/>
        <pt x="318" y="196" on="0"/>
        <pt x="386" y="196" on="0"/>
        <pt x="436" y="242" on="1"/>
        <pt x="454" y="213" on="1"/>
        <pt x="408" y="131" on="0"/>
      </contour>
    </TTGlyph>
    <TTGlyph name="aring" xMin="24" yMin="-7" xMax="435" yMax="772">
      <contour>
        <pt x="156" y="-7" on="1"/>
        <pt x="24" y="-7" on="0"/>
        <pt x="24" y="167" on="1"/>
        <pt x="24" y="300" on="0"/>
        <pt x="73" y="398" on="1"/>
        <pt x="98" y="449" on="0"/>
        <pt x="188" y="510" on="0"/>
        <pt x="246" y="510" on="1"/>
        <pt x="334" y="510" on="0"/>
        <pt x="379" y="446" on="1"/>
        <pt x="395" y="500" on="1"/>
        <pt x="435" y="500" on="1"/>
        <pt x="364" y="0" on="1"/>
        <pt x="325" y="0" on="1"/>
        <pt x="309" y="59" on="1"/>
        <pt x="296" y="48" on="1"/>
        <pt x="231" y="-7" on="0"/>
      </contour>
      <contour>
        <pt x="351" y="400" on="1"/>
        <pt x="304" y="445" on="0"/>
        <pt x="207" y="445" on="0"/>
        <pt x="143" y="397" on="0"/>
        <pt x="126" y="356" on="1"/>
        <pt x="94" y="280" on="0"/>
        <pt x="94" y="178" on="1"/>
        <pt x="94" y="58" on="0"/>
        <pt x="169" y="58" on="1"/>
        <pt x="222" y="58" on="0"/>
        <pt x="314" y="141" on="0"/>
        <pt x="323" y="205" on="1"/>
      </contour>
      <contour>
        <pt x="288" y="772" on="1"/>
        <pt x="376" y="772" on="0"/>
        <pt x="376" y="686" on="1"/>
        <pt x="376" y="628" on="0"/>
        <pt x="320" y="552" on="0"/>
        <pt x="259" y="552" on="1"/>
        <pt x="171" y="552" on="0"/>
        <pt x="171" y="638" on="1"/>
        <pt x="171" y="696" on="0"/>
        <pt x="227" y="772" on="0"/>
      </contour>
      <contour>
        <pt x="264" y="596" on="1"/>
        <pt x="295" y="596" on="0"/>
        <pt x="325" y="646" on="0"/>
        <pt x="325" y="682" on="1"/>
        <pt x="325" y="728" on="0"/>
        <pt x="283" y="728" on="1"/>
        <pt x="252" y="728" on="0"/>
        <pt x="222" y="678" on="0"/>
        <pt x="222" y="642" on="1"/>
        <pt x="222" y="596" on="0"/>
      </contour>
    </TTGlyph>
    <TTGlyph name="aring.salt" xMin="45" yMin="-6" xMax="414" yMax="772">
      <contour>
        <pt x="316" y="772" on="1"/>
        <pt x="404" y="772" on="0"/>
        <pt x="404" y="686" on="1"/>
        <pt x="404" y="628" on="0"/>
        <pt x="348" y="552" on="0"/>
        <pt x="287" y="552" on="1"/>
        <pt x="199" y="552" on="0"/>
        <pt x="199" y="638" on="1"/>
        <pt x="199" y="696" on="0"/>
        <pt x="255" y="772" on="0"/>
      </contour>
      <contour>
        <pt x="292" y="596" on="1"/>
        <pt x="323" y="596" on="0"/>
        <pt x="353" y="646" on="0"/>
        <pt x="353" y="682" on="1"/>
        <pt x="353" y="728" on="0"/>
        <pt x="311" y="728" on="1"/>
        <pt x="280" y="728" on="0"/>
        <pt x="250" y="678" on="0"/>
        <pt x="250" y="642" on="1"/>
        <pt x="250" y="596" on="0"/>
      </contour>
      <contour>
        <pt x="337" y="299" on="1"/>
        <pt x="343" y="340" on="0"/>
        <pt x="343" y="414" on="0"/>
        <pt x="302" y="445" on="0"/>
        <pt x="174" y="445" on="0"/>
        <pt x="121" y="424" on="1"/>
        <pt x="117" y="482" on="1"/>
        <pt x="196" y="510" on="0"/>
        <pt x="277" y="510" on="1"/>
        <pt x="414" y="510" on="0"/>
        <pt x="414" y="378" on="1"/>
        <pt x="414" y="358" on="0"/>
        <pt x="411" y="334" on="1"/>
        <pt x="364" y="0" on="1"/>
        <pt x="325" y="0" on="1"/>
        <pt x="309" y="59" on="1"/>
        <pt x="263" y="21" on="0"/>
        <pt x="199" y="-6" on="0"/>
        <pt x="103" y="-6" on="0"/>
        <pt x="45" y="58" on="0"/>
        <pt x="45" y="114" on="1"/>
        <pt x="45" y="293" on="0"/>
        <pt x="300" y="299" on="1"/>
      </contour>
      <contour>
        <pt x="288" y="236" on="1"/>
        <pt x="165" y="236" on="0"/>
        <pt x="130" y="190" on="1"/>
        <pt x="114" y="167" on="0"/>
        <pt x="114" y="98" on="0"/>
        <pt x="145" y="57" on="0"/>
        <pt x="206" y="57" on="0"/>
        <pt x="268" y="90" on="0"/>
        <pt x="314" y="131" on="1"/>
        <pt x="329" y="236" on="1"/>
      </contour>
    </TTGlyph>
    <TTGlyph name="arrowdown" xMin="111" yMin="-53" xMax="538" yMax="598">
      <contour>
        <pt x="538" y="195" on="1"/>
        <pt x="283" y="-53" on="1"/>
        <pt x="111" y="192" on="1"/>
        <pt x="166" y="245" on="1"/>
        <pt x="273" y="93" on="1"/>
        <pt x="344" y="598" on="1"/>
        <pt x="412" y="598" on="1"/>
        <pt x="341" y="93" on="1"/>
        <pt x="498" y="249" on="1"/>
      </contour>
    </TTGlyph>
    <TTGlyph name="arrowleft" xMin="64" yMin="74" xMax="654" yMax="548">
      <contour>
        <pt x="253" y="74" on="1"/>
        <pt x="64" y="319" on="1"/>
        <pt x="317" y="548" on="1"/>
        <pt x="357" y="495" on="1"/>
        <pt x="200" y="352" on="1"/>
        <pt x="654" y="352" on="1"/>
        <pt x="644" y="277" on="1"/>
        <pt x="190" y="277" on="1"/>
        <pt x="308" y="126" on="1"/>
      </contour>
    </TTGlyph>
    <TTGlyph name="arrowright" xMin="60" yMin="81" xMax="650" yMax="555">
      <contour>
        <pt x="461" y="555" on="1"/>
        <pt x="650" y="310" on="1"/>
        <pt x="398" y="81" on="1"/>
        <pt x="357" y="134" on="1"/>
        <pt x="514" y="277" on="1"/>
        <pt x="60" y="277" on="1"/>
        <pt x="71" y="352" on="1"/>
        <pt x="525" y="352" on="1"/>
        <pt x="406" y="503" on="1"/>
      </contour>
    </TTGlyph>
    <TTGlyph name="arrowup" xMin="135" yMin="-28" xMax="562" yMax="623">
      <contour>
        <pt x="135" y="375" on="1"/>
        <pt x="390" y="623" on="1"/>
        <pt x="562" y="378" on="1"/>
        <pt x="507" y="325" on="1"/>
        <pt x="400" y="477" on="1"/>
        <pt x="329" y="-28" on="1"/>
        <pt x="261" y="-28" on="1"/>
        <pt x="332" y="477" on="1"/>
        <pt x="174" y="321" on="1"/>
      </contour>
    </TTGlyph>
    <TTGlyph name="asciicircum" xMin="64" yMin="275" xMax="519" yMax="667">
      <contour>
        <pt x="372" y="667" on="1"/>
        <pt x="519" y="275" on="1"/>
        <pt x="449" y="275" on="1"/>
        <pt x="337" y="594" on="1"/>
        <pt x="136" y="275" on="1"/>
        <pt x="64" y="275" on="1"/>
        <pt x="322" y="667" on="1"/>
      </contour>
    </TTGlyph>
    <TTGlyph name="asciitilde" xMin="69" yMin="226" xMax="449" yMax="351">
      <contour>
        <pt x="332" y="226" on="1"/>
        <pt x="290" y="226" on="0"/>
        <pt x="201" y="285" on="0"/>
        <pt x="132" y="285" on="0"/>
        <pt x="84" y="240" on="1"/>
        <pt x="69" y="287" on="1"/>
        <pt x="91" y="315" on="0"/>
        <pt x="151" y="351" on="0"/>
        <pt x="225" y="351" on="0"/>
        <pt x="313" y="291" on="0"/>
        <pt x="381" y="291" on="0"/>
        <pt x="431" y="337" on="1"/>
        <pt x="449" y="308" on="1"/>
        <pt x="403" y="226" on="0"/>
      </contour>
    </TTGlyph>
    <TTGlyph name="asterisk" xMin="66" yMin="370" xMax="391" yMax="727">
      <contour>
        <pt x="375" y="490" on="1"/>
        <pt x="339" y="432" on="1"/>
        <pt x="243" y="513" on="1"/>
        <pt x="235" y="370" on="1"/>
        <pt x="176" y="370" on="1"/>
        <pt x="205" y="513" on="1"/>
        <pt x="87" y="432" on="1"/>
        <pt x="66" y="485" on="1"/>
        <pt x="192" y="548" on="1"/>
        <pt x="85" y="611" on="1"/>
        <pt x="124" y="666" on="1"/>
        <pt x="215" y="584" on="1"/>
        <pt x="226" y="727" on="1"/>
        <pt x="285" y="727" on="1"/>
        <pt x="253" y="584" on="1"/>
        <pt x="371" y="665" on="1"/>
        <pt x="391" y="608" on="1"/>
        <pt x="266" y="550" on="1"/>
      </contour>
    </TTGlyph>
    <TTGlyph name="at" xMin="71" yMin="-119" xMax="787" yMax="709">
      <contour>
        <pt x="474" y="451" on="1"/>
        <pt x="426" y="451" on="0"/>
        <pt x="346" y="360" on="0"/>
        <pt x="307" y="245" on="0"/>
        <pt x="307" y="197" on="1"/>
        <pt x="307" y="135" on="0"/>
        <pt x="358" y="135" on="1"/>
        <pt x="389" y="135" on="0"/>
        <pt x="439" y="169" on="0"/>
        <pt x="486" y="216" on="1"/>
        <pt x="547" y="409" on="1"/>
        <pt x="523" y="442" on="0"/>
        <pt x="499" y="448" on="1"/>
        <pt x="488" y="451" on="0"/>
      </contour>
      <contour>
        <pt x="338" y="76" on="1"/>
        <pt x="294" y="76" on="0"/>
        <pt x="250" y="134" on="0"/>
        <pt x="250" y="252" on="0"/>
        <pt x="299" y="400" on="0"/>
        <pt x="408" y="515" on="0"/>
        <pt x="478" y="515" on="1"/>
        <pt x="512" y="515" on="0"/>
        <pt x="544" y="494" on="0"/>
        <pt x="556" y="484" on="0"/>
        <pt x="571" y="466" on="0"/>
        <pt x="573" y="464" on="1"/>
        <pt x="593" y="504" on="1"/>
        <pt x="634" y="504" on="1"/>
        <pt x="517" y="135" on="1"/>
        <pt x="570" y="136" on="0"/>
        <pt x="653" y="192" on="0"/>
        <pt x="676" y="237" on="1"/>
        <pt x="723" y="326" on="0"/>
        <pt x="723" y="432" on="1"/>
        <pt x="723" y="644" on="0"/>
        <pt x="498" y="644" on="1"/>
        <pt x="332" y="644" on="0"/>
        <pt x="141" y="376" on="0"/>
        <pt x="141" y="162" on="1"/>
        <pt x="141" y="49" on="0"/>
        <pt x="233" y="-57" on="0"/>
        <pt x="333" y="-57" on="1"/>
        <pt x="489" y="-57" on="1"/>
        <pt x="483" y="-111" on="1"/>
        <pt x="405" y="-119" on="0"/>
        <pt x="320" y="-119" on="1"/>
        <pt x="71" y="-119" on="0"/>
        <pt x="71" y="145" on="1"/>
        <pt x="71" y="327" on="0"/>
        <pt x="135" y="464" on="1"/>
        <pt x="169" y="537" on="0"/>
        <pt x="268" y="645" on="0"/>
        <pt x="417" y="709" on="0"/>
        <pt x="508" y="709" on="1"/>
        <pt x="787" y="709" on="0"/>
        <pt x="787" y="447" on="1"/>
        <pt x="787" y="283" on="0"/>
        <pt x="635" y="79" on="0"/>
        <pt x="508" y="79" on="1"/>
        <pt x="484" y="79" on="0"/>
        <pt x="472" y="81" on="1"/>
        <pt x="474" y="147" on="1"/>
        <pt x="403" y="76" on="0"/>
      </contour>
    </TTGlyph>
    <TTGlyph name="atilde" xMin="24" yMin="-7" xMax="435" yMax="700">
      <contour>
        <pt x="156" y="-7" on="1"/>
        <pt x="24" y="-7" on="0"/>
        <pt x="24" y="167" on="1"/>
        <pt x="24" y="300" on="0"/>
        <pt x="73" y="398" on="1"/>
        <pt x="98" y="449" on="0"/>
        <pt x="188" y="510" on="0"/>
        <pt x="246" y="510" on="1"/>
        <pt x="334" y="510" on="0"/>
        <pt x="379" y="446" on="1"/>
        <pt x="395" y="500" on="1"/>
        <pt x="435" y="500" on="1"/>
        <pt x="364" y="0" on="1"/>
        <pt x="325" y="0" on="1"/>
        <pt x="309" y="59" on="1"/>
        <pt x="296" y="48" on="1"/>
        <pt x="231" y="-7" on="0"/>
      </contour>
      <contour>
        <pt x="351" y="400" on="1"/>
        <pt x="304" y="445" on="0"/>
        <pt x="207" y="445" on="0"/>
        <pt x="143" y="397" on="0"/>
        <pt x="126" y="356" on="1"/>
        <pt x="94" y="280" on="0"/>
        <pt x="94" y="178" on="1"/>
        <pt x="94" y="58" on="0"/>
        <pt x="169" y="58" on="1"/>
        <pt x="222" y="58" on="0"/>
        <pt x="314" y="141" on="0"/>
        <pt x="323" y="205" on="1"/>
      </contour>
      <contour>
        <pt x="356" y="580" on="0"/>
        <pt x="321" y="580" on="0"/>
        <pt x="225" y="635" on="0"/>
        <pt x="201" y="635" on="0"/>
        <pt x="172" y="616" on="0"/>
        <pt x="155" y="597" on="1"/>
        <pt x="130" y="630" on="1"/>
        <pt x="148" y="654" on="0"/>
        <pt x="206" y="700" on="0"/>
        <pt x="241" y="700" on="0"/>
        <pt x="337" y="645" on="0"/>
        <pt x="361" y="645" on="0"/>
        <pt x="390" y="664" on="0"/>
        <pt x="407" y="683" on="1"/>
        <pt x="433" y="657" on="1"/>
        <pt x="432" y="650" on="1"/>
        <pt x="414" y="626" on="0"/>
      </contour>
    </TTGlyph>
    <TTGlyph name="atilde.salt" xMin="45" yMin="-6" xMax="444" yMax="700">
      <contour>
        <pt x="367" y="580" on="0"/>
        <pt x="332" y="580" on="0"/>
        <pt x="236" y="635" on="0"/>
        <pt x="212" y="635" on="0"/>
        <pt x="183" y="616" on="0"/>
        <pt x="166" y="597" on="1"/>
        <pt x="141" y="630" on="1"/>
        <pt x="159" y="654" on="0"/>
        <pt x="217" y="700" on="0"/>
        <pt x="252" y="700" on="0"/>
        <pt x="348" y="645" on="0"/>
        <pt x="372" y="645" on="0"/>
        <pt x="401" y="664" on="0"/>
        <pt x="418" y="683" on="1"/>
        <pt x="444" y="657" on="1"/>
        <pt x="443" y="650" on="1"/>
        <pt x="425" y="626" on="0"/>
      </contour>
      <contour>
        <pt x="337" y="299" on="1"/>
        <pt x="343" y="340" on="0"/>
        <pt x="343" y="414" on="0"/>
        <pt x="302" y="445" on="0"/>
        <pt x="174" y="445" on="0"/>
        <pt x="121" y="424" on="1"/>
        <pt x="117" y="482" on="1"/>
        <pt x="196" y="510" on="0"/>
        <pt x="277" y="510" on="1"/>
        <pt x="414" y="510" on="0"/>
        <pt x="414" y="378" on="1"/>
        <pt x="414" y="358" on="0"/>
        <pt x="411" y="334" on="1"/>
        <pt x="364" y="0" on="1"/>
        <pt x="325" y="0" on="1"/>
        <pt x="309" y="59" on="1"/>
        <pt x="263" y="21" on="0"/>
        <pt x="199" y="-6" on="0"/>
        <pt x="103" y="-6" on="0"/>
        <pt x="45" y="58" on="0"/>
        <pt x="45" y="114" on="1"/>
        <pt x="45" y="293" on="0"/>
        <pt x="300" y="299" on="1"/>
      </contour>
      <contour>
        <pt x="288" y="236" on="1"/>
        <pt x="165" y="236" on="0"/>
        <pt x="130" y="190" on="1"/>
        <pt x="114" y="167" on="0"/>
        <pt x="114" y="98" on="0"/>
        <pt x="145" y="57" on="0"/>
        <pt x="206" y="57" on="0"/>
        <pt x="268" y="90" on="0"/>
        <pt x="314" y="131" on="1"/>
        <pt x="329" y="236" on="1"/>
      </contour>
    </TTGlyph>
    <TTGlyph name="b" xMin="56" yMin="-6" xMax="467" yMax="700">
      <contour>
        <pt x="335" y="511" on="1"/>
        <pt x="467" y="511" on="0"/>
        <pt x="467" y="337" on="1"/>
        <pt x="467" y="217" on="0"/>
        <pt x="422" y="114" on="1"/>
        <pt x="398" y="60" on="0"/>
        <pt x="306" y="-6" on="0"/>
        <pt x="245" y="-6" on="1"/>
        <pt x="211" y="-6" on="0"/>
        <pt x="144" y="28" on="0"/>
        <pt x="123" y="49" on="1"/>
        <pt x="96" y="0" on="1"/>
        <pt x="56" y="0" on="1"/>
        <pt x="154" y="700" on="1"/>
        <pt x="222" y="700" on="1"/>
        <pt x="187" y="450" on="1"/>
        <pt x="273" y="511" on="0"/>
      </contour>
      <contour>
        <pt x="139" y="107" on="1"/>
        <pt x="170" y="58" on="0"/>
        <pt x="247" y="58" on="1"/>
        <pt x="284" y="58" on="0"/>
        <pt x="349" y="109" on="0"/>
        <pt x="365" y="151" on="1"/>
        <pt x="395" y="230" on="0"/>
        <pt x="395" y="305" on="1"/>
        <pt x="395" y="446" on="0"/>
        <pt x="321" y="446" on="1"/>
        <pt x="256" y="446" on="0"/>
        <pt x="177" y="379" on="1"/>
      </contour>
    </TTGlyph>
    <TTGlyph name="backslash" xMin="124" yMin="-145" xMax="355" yMax="800">
      <contour>
        <pt x="283" y="-145" on="1"/>
        <pt x="124" y="800" on="1"/>
        <pt x="195" y="800" on="1"/>
        <pt x="355" y="-145" on="1"/>
      </contour>
    </TTGlyph>
    <TTGlyph name="bar" xMin="47" yMin="-203" xMax="255" yMax="800">
      <contour>
        <pt x="114" y="-203" on="1"/>
        <pt x="47" y="-203" on="1"/>
        <pt x="188" y="800" on="1"/>
        <pt x="255" y="800" on="1"/>
      </contour>
    </TTGlyph>
    <TTGlyph name="braceleft" xMin="44" yMin="-201" xMax="384" yMax="801">
      <contour>
        <pt x="365" y="801" on="1"/>
        <pt x="384" y="801" on="1"/>
        <pt x="375" y="737" on="1"/>
        <pt x="357" y="737" on="1"/>
        <pt x="301" y="737" on="0"/>
        <pt x="252" y="672" on="0"/>
        <pt x="240" y="591" on="1"/>
        <pt x="219" y="438" on="1"/>
        <pt x="209" y="369" on="0"/>
        <pt x="176" y="317" on="0"/>
        <pt x="131" y="304" on="1"/>
        <pt x="161" y="297" on="0"/>
        <pt x="186" y="258" on="0"/>
        <pt x="186" y="197" on="0"/>
        <pt x="182" y="172" on="1"/>
        <pt x="160" y="21" on="1"/>
        <pt x="154" y="-21" on="0"/>
        <pt x="154" y="-100" on="0"/>
        <pt x="192" y="-137" on="0"/>
        <pt x="237" y="-137" on="1"/>
        <pt x="252" y="-137" on="1"/>
        <pt x="243" y="-201" on="1"/>
        <pt x="222" y="-201" on="1"/>
        <pt x="85" y="-201" on="0"/>
        <pt x="85" y="-61" on="1"/>
        <pt x="85" y="-33" on="0"/>
        <pt x="89" y="-5" on="1"/>
        <pt x="110" y="145" on="1"/>
        <pt x="113" y="167" on="0"/>
        <pt x="113" y="189" on="1"/>
        <pt x="113" y="278" on="0"/>
        <pt x="44" y="278" on="1"/>
        <pt x="51" y="324" on="1"/>
        <pt x="99" y="324" on="0"/>
        <pt x="143" y="385" on="0"/>
        <pt x="153" y="451" on="1"/>
        <pt x="174" y="601" on="1"/>
        <pt x="201" y="801" on="0"/>
      </contour>
    </TTGlyph>
    <TTGlyph name="braceright" xMin="-22" yMin="-201" xMax="317" yMax="801">
      <contour>
        <pt x="137" y="801" on="1"/>
        <pt x="277" y="801" on="0"/>
        <pt x="277" y="656" on="1"/>
        <pt x="277" y="637" on="0"/>
        <pt x="247" y="426" on="0"/>
        <pt x="247" y="394" on="1"/>
        <pt x="247" y="324" on="0"/>
        <pt x="317" y="324" on="1"/>
        <pt x="310" y="278" on="1"/>
        <pt x="227" y="278" on="0"/>
        <pt x="208" y="145" on="1"/>
        <pt x="187" y="-5" on="1"/>
        <pt x="172" y="-111" on="0"/>
        <pt x="76" y="-201" on="0"/>
        <pt x="-2" y="-201" on="1"/>
        <pt x="-22" y="-201" on="1"/>
        <pt x="-13" y="-137" on="1"/>
        <pt x="1" y="-137" on="1"/>
        <pt x="57" y="-137" on="0"/>
        <pt x="109" y="-72" on="0"/>
        <pt x="122" y="21" on="1"/>
        <pt x="144" y="172" on="1"/>
        <pt x="153" y="235" on="0"/>
        <pt x="189" y="295" on="0"/>
        <pt x="230" y="304" on="1"/>
        <pt x="199" y="314" on="0"/>
        <pt x="175" y="345" on="0"/>
        <pt x="175" y="400" on="0"/>
        <pt x="181" y="438" on="1"/>
        <pt x="202" y="591" on="1"/>
        <pt x="207" y="631" on="0"/>
        <pt x="207" y="699" on="0"/>
        <pt x="171" y="737" on="0"/>
        <pt x="127" y="737" on="1"/>
        <pt x="109" y="737" on="1"/>
        <pt x="118" y="801" on="1"/>
      </contour>
    </TTGlyph>
    <TTGlyph name="bracketleft" xMin="31" yMin="-200" xMax="359" yMax="800">
      <contour>
        <pt x="220" y="-200" on="1"/>
        <pt x="31" y="-200" on="1"/>
        <pt x="172" y="800" on="1"/>
        <pt x="359" y="800" on="1"/>
        <pt x="350" y="735" on="1"/>
        <pt x="231" y="735" on="1"/>
        <pt x="108" y="-136" on="1"/>
        <pt x="229" y="-136" on="1"/>
      </contour>
    </TTGlyph>
    <TTGlyph name="bracketright" xMin="-14" yMin="-200" xMax="315" yMax="800">
      <contour>
        <pt x="174" y="-200" on="1"/>
        <pt x="-14" y="-200" on="1"/>
        <pt x="-5" y="-136" on="1"/>
        <pt x="116" y="-136" on="1"/>
        <pt x="239" y="735" on="1"/>
        <pt x="120" y="735" on="1"/>
        <pt x="129" y="800" on="1"/>
        <pt x="315" y="800" on="1"/>
      </contour>
    </TTGlyph>
    <TTGlyph name="breve" xMin="85" yMin="-5" xMax="295" yMax="115">
      <contour>
        <pt x="182" y="43" on="1"/>
        <pt x="214" y="43" on="0"/>
        <pt x="249" y="75" on="0"/>
        <pt x="255" y="115" on="1"/>
        <pt x="295" y="115" on="1"/>
        <pt x="293" y="102" on="1"/>
        <pt x="286" y="51" on="0"/>
        <pt x="225" y="-5" on="0"/>
        <pt x="175" y="-5" on="1"/>
        <pt x="85" y="-5" on="0"/>
        <pt x="85" y="79" on="1"/>
        <pt x="85" y="87" on="0"/>
        <pt x="89" y="115" on="1"/>
        <pt x="129" y="115" on="1"/>
        <pt x="127" y="99" on="0"/>
        <pt x="127" y="93" on="1"/>
        <pt x="127" y="43" on="0"/>
      </contour>
    </TTGlyph>
    <TTGlyph name="brokenbar" xMin="59" yMin="-194" xMax="258" yMax="806">
      <contour>
        <pt x="203" y="413" on="1"/>
        <pt x="144" y="413" on="1"/>
        <pt x="199" y="806" on="1"/>
        <pt x="258" y="806" on="1"/>
      </contour>
      <contour>
        <pt x="118" y="-194" on="1"/>
        <pt x="59" y="-194" on="1"/>
        <pt x="114" y="201" on="1"/>
        <pt x="173" y="201" on="1"/>
      </contour>
    </TTGlyph>
    <TTGlyph name="bullet" xMin="106" yMin="136" xMax="340" yMax="394">
      <contour>
        <pt x="162" y="136" on="0"/>
        <pt x="106" y="198" on="0"/>
        <pt x="106" y="300" on="0"/>
        <pt x="184" y="394" on="0"/>
        <pt x="284" y="394" on="0"/>
        <pt x="340" y="332" on="0"/>
        <pt x="340" y="230" on="0"/>
        <pt x="262" y="136" on="0"/>
      </contour>
    </TTGlyph>
    <TTGlyph name="c" xMin="53" yMin="-5" xMax="407" yMax="510">
      <contour>
        <pt x="214" y="-5" on="1"/>
        <pt x="133" y="-5" on="0"/>
        <pt x="53" y="95" on="0"/>
        <pt x="53" y="187" on="1"/>
        <pt x="53" y="315" on="0"/>
        <pt x="104" y="408" on="1"/>
        <pt x="131" y="455" on="0"/>
        <pt x="227" y="510" on="0"/>
        <pt x="335" y="510" on="0"/>
        <pt x="407" y="486" on="1"/>
        <pt x="372" y="428" on="1"/>
        <pt x="326" y="444" on="0"/>
        <pt x="240" y="444" on="0"/>
        <pt x="175" y="397" on="0"/>
        <pt x="158" y="358" on="1"/>
        <pt x="128" y="284" on="0"/>
        <pt x="128" y="191" on="1"/>
        <pt x="128" y="60" on="0"/>
        <pt x="230" y="60" on="1"/>
        <pt x="280" y="60" on="0"/>
        <pt x="340" y="78" on="1"/>
        <pt x="344" y="19" on="1"/>
        <pt x="269" y="-5" on="0"/>
      </contour>
    </TTGlyph>
    <TTGlyph name="caron" xMin="121" yMin="543" xMax="366" yMax="731">
      <contour>
        <pt x="366" y="690" on="1"/>
        <pt x="220" y="543" on="1"/>
        <pt x="121" y="690" on="1"/>
        <pt x="159" y="731" on="1"/>
        <pt x="236" y="637" on="1"/>
        <pt x="338" y="731" on="1"/>
      </contour>
    </TTGlyph>
    <TTGlyph name="ccedilla" xMin="53" yMin="-182" xMax="407" yMax="510">
      <contour>
        <pt x="53" y="187" on="1"/>
        <pt x="53" y="315" on="0"/>
        <pt x="104" y="408" on="1"/>
        <pt x="131" y="455" on="0"/>
        <pt x="227" y="510" on="0"/>
        <pt x="335" y="510" on="0"/>
        <pt x="407" y="486" on="1"/>
        <pt x="372" y="428" on="1"/>
        <pt x="326" y="444" on="0"/>
        <pt x="240" y="444" on="0"/>
        <pt x="175" y="397" on="0"/>
        <pt x="158" y="358" on="1"/>
        <pt x="128" y="284" on="0"/>
        <pt x="128" y="191" on="1"/>
        <pt x="128" y="60" on="0"/>
        <pt x="230" y="60" on="1"/>
        <pt x="280" y="60" on="0"/>
        <pt x="340" y="78" on="1"/>
        <pt x="344" y="19" on="1"/>
        <pt x="286" y="0" on="0"/>
        <pt x="241" y="-4" on="1"/>
        <pt x="234" y="-51" on="0"/>
        <pt x="204" y="-118" on="0"/>
        <pt x="160" y="-182" on="1"/>
        <pt x="120" y="-151" on="1"/>
        <pt x="153" y="-97" on="0"/>
        <pt x="175" y="-47" on="0"/>
        <pt x="181" y="-2" on="1"/>
        <pt x="53" y="17" on="0"/>
      </contour>
    </TTGlyph>
    <TTGlyph name="cedilla" xMin="129" yMin="-177" xMax="250" yMax="0">
      <contour>
        <pt x="186" y="0" on="1"/>
        <pt x="250" y="0" on="1"/>
        <pt x="243" y="-49" on="0"/>
        <pt x="213" y="-112" on="0"/>
        <pt x="169" y="-177" on="1"/>
        <pt x="129" y="-146" on="1"/>
        <pt x="160" y="-92" on="0"/>
        <pt x="180" y="-44" on="0"/>
      </contour>
    </TTGlyph>
    <TTGlyph name="cent" xMin="56" yMin="0" xMax="352" yMax="606">
      <contour>
        <pt x="56" y="243" on="1"/>
        <pt x="56" y="334" on="0"/>
        <pt x="84" y="406" on="1"/>
        <pt x="98" y="444" on="0"/>
        <pt x="154" y="498" on="0"/>
        <pt x="192" y="509" on="1"/>
        <pt x="205" y="606" on="1"/>
        <pt x="264" y="606" on="1"/>
        <pt x="251" y="510" on="1"/>
        <pt x="297" y="510" on="0"/>
        <pt x="352" y="491" on="1"/>
        <pt x="325" y="431" on="1"/>
        <pt x="288" y="444" on="0"/>
        <pt x="253" y="444" on="1"/>
        <pt x="184" y="444" on="0"/>
        <pt x="124" y="346" on="0"/>
        <pt x="124" y="250" on="1"/>
        <pt x="124" y="202" on="0"/>
        <pt x="162" y="158" on="0"/>
        <pt x="246" y="158" on="0"/>
        <pt x="296" y="173" on="1"/>
        <pt x="298" y="110" on="1"/>
        <pt x="240" y="92" on="0"/>
        <pt x="192" y="92" on="1"/>
        <pt x="179" y="0" on="1"/>
        <pt x="120" y="0" on="1"/>
        <pt x="133" y="94" on="1"/>
        <pt x="56" y="123" on="0"/>
      </contour>
    </TTGlyph>
    <TTGlyph name="circumflex" xMin="124" yMin="691" xMax="413" yMax="820">
      <contour>
        <pt x="262" y="820" on="1"/>
        <pt x="305" y="820" on="1"/>
        <pt x="413" y="720" on="1"/>
        <pt x="392" y="691" on="1"/>
        <pt x="275" y="766" on="1"/>
        <pt x="137" y="691" on="1"/>
        <pt x="124" y="720" on="1"/>
      </contour>
    </TTGlyph>
    <TTGlyph name="colon" xMin="46" yMin="0" xMax="183" yMax="500">
      <contour>
        <pt x="113" y="0" on="1"/>
        <pt x="46" y="0" on="1"/>
        <pt x="61" y="106" on="1"/>
        <pt x="128" y="106" on="1"/>
      </contour>
      <contour>
        <pt x="168" y="394" on="1"/>
        <pt x="101" y="394" on="1"/>
        <pt x="116" y="500" on="1"/>
        <pt x="183" y="500" on="1"/>
      </contour>
    </TTGlyph>
    <TTGlyph name="comma" xMin="2" yMin="-172" xMax="182" yMax="111">
      <contour>
        <pt x="182" y="87" on="1"/>
        <pt x="43" y="-172" on="1"/>
        <pt x="2" y="-156" on="1"/>
        <pt x="117" y="111" on="1"/>
      </contour>
    </TTGlyph>
    <TTGlyph name="copyright" xMin="71" yMin="-19" xMax="461" yMax="529">
      <contour>
        <pt x="339" y="343" on="1"/>
        <pt x="303" y="352" on="0"/>
        <pt x="293" y="352" on="1"/>
        <pt x="206" y="352" on="0"/>
        <pt x="206" y="224" on="1"/>
        <pt x="206" y="152" on="0"/>
        <pt x="264" y="152" on="1"/>
        <pt x="294" y="152" on="0"/>
        <pt x="320" y="162" on="1"/>
        <pt x="323" y="121" on="1"/>
        <pt x="282" y="109" on="0"/>
        <pt x="250" y="109" on="1"/>
        <pt x="159" y="109" on="0"/>
        <pt x="159" y="218" on="1"/>
        <pt x="159" y="301" on="0"/>
        <pt x="229" y="396" on="0"/>
        <pt x="293" y="396" on="1"/>
        <pt x="316" y="396" on="0"/>
        <pt x="357" y="384" on="0"/>
        <pt x="359" y="383" on="1"/>
      </contour>
      <contour>
        <pt x="411" y="78" on="0"/>
        <pt x="303" y="-19" on="0"/>
        <pt x="151" y="-19" on="0"/>
        <pt x="71" y="85" on="0"/>
        <pt x="71" y="276" on="0"/>
        <pt x="121" y="432" on="0"/>
        <pt x="229" y="529" on="0"/>
        <pt x="381" y="529" on="0"/>
        <pt x="461" y="425" on="0"/>
        <pt x="461" y="234" on="0"/>
      </contour>
      <contour>
        <pt x="125" y="111" on="0"/>
        <pt x="176" y="31" on="0"/>
        <pt x="292" y="31" on="0"/>
        <pt x="332" y="74" on="1"/>
        <pt x="407" y="155" on="0"/>
        <pt x="407" y="316" on="1"/>
        <pt x="407" y="399" on="0"/>
        <pt x="356" y="479" on="0"/>
        <pt x="240" y="479" on="0"/>
        <pt x="200" y="436" on="1"/>
        <pt x="125" y="355" on="0"/>
        <pt x="125" y="194" on="1"/>
      </contour>
    </TTGlyph>
    <TTGlyph name="currency" xMin="47" yMin="42" xMax="549" yMax="544">
      <contour>
        <pt x="193" y="488" on="1"/>
        <pt x="248" y="529" on="0"/>
        <pt x="404" y="529" on="0"/>
        <pt x="449" y="481" on="1"/>
        <pt x="514" y="544" on="1"/>
        <pt x="549" y="498" on="1"/>
        <pt x="481" y="432" on="1"/>
        <pt x="496" y="390" on="0"/>
        <pt x="496" y="294" on="0"/>
        <pt x="467" y="192" on="0"/>
        <pt x="443" y="157" on="1"/>
        <pt x="490" y="95" on="1"/>
        <pt x="435" y="42" on="1"/>
        <pt x="389" y="101" on="1"/>
        <pt x="335" y="61" on="0"/>
        <pt x="181" y="61" on="0"/>
        <pt x="139" y="105" on="1"/>
        <pt x="82" y="50" on="1"/>
        <pt x="47" y="96" on="1"/>
        <pt x="109" y="154" on="1"/>
        <pt x="95" y="188" on="0"/>
        <pt x="95" y="288" on="0"/>
        <pt x="120" y="394" on="0"/>
        <pt x="142" y="429" on="1"/>
        <pt x="98" y="489" on="1"/>
        <pt x="153" y="542" on="1"/>
      </contour>
      <contour>
        <pt x="314" y="464" on="1"/>
        <pt x="244" y="464" on="0"/>
        <pt x="161" y="340" on="0"/>
        <pt x="161" y="256" on="1"/>
        <pt x="161" y="198" on="0"/>
        <pt x="219" y="126" on="0"/>
        <pt x="268" y="126" on="1"/>
        <pt x="341" y="126" on="0"/>
        <pt x="429" y="242" on="0"/>
        <pt x="429" y="329" on="1"/>
        <pt x="429" y="390" on="0"/>
        <pt x="369" y="464" on="0"/>
      </contour>
    </TTGlyph>
    <TTGlyph name="d" xMin="41" yMin="-8" xMax="480" yMax="700">
      <contour>
        <pt x="173" y="-8" on="1"/>
        <pt x="41" y="-8" on="0"/>
        <pt x="41" y="166" on="1"/>
        <pt x="41" y="328" on="0"/>
        <pt x="160" y="509" on="0"/>
        <pt x="263" y="509" on="1"/>
        <pt x="324" y="509" on="0"/>
        <pt x="378" y="460" on="1"/>
        <pt x="412" y="700" on="1"/>
        <pt x="480" y="700" on="1"/>
        <pt x="381" y="0" on="1"/>
        <pt x="341" y="0" on="1"/>
        <pt x="326" y="57" on="1"/>
        <pt x="235" y="-8" on="0"/>
      </contour>
      <contour>
        <pt x="269" y="445" on="1"/>
        <pt x="189" y="445" on="0"/>
        <pt x="113" y="298" on="0"/>
        <pt x="113" y="186" on="1"/>
        <pt x="113" y="123" on="0"/>
        <pt x="153" y="57" on="0"/>
        <pt x="187" y="57" on="1"/>
        <pt x="252" y="57" on="0"/>
        <pt x="331" y="124" on="1"/>
        <pt x="367" y="384" on="1"/>
        <pt x="352" y="409" on="0"/>
        <pt x="295" y="445" on="0"/>
      </contour>
    </TTGlyph>
    <TTGlyph name="dagger" xMin="82" yMin="0" xMax="465" yMax="750">
      <contour>
        <pt x="230" y="0" on="1"/>
        <pt x="162" y="0" on="1"/>
        <pt x="232" y="499" on="1"/>
        <pt x="82" y="499" on="1"/>
        <pt x="91" y="564" on="1"/>
        <pt x="241" y="564" on="1"/>
        <pt x="268" y="750" on="1"/>
        <pt x="336" y="750" on="1"/>
        <pt x="309" y="564" on="1"/>
        <pt x="465" y="564" on="1"/>
        <pt x="456" y="499" on="1"/>
        <pt x="300" y="499" on="1"/>
      </contour>
    </TTGlyph>
    <TTGlyph name="daggerdbl" xMin="39" yMin="0" xMax="481" yMax="750">
      <contour>
        <pt x="257" y="183" on="1"/>
        <pt x="231" y="0" on="1"/>
        <pt x="173" y="0" on="1"/>
        <pt x="199" y="183" on="1"/>
        <pt x="39" y="183" on="1"/>
        <pt x="48" y="248" on="1"/>
        <pt x="208" y="248" on="1"/>
        <pt x="245" y="510" on="1"/>
        <pt x="85" y="510" on="1"/>
        <pt x="94" y="575" on="1"/>
        <pt x="254" y="575" on="1"/>
        <pt x="279" y="750" on="1"/>
        <pt x="337" y="750" on="1"/>
        <pt x="312" y="575" on="1"/>
        <pt x="481" y="575" on="1"/>
        <pt x="472" y="510" on="1"/>
        <pt x="303" y="510" on="1"/>
        <pt x="266" y="248" on="1"/>
        <pt x="435" y="248" on="1"/>
        <pt x="426" y="183" on="1"/>
      </contour>
    </TTGlyph>
    <TTGlyph name="degree" xMin="93" yMin="444" xMax="398" yMax="776">
      <contour>
        <pt x="222" y="444" on="1"/>
        <pt x="165" y="444" on="0"/>
        <pt x="93" y="522" on="0"/>
        <pt x="93" y="583" on="1"/>
        <pt x="93" y="666" on="0"/>
        <pt x="194" y="776" on="0"/>
        <pt x="269" y="776" on="1"/>
        <pt x="326" y="776" on="0"/>
        <pt x="398" y="698" on="0"/>
        <pt x="398" y="637" on="1"/>
        <pt x="398" y="554" on="0"/>
        <pt x="297" y="444" on="0"/>
      </contour>
      <contour>
        <pt x="343" y="671" on="0"/>
        <pt x="299" y="722" on="0"/>
        <pt x="212" y="722" on="0"/>
        <pt x="148" y="643" on="0"/>
        <pt x="148" y="549" on="0"/>
        <pt x="192" y="498" on="0"/>
        <pt x="279" y="498" on="0"/>
        <pt x="343" y="577" on="0"/>
      </contour>
    </TTGlyph>
    <TTGlyph name="dieresis" xMin="156" yMin="709" xMax="395" yMax="815">
      <contour>
        <pt x="156" y="709" on="1"/>
        <pt x="170" y="815" on="1"/>
        <pt x="234" y="815" on="1"/>
        <pt x="220" y="709" on="1"/>
      </contour>
      <contour>
        <pt x="318" y="709" on="1"/>
        <pt x="332" y="815" on="1"/>
        <pt x="395" y="815" on="1"/>
        <pt x="381" y="709" on="1"/>
      </contour>
    </TTGlyph>
    <TTGlyph name="divide" xMin="56" yMin="0" xMax="453" yMax="500">
      <contour>
        <pt x="257" y="0" on="1"/>
        <pt x="189" y="0" on="1"/>
        <pt x="204" y="106" on="1"/>
        <pt x="272" y="106" on="1"/>
      </contour>
      <contour>
        <pt x="312" y="394" on="1"/>
        <pt x="244" y="394" on="1"/>
        <pt x="259" y="500" on="1"/>
        <pt x="327" y="500" on="1"/>
      </contour>
      <contour>
        <pt x="444" y="228" on="1"/>
        <pt x="56" y="228" on="1"/>
        <pt x="65" y="293" on="1"/>
        <pt x="453" y="293" on="1"/>
      </contour>
    </TTGlyph>
    <TTGlyph name="dollar" xMin="41" yMin="-60" xMax="428" yMax="747">
      <contour>
        <pt x="363" y="589" on="1"/>
        <pt x="315" y="602" on="0"/>
        <pt x="233" y="602" on="0"/>
        <pt x="177" y="543" on="0"/>
        <pt x="177" y="459" on="0"/>
        <pt x="226" y="412" on="0"/>
        <pt x="295" y="382" on="0"/>
        <pt x="364" y="348" on="0"/>
        <pt x="413" y="288" on="0"/>
        <pt x="413" y="244" on="1"/>
        <pt x="413" y="162" on="0"/>
        <pt x="314" y="41" on="0"/>
        <pt x="231" y="32" on="1"/>
        <pt x="218" y="-60" on="1"/>
        <pt x="159" y="-60" on="1"/>
        <pt x="171" y="29" on="0"/>
        <pt x="172" y="30" on="1"/>
        <pt x="102" y="35" on="0"/>
        <pt x="41" y="79" on="1"/>
        <pt x="69" y="129" on="1"/>
        <pt x="135" y="92" on="0"/>
        <pt x="262" y="92" on="0"/>
        <pt x="345" y="161" on="0"/>
        <pt x="345" y="221" on="1"/>
        <pt x="345" y="283" on="0"/>
        <pt x="261" y="320" on="1"/>
        <pt x="226" y="336" on="0"/>
        <pt x="155" y="370" on="0"/>
        <pt x="106" y="432" on="0"/>
        <pt x="106" y="477" on="1"/>
        <pt x="106" y="552" on="0"/>
        <pt x="195" y="657" on="0"/>
        <pt x="260" y="660" on="1"/>
        <pt x="272" y="747" on="1"/>
        <pt x="331" y="747" on="1"/>
        <pt x="319" y="660" on="1"/>
        <pt x="370" y="654" on="0"/>
        <pt x="428" y="633" on="1"/>
        <pt x="407" y="573" on="1"/>
        <pt x="0" y="0" on="0"/>
      </contour>
    </TTGlyph>
    <TTGlyph name="dotaccent" xMin="127" yMin="705" xMax="199" yMax="801">
      <contour>
        <pt x="186" y="705" on="1"/>
        <pt x="127" y="705" on="1"/>
        <pt x="140" y="801" on="1"/>
        <pt x="199" y="801" on="1"/>
      </contour>
    </TTGlyph>
    <TTGlyph name="dotlessi" xMin="52" yMin="0" xMax="189" yMax="500">
      <contour>
        <pt x="52" y="0" on="1"/>
        <pt x="122" y="500" on="1"/>
        <pt x="189" y="500" on="1"/>
        <pt x="119" y="0" on="1"/>
      </contour>
    </TTGlyph>
    <TTGlyph name="e" xMin="52" yMin="-6" xMax="423" yMax="510">
      <contour>
        <pt x="225" y="-6" on="1"/>
        <pt x="145" y="-6" on="0"/>
        <pt x="52" y="87" on="0"/>
        <pt x="52" y="184" on="1"/>
        <pt x="52" y="303" on="0"/>
        <pt x="105" y="402" on="1"/>
        <pt x="131" y="450" on="0"/>
        <pt x="222" y="510" on="0"/>
        <pt x="348" y="510" on="0"/>
        <pt x="423" y="444" on="0"/>
        <pt x="423" y="318" on="0"/>
        <pt x="301" y="231" on="0"/>
        <pt x="179" y="231" on="1"/>
        <pt x="154" y="231" on="0"/>
        <pt x="124" y="234" on="1"/>
        <pt x="120" y="211" on="0"/>
        <pt x="120" y="188" on="1"/>
        <pt x="120" y="118" on="0"/>
        <pt x="188" y="58" on="0"/>
        <pt x="241" y="58" on="1"/>
        <pt x="281" y="58" on="0"/>
        <pt x="322" y="72" on="1"/>
        <pt x="368" y="87" on="1"/>
        <pt x="370" y="29" on="1"/>
        <pt x="275" y="-6" on="0"/>
      </contour>
      <contour>
        <pt x="184" y="288" on="1"/>
        <pt x="257" y="288" on="0"/>
        <pt x="358" y="334" on="0"/>
        <pt x="358" y="381" on="1"/>
        <pt x="358" y="445" on="0"/>
        <pt x="271" y="445" on="1"/>
        <pt x="169" y="445" on="0"/>
        <pt x="135" y="291" on="1"/>
        <pt x="159" y="288" on="0"/>
      </contour>
    </TTGlyph>
    <TTGlyph name="e.salt" xMin="52" yMin="-6" xMax="423" yMax="510">
      <contour>
        <pt x="423" y="346" on="1"/>
        <pt x="423" y="310" on="0"/>
        <pt x="409" y="234" on="1"/>
        <pt x="124" y="234" on="1"/>
        <pt x="120" y="200" on="0"/>
        <pt x="120" y="188" on="1"/>
        <pt x="120" y="118" on="0"/>
        <pt x="188" y="58" on="0"/>
        <pt x="241" y="58" on="1"/>
        <pt x="276" y="58" on="0"/>
        <pt x="315" y="70" on="0"/>
        <pt x="326" y="73" on="0"/>
        <pt x="361" y="85" on="0"/>
        <pt x="368" y="87" on="1"/>
        <pt x="370" y="29" on="1"/>
        <pt x="275" y="-6" on="0"/>
        <pt x="225" y="-6" on="1"/>
        <pt x="145" y="-6" on="0"/>
        <pt x="52" y="87" on="0"/>
        <pt x="52" y="184" on="1"/>
        <pt x="52" y="290" on="0"/>
        <pt x="105" y="394" on="1"/>
        <pt x="131" y="445" on="0"/>
        <pt x="222" y="510" on="0"/>
        <pt x="348" y="510" on="0"/>
        <pt x="423" y="423" on="0"/>
      </contour>
      <contour>
        <pt x="358" y="341" on="1"/>
        <pt x="358" y="445" on="0"/>
        <pt x="271" y="445" on="1"/>
        <pt x="213" y="445" on="0"/>
        <pt x="148" y="359" on="0"/>
        <pt x="137" y="291" on="1"/>
        <pt x="354" y="291" on="1"/>
        <pt x="358" y="327" on="0"/>
      </contour>
    </TTGlyph>
    <TTGlyph name="eacute" xMin="52" yMin="-6" xMax="424" yMax="733">
      <component glyphName="e" x="0" y="0" flags="0x1004"/>
      <component glyphName="acute" x="111" y="0" flags="0x1004"/>
    </TTGlyph>
    <TTGlyph name="eacute.salt" xMin="52" yMin="-6" xMax="424" yMax="733">
      <contour>
        <pt x="423" y="346" on="1"/>
        <pt x="423" y="310" on="0"/>
        <pt x="409" y="234" on="1"/>
        <pt x="124" y="234" on="1"/>
        <pt x="120" y="200" on="0"/>
        <pt x="120" y="188" on="1"/>
        <pt x="120" y="118" on="0"/>
        <pt x="188" y="58" on="0"/>
        <pt x="241" y="58" on="1"/>
        <pt x="276" y="58" on="0"/>
        <pt x="315" y="70" on="0"/>
        <pt x="326" y="73" on="0"/>
        <pt x="361" y="85" on="0"/>
        <pt x="368" y="87" on="1"/>
        <pt x="370" y="29" on="1"/>
        <pt x="275" y="-6" on="0"/>
        <pt x="225" y="-6" on="1"/>
        <pt x="145" y="-6" on="0"/>
        <pt x="52" y="87" on="0"/>
        <pt x="52" y="184" on="1"/>
        <pt x="52" y="290" on="0"/>
        <pt x="105" y="394" on="1"/>
        <pt x="131" y="445" on="0"/>
        <pt x="222" y="510" on="0"/>
        <pt x="348" y="510" on="0"/>
        <pt x="423" y="423" on="0"/>
      </contour>
      <contour>
        <pt x="358" y="341" on="1"/>
        <pt x="358" y="445" on="0"/>
        <pt x="271" y="445" on="1"/>
        <pt x="213" y="445" on="0"/>
        <pt x="148" y="359" on="0"/>
        <pt x="137" y="291" on="1"/>
        <pt x="354" y="291" on="1"/>
        <pt x="358" y="327" on="0"/>
      </contour>
      <contour>
        <pt x="289" y="571" on="1"/>
        <pt x="239" y="592" on="1"/>
        <pt x="361" y="733" on="1"/>
        <pt x="424" y="703" on="1"/>
      </contour>
    </TTGlyph>
    <TTGlyph name="ecircumflex" xMin="52" yMin="-6" xMax="431" yMax="712">
      <contour>
        <pt x="225" y="-6" on="1"/>
        <pt x="145" y="-6" on="0"/>
        <pt x="52" y="87" on="0"/>
        <pt x="52" y="184" on="1"/>
        <pt x="52" y="303" on="0"/>
        <pt x="105" y="402" on="1"/>
        <pt x="131" y="450" on="0"/>
        <pt x="222" y="510" on="0"/>
        <pt x="348" y="510" on="0"/>
        <pt x="423" y="444" on="0"/>
        <pt x="423" y="318" on="0"/>
        <pt x="301" y="231" on="0"/>
        <pt x="179" y="231" on="1"/>
        <pt x="154" y="231" on="0"/>
        <pt x="124" y="234" on="1"/>
        <pt x="120" y="211" on="0"/>
        <pt x="120" y="188" on="1"/>
        <pt x="120" y="118" on="0"/>
        <pt x="188" y="58" on="0"/>
        <pt x="241" y="58" on="1"/>
        <pt x="281" y="58" on="0"/>
        <pt x="322" y="72" on="1"/>
        <pt x="368" y="87" on="1"/>
        <pt x="370" y="29" on="1"/>
        <pt x="275" y="-6" on="0"/>
      </contour>
      <contour>
        <pt x="184" y="288" on="1"/>
        <pt x="257" y="288" on="0"/>
        <pt x="358" y="334" on="0"/>
        <pt x="358" y="381" on="1"/>
        <pt x="358" y="445" on="0"/>
        <pt x="271" y="445" on="1"/>
        <pt x="169" y="445" on="0"/>
        <pt x="135" y="291" on="1"/>
        <pt x="159" y="288" on="0"/>
      </contour>
      <contour>
        <pt x="280" y="712" on="1"/>
        <pt x="323" y="712" on="1"/>
        <pt x="431" y="612" on="1"/>
        <pt x="410" y="583" on="1"/>
        <pt x="293" y="658" on="1"/>
        <pt x="155" y="583" on="1"/>
        <pt x="142" y="612" on="1"/>
      </contour>
    </TTGlyph>
    <TTGlyph name="ecircumflex.salt" xMin="52" yMin="-6" xMax="431" yMax="712">
      <contour>
        <pt x="423" y="346" on="1"/>
        <pt x="423" y="310" on="0"/>
        <pt x="409" y="234" on="1"/>
        <pt x="124" y="234" on="1"/>
        <pt x="120" y="200" on="0"/>
        <pt x="120" y="188" on="1"/>
        <pt x="120" y="118" on="0"/>
        <pt x="188" y="58" on="0"/>
        <pt x="241" y="58" on="1"/>
        <pt x="276" y="58" on="0"/>
        <pt x="315" y="70" on="0"/>
        <pt x="326" y="73" on="0"/>
        <pt x="361" y="85" on="0"/>
        <pt x="368" y="87" on="1"/>
        <pt x="370" y="29" on="1"/>
        <pt x="275" y="-6" on="0"/>
        <pt x="225" y="-6" on="1"/>
        <pt x="145" y="-6" on="0"/>
        <pt x="52" y="87" on="0"/>
        <pt x="52" y="184" on="1"/>
        <pt x="52" y="290" on="0"/>
        <pt x="105" y="394" on="1"/>
        <pt x="131" y="445" on="0"/>
        <pt x="222" y="510" on="0"/>
        <pt x="348" y="510" on="0"/>
        <pt x="423" y="423" on="0"/>
      </contour>
      <contour>
        <pt x="358" y="341" on="1"/>
        <pt x="358" y="445" on="0"/>
        <pt x="271" y="445" on="1"/>
        <pt x="213" y="445" on="0"/>
        <pt x="148" y="359" on="0"/>
        <pt x="137" y="291" on="1"/>
        <pt x="354" y="291" on="1"/>
        <pt x="358" y="327" on="0"/>
      </contour>
      <contour>
        <pt x="280" y="712" on="1"/>
        <pt x="323" y="712" on="1"/>
        <pt x="431" y="612" on="1"/>
        <pt x="410" y="583" on="1"/>
        <pt x="293" y="658" on="1"/>
        <pt x="155" y="583" on="1"/>
        <pt x="142" y="612" on="1"/>
      </contour>
    </TTGlyph>
    <TTGlyph name="edieresis" xMin="52" yMin="-6" xMax="423" yMax="701">
      <contour>
        <pt x="225" y="-6" on="1"/>
        <pt x="145" y="-6" on="0"/>
        <pt x="52" y="87" on="0"/>
        <pt x="52" y="184" on="1"/>
        <pt x="52" y="303" on="0"/>
        <pt x="105" y="402" on="1"/>
        <pt x="131" y="450" on="0"/>
        <pt x="222" y="510" on="0"/>
        <pt x="348" y="510" on="0"/>
        <pt x="423" y="444" on="0"/>
        <pt x="423" y="318" on="0"/>
        <pt x="301" y="231" on="0"/>
        <pt x="179" y="231" on="1"/>
        <pt x="154" y="231" on="0"/>
        <pt x="124" y="234" on="1"/>
        <pt x="120" y="211" on="0"/>
        <pt x="120" y="188" on="1"/>
        <pt x="120" y="118" on="0"/>
        <pt x="188" y="58" on="0"/>
        <pt x="241" y="58" on="1"/>
        <pt x="281" y="58" on="0"/>
        <pt x="322" y="72" on="1"/>
        <pt x="368" y="87" on="1"/>
        <pt x="370" y="29" on="1"/>
        <pt x="275" y="-6" on="0"/>
      </contour>
      <contour>
        <pt x="184" y="288" on="1"/>
        <pt x="257" y="288" on="0"/>
        <pt x="358" y="334" on="0"/>
        <pt x="358" y="381" on="1"/>
        <pt x="358" y="445" on="0"/>
        <pt x="271" y="445" on="1"/>
        <pt x="169" y="445" on="0"/>
        <pt x="135" y="291" on="1"/>
        <pt x="159" y="288" on="0"/>
      </contour>
      <contour>
        <pt x="170" y="595" on="1"/>
        <pt x="184" y="701" on="1"/>
        <pt x="248" y="701" on="1"/>
        <pt x="234" y="595" on="1"/>
      </contour>
      <contour>
        <pt x="332" y="595" on="1"/>
        <pt x="346" y="701" on="1"/>
        <pt x="409" y="701" on="1"/>
        <pt x="395" y="595" on="1"/>
      </contour>
    </TTGlyph>
    <TTGlyph name="edieresis.salt" xMin="52" yMin="-6" xMax="423" yMax="701">
      <contour>
        <pt x="423" y="346" on="1"/>
        <pt x="423" y="310" on="0"/>
        <pt x="409" y="234" on="1"/>
        <pt x="124" y="234" on="1"/>
        <pt x="120" y="200" on="0"/>
        <pt x="120" y="188" on="1"/>
        <pt x="120" y="118" on="0"/>
        <pt x="188" y="58" on="0"/>
        <pt x="241" y="58" on="1"/>
        <pt x="276" y="58" on="0"/>
        <pt x="315" y="70" on="0"/>
        <pt x="326" y="73" on="0"/>
        <pt x="361" y="85" on="0"/>
        <pt x="368" y="87" on="1"/>
        <pt x="370" y="29" on="1"/>
        <pt x="275" y="-6" on="0"/>
        <pt x="225" y="-6" on="1"/>
        <pt x="145" y="-6" on="0"/>
        <pt x="52" y="87" on="0"/>
        <pt x="52" y="184" on="1"/>
        <pt x="52" y="290" on="0"/>
        <pt x="105" y="394" on="1"/>
        <pt x="131" y="445" on="0"/>
        <pt x="222" y="510" on="0"/>
        <pt x="348" y="510" on="0"/>
        <pt x="423" y="423" on="0"/>
      </contour>
      <contour>
        <pt x="358" y="341" on="1"/>
        <pt x="358" y="445" on="0"/>
        <pt x="271" y="445" on="1"/>
        <pt x="213" y="445" on="0"/>
        <pt x="148" y="359" on="0"/>
        <pt x="137" y="291" on="1"/>
        <pt x="354" y="291" on="1"/>
        <pt x="358" y="327" on="0"/>
      </contour>
      <contour>
        <pt x="170" y="595" on="1"/>
        <pt x="184" y="701" on="1"/>
        <pt x="248" y="701" on="1"/>
        <pt x="234" y="595" on="1"/>
      </contour>
      <contour>
        <pt x="332" y="595" on="1"/>
        <pt x="346" y="701" on="1"/>
        <pt x="409" y="701" on="1"/>
        <pt x="395" y="595" on="1"/>
      </contour>
    </TTGlyph>
    <TTGlyph name="egrave" xMin="52" yMin="-6" xMax="423" yMax="733">
      <component glyphName="e" x="0" y="0" flags="0x1004"/>
      <component glyphName="grave" x="41" y="0" flags="0x1004"/>
    </TTGlyph>
    <TTGlyph name="egrave.salt" xMin="52" yMin="-6" xMax="423" yMax="733">
      <contour>
        <pt x="423" y="346" on="1"/>
        <pt x="423" y="310" on="0"/>
        <pt x="409" y="234" on="1"/>
        <pt x="124" y="234" on="1"/>
        <pt x="120" y="200" on="0"/>
        <pt x="120" y="188" on="1"/>
        <pt x="120" y="118" on="0"/>
        <pt x="188" y="58" on="0"/>
        <pt x="241" y="58" on="1"/>
        <pt x="276" y="58" on="0"/>
        <pt x="315" y="70" on="0"/>
        <pt x="326" y="73" on="0"/>
        <pt x="361" y="85" on="0"/>
        <pt x="368" y="87" on="1"/>
        <pt x="370" y="29" on="1"/>
        <pt x="275" y="-6" on="0"/>
        <pt x="225" y="-6" on="1"/>
        <pt x="145" y="-6" on="0"/>
        <pt x="52" y="87" on="0"/>
        <pt x="52" y="184" on="1"/>
        <pt x="52" y="290" on="0"/>
        <pt x="105" y="394" on="1"/>
        <pt x="131" y="445" on="0"/>
        <pt x="222" y="510" on="0"/>
        <pt x="348" y="510" on="0"/>
        <pt x="423" y="423" on="0"/>
      </contour>
      <contour>
        <pt x="358" y="341" on="1"/>
        <pt x="358" y="445" on="0"/>
        <pt x="271" y="445" on="1"/>
        <pt x="213" y="445" on="0"/>
        <pt x="148" y="359" on="0"/>
        <pt x="137" y="291" on="1"/>
        <pt x="354" y="291" on="1"/>
        <pt x="358" y="327" on="0"/>
      </contour>
      <contour>
        <pt x="316" y="592" on="1"/>
        <pt x="260" y="571" on="1"/>
        <pt x="161" y="703" on="1"/>
        <pt x="234" y="733" on="1"/>
      </contour>
    </TTGlyph>
    <TTGlyph name="eight" xMin="50" yMin="-6" xMax="511" yMax="710">
      <contour>
        <pt x="424" y="710" on="0"/>
        <pt x="511" y="629" on="0"/>
        <pt x="511" y="506" on="0"/>
        <pt x="442" y="386" on="0"/>
        <pt x="387" y="344" on="1"/>
        <pt x="478" y="290" on="0"/>
        <pt x="478" y="217" on="1"/>
        <pt x="478" y="117" on="0"/>
        <pt x="336" y="-6" on="0"/>
        <pt x="138" y="-6" on="0"/>
        <pt x="50" y="83" on="0"/>
        <pt x="50" y="219" on="0"/>
        <pt x="129" y="328" on="0"/>
        <pt x="195" y="364" on="1"/>
        <pt x="118" y="412" on="0"/>
        <pt x="118" y="490" on="1"/>
        <pt x="118" y="586" on="0"/>
        <pt x="245" y="710" on="0"/>
        <pt x="346" y="710" on="1"/>
      </contour>
      <contour>
        <pt x="122" y="117" on="0"/>
        <pt x="182" y="57" on="0"/>
        <pt x="305" y="57" on="0"/>
        <pt x="404" y="137" on="0"/>
        <pt x="404" y="199" on="1"/>
        <pt x="404" y="244" on="0"/>
        <pt x="331" y="299" on="0"/>
        <pt x="253" y="332" on="1"/>
        <pt x="199" y="307" on="0"/>
        <pt x="122" y="220" on="0"/>
      </contour>
      <contour>
        <pt x="376" y="406" on="0"/>
        <pt x="437" y="497" on="0"/>
        <pt x="437" y="591" on="0"/>
        <pt x="382" y="645" on="0"/>
        <pt x="278" y="645" on="0"/>
        <pt x="190" y="571" on="0"/>
        <pt x="190" y="466" on="0"/>
        <pt x="279" y="392" on="0"/>
        <pt x="332" y="374" on="1"/>
      </contour>
    </TTGlyph>
    <TTGlyph name="ellipsis" xMin="46" yMin="0" xMax="616" yMax="106">
      <contour>
        <pt x="113" y="0" on="1"/>
        <pt x="46" y="0" on="1"/>
        <pt x="61" y="106" on="1"/>
        <pt x="128" y="106" on="1"/>
      </contour>
      <contour>
        <pt x="357" y="0" on="1"/>
        <pt x="290" y="0" on="1"/>
        <pt x="305" y="106" on="1"/>
        <pt x="372" y="106" on="1"/>
      </contour>
      <contour>
        <pt x="601" y="0" on="1"/>
        <pt x="534" y="0" on="1"/>
        <pt x="549" y="106" on="1"/>
        <pt x="616" y="106" on="1"/>
      </contour>
    </TTGlyph>
    <TTGlyph name="emdash" xMin="15" yMin="257" xMax="744" yMax="322">
      <contour>
        <pt x="735" y="257" on="1"/>
        <pt x="15" y="257" on="1"/>
        <pt x="24" y="322" on="1"/>
        <pt x="744" y="322" on="1"/>
      </contour>
    </TTGlyph>
    <TTGlyph name="endash" xMin="15" yMin="257" xMax="474" yMax="322">
      <contour>
        <pt x="465" y="257" on="1"/>
        <pt x="15" y="257" on="1"/>
        <pt x="24" y="322" on="1"/>
        <pt x="474" y="322" on="1"/>
      </contour>
    </TTGlyph>
    <TTGlyph name="equal" xMin="69" yMin="163" xMax="493" yMax="426">
      <contour>
        <pt x="484" y="361" on="1"/>
        <pt x="97" y="361" on="1"/>
        <pt x="106" y="426" on="1"/>
        <pt x="493" y="426" on="1"/>
      </contour>
      <contour>
        <pt x="456" y="163" on="1"/>
        <pt x="69" y="163" on="1"/>
        <pt x="78" y="228" on="1"/>
        <pt x="465" y="228" on="1"/>
      </contour>
    </TTGlyph>
    <TTGlyph name="eth" xMin="79" yMin="-6" xMax="479" yMax="758">
      <contour>
        <pt x="301" y="443" on="1"/>
        <pt x="222" y="443" on="0"/>
        <pt x="149" y="298" on="0"/>
        <pt x="149" y="188" on="1"/>
        <pt x="149" y="59" on="0"/>
        <pt x="248" y="59" on="1"/>
        <pt x="325" y="59" on="0"/>
        <pt x="408" y="205" on="0"/>
        <pt x="408" y="316" on="1"/>
        <pt x="408" y="443" on="0"/>
      </contour>
      <contour>
        <pt x="449" y="449" on="1"/>
        <pt x="479" y="403" on="0"/>
        <pt x="479" y="237" on="0"/>
        <pt x="428" y="89" on="0"/>
        <pt x="317" y="-6" on="0"/>
        <pt x="161" y="-6" on="0"/>
        <pt x="79" y="95" on="0"/>
        <pt x="79" y="186" on="1"/>
        <pt x="79" y="510" on="0"/>
        <pt x="322" y="511" on="1"/>
        <pt x="249" y="609" on="1"/>
        <pt x="142" y="548" on="1"/>
        <pt x="113" y="588" on="1"/>
        <pt x="223" y="651" on="1"/>
        <pt x="164" y="713" on="0"/>
        <pt x="152" y="723" on="1"/>
        <pt x="204" y="758" on="1"/>
        <pt x="275" y="681" on="1"/>
        <pt x="384" y="739" on="1"/>
        <pt x="413" y="701" on="1"/>
        <pt x="303" y="643" on="1"/>
        <pt x="407" y="515" on="0"/>
      </contour>
    </TTGlyph>
    <TTGlyph name="exclam" xMin="61" yMin="0" xMax="227" yMax="701">
      <contour>
        <pt x="156" y="190" on="1"/>
        <pt x="89" y="190" on="1"/>
        <pt x="160" y="701" on="1"/>
        <pt x="227" y="701" on="1"/>
      </contour>
      <contour>
        <pt x="128" y="0" on="1"/>
        <pt x="61" y="0" on="1"/>
        <pt x="74" y="93" on="1"/>
        <pt x="141" y="93" on="1"/>
      </contour>
    </TTGlyph>
    <TTGlyph name="exclamdown" xMin="53" yMin="-107" xMax="220" yMax="594">
      <contour>
        <pt x="125" y="404" on="1"/>
        <pt x="192" y="404" on="1"/>
        <pt x="120" y="-107" on="1"/>
        <pt x="53" y="-107" on="1"/>
      </contour>
      <contour>
        <pt x="153" y="594" on="1"/>
        <pt x="220" y="594" on="1"/>
        <pt x="207" y="501" on="1"/>
        <pt x="140" y="501" on="1"/>
      </contour>
    </TTGlyph>
    <TTGlyph name="f" xMin="12" yMin="-239" xMax="357" yMax="710">
      <contour>
        <pt x="166" y="652" on="0"/>
        <pt x="242" y="710" on="0"/>
        <pt x="321" y="710" on="0"/>
        <pt x="357" y="697" on="1"/>
        <pt x="339" y="643" on="1"/>
        <pt x="309" y="649" on="0"/>
        <pt x="296" y="649" on="1"/>
        <pt x="232" y="649" on="0"/>
        <pt x="223" y="582" on="1"/>
        <pt x="212" y="500" on="1"/>
        <pt x="305" y="500" on="1"/>
        <pt x="296" y="440" on="1"/>
        <pt x="204" y="440" on="1"/>
        <pt x="142" y="-10" on="1"/>
        <pt x="130" y="-95" on="0"/>
        <pt x="85" y="-198" on="0"/>
        <pt x="45" y="-239" on="1"/>
        <pt x="12" y="-204" on="1"/>
        <pt x="55" y="-149" on="0"/>
        <pt x="71" y="-34" on="1"/>
        <pt x="136" y="440" on="1"/>
        <pt x="67" y="440" on="1"/>
        <pt x="76" y="500" on="1"/>
        <pt x="144" y="500" on="1"/>
        <pt x="156" y="586" on="1"/>
      </contour>
    </TTGlyph>
    <TTGlyph name="fi" xMin="43" yMin="0" xMax="458" yMax="710">
      <contour>
        <pt x="144" y="657" on="0"/>
        <pt x="219" y="710" on="0"/>
        <pt x="297" y="710" on="0"/>
        <pt x="333" y="697" on="1"/>
        <pt x="315" y="643" on="1"/>
        <pt x="285" y="649" on="0"/>
        <pt x="272" y="649" on="1"/>
        <pt x="209" y="649" on="0"/>
        <pt x="200" y="582" on="1"/>
        <pt x="189" y="500" on="1"/>
        <pt x="430" y="500" on="1"/>
        <pt x="360" y="0" on="1"/>
        <pt x="292" y="0" on="1"/>
        <pt x="353" y="439" on="1"/>
        <pt x="180" y="439" on="1"/>
        <pt x="119" y="0" on="1"/>
        <pt x="51" y="0" on="1"/>
        <pt x="112" y="440" on="1"/>
        <pt x="43" y="440" on="1"/>
        <pt x="52" y="500" on="1"/>
        <pt x="122" y="500" on="1"/>
        <pt x="135" y="596" on="1"/>
      </contour>
      <contour>
        <pt x="458" y="699" on="1"/>
        <pt x="445" y="610" on="1"/>
        <pt x="377" y="610" on="1"/>
        <pt x="390" y="699" on="1"/>
      </contour>
    </TTGlyph>
    <TTGlyph name="five" xMin="39" yMin="-6" xMax="506" yMax="700">
      <contour>
        <pt x="67" y="100" on="1"/>
        <pt x="143" y="60" on="0"/>
        <pt x="294" y="60" on="0"/>
        <pt x="389" y="168" on="0"/>
        <pt x="389" y="246" on="1"/>
        <pt x="389" y="360" on="0"/>
        <pt x="235" y="360" on="1"/>
        <pt x="116" y="361" on="1"/>
        <pt x="185" y="700" on="1"/>
        <pt x="506" y="700" on="1"/>
        <pt x="493" y="635" on="1"/>
        <pt x="234" y="635" on="1"/>
        <pt x="195" y="424" on="1"/>
        <pt x="223" y="425" on="0"/>
        <pt x="251" y="425" on="1"/>
        <pt x="349" y="425" on="0"/>
        <pt x="463" y="340" on="0"/>
        <pt x="463" y="262" on="1"/>
        <pt x="463" y="150" on="0"/>
        <pt x="325" y="-6" on="0"/>
        <pt x="206" y="-6" on="1"/>
        <pt x="162" y="-6" on="0"/>
        <pt x="78" y="20" on="0"/>
        <pt x="58" y="34" on="1"/>
        <pt x="39" y="47" on="1"/>
      </contour>
    </TTGlyph>
    <TTGlyph name="fl" xMin="42" yMin="0" xMax="402" yMax="711">
      <contour>
        <pt x="271" y="649" on="1"/>
        <pt x="208" y="649" on="0"/>
        <pt x="199" y="582" on="1"/>
        <pt x="188" y="500" on="1"/>
        <pt x="279" y="500" on="1"/>
        <pt x="270" y="440" on="1"/>
        <pt x="179" y="440" on="1"/>
        <pt x="118" y="0" on="1"/>
        <pt x="50" y="0" on="1"/>
        <pt x="111" y="440" on="1"/>
        <pt x="42" y="440" on="1"/>
        <pt x="51" y="500" on="1"/>
        <pt x="121" y="500" on="1"/>
        <pt x="134" y="596" on="1"/>
        <pt x="143" y="657" on="0"/>
        <pt x="218" y="710" on="0"/>
        <pt x="266" y="710" on="1"/>
        <pt x="286" y="710" on="0"/>
        <pt x="334" y="700" on="1"/>
        <pt x="402" y="711" on="1"/>
        <pt x="303" y="0" on="1"/>
        <pt x="236" y="0" on="1"/>
        <pt x="326" y="640" on="1"/>
        <pt x="286" y="649" on="0"/>
      </contour>
    </TTGlyph>
    <TTGlyph name="flecha0" xMin="37" yMin="-62" xMax="384" yMax="608">
      <contour>
        <pt x="290" y="-62" on="1"/>
        <pt x="37" y="274" on="1"/>
        <pt x="384" y="608" on="1"/>
      </contour>
    </TTGlyph>
    <TTGlyph name="flecha01" xMin="72" yMin="-47" xMax="600" yMax="623">
      <contour>
        <pt x="72" y="-47" on="1"/>
        <pt x="166" y="623" on="1"/>
        <pt x="600" y="288" on="1"/>
      </contour>
      <contour>
        <pt x="159" y="96" on="1"/>
        <pt x="475" y="285" on="1"/>
        <pt x="214" y="488" on="1"/>
      </contour>
    </TTGlyph>
    <TTGlyph name="flecha02" xMin="72" yMin="-47" xMax="924" yMax="623">
      <contour>
        <pt x="72" y="-47" on="1"/>
        <pt x="166" y="623" on="1"/>
        <pt x="924" y="280" on="1"/>
      </contour>
      <contour>
        <pt x="152" y="58" on="1"/>
        <pt x="748" y="287" on="1"/>
        <pt x="216" y="510" on="1"/>
      </contour>
    </TTGlyph>
    <TTGlyph name="florin" xMin="-77" yMin="-153" xMax="337" yMax="712">
      <contour>
        <pt x="129" y="659" on="0"/>
        <pt x="208" y="712" on="0"/>
        <pt x="306" y="712" on="0"/>
        <pt x="337" y="700" on="1"/>
        <pt x="316" y="646" on="1"/>
        <pt x="288" y="651" on="0"/>
        <pt x="234" y="651" on="0"/>
        <pt x="184" y="615" on="0"/>
        <pt x="176" y="584" on="1"/>
        <pt x="140" y="442" on="1"/>
        <pt x="241" y="442" on="1"/>
        <pt x="226" y="382" on="1"/>
        <pt x="126" y="382" on="1"/>
        <pt x="-5" y="-143" on="1"/>
        <pt x="-77" y="-153" on="1"/>
        <pt x="58" y="382" on="1"/>
        <pt x="-10" y="382" on="1"/>
        <pt x="3" y="442" on="1"/>
        <pt x="73" y="442" on="1"/>
        <pt x="113" y="598" on="1"/>
      </contour>
    </TTGlyph>
    <TTGlyph name="four" xMin="7" yMin="0" xMax="439" yMax="700">
      <contour>
        <pt x="273" y="0" on="1"/>
        <pt x="291" y="131" on="1"/>
        <pt x="7" y="131" on="1"/>
        <pt x="14" y="180" on="1"/>
        <pt x="279" y="700" on="1"/>
        <pt x="351" y="700" on="1"/>
        <pt x="94" y="196" on="1"/>
        <pt x="300" y="196" on="1"/>
        <pt x="327" y="382" on="1"/>
        <pt x="392" y="382" on="1"/>
        <pt x="365" y="196" on="1"/>
        <pt x="439" y="196" on="1"/>
        <pt x="430" y="131" on="1"/>
        <pt x="356" y="131" on="1"/>
        <pt x="338" y="0" on="1"/>
      </contour>
    </TTGlyph>
    <TTGlyph name="fraction" xMin="-33" yMin="0" xMax="501" yMax="688">
      <contour>
        <pt x="501" y="688" on="1"/>
        <pt x="36" y="0" on="1"/>
        <pt x="-33" y="0" on="1"/>
        <pt x="430" y="688" on="1"/>
      </contour>
    </TTGlyph>
    <TTGlyph name="g" xMin="43" yMin="-236" xMax="466" yMax="510">
      <contour>
        <pt x="188" y="-7" on="1"/>
        <pt x="56" y="-7" on="0"/>
        <pt x="56" y="167" on="1"/>
        <pt x="56" y="328" on="0"/>
        <pt x="180" y="510" on="0"/>
        <pt x="278" y="510" on="1"/>
        <pt x="354" y="510" on="0"/>
        <pt x="394" y="436" on="1"/>
        <pt x="426" y="501" on="1"/>
        <pt x="466" y="501" on="1"/>
        <pt x="394" y="-21" on="1"/>
        <pt x="379" y="-129" on="0"/>
        <pt x="265" y="-236" on="0"/>
        <pt x="183" y="-236" on="1"/>
        <pt x="137" y="-236" on="0"/>
        <pt x="76" y="-212" on="0"/>
        <pt x="43" y="-197" on="1"/>
        <pt x="63" y="-144" on="1"/>
        <pt x="134" y="-171" on="0"/>
        <pt x="237" y="-171" on="0"/>
        <pt x="313" y="-101" on="0"/>
        <pt x="323" y="-30" on="1"/>
        <pt x="334" y="53" on="1"/>
        <pt x="328" y="48" on="1"/>
        <pt x="252" y="-7" on="0"/>
      </contour>
      <contour>
        <pt x="372" y="336" on="1"/>
        <pt x="372" y="385" on="0"/>
        <pt x="314" y="445" on="0"/>
        <pt x="282" y="445" on="1"/>
        <pt x="200" y="445" on="0"/>
        <pt x="126" y="298" on="0"/>
        <pt x="126" y="58" on="0"/>
        <pt x="201" y="58" on="1"/>
        <pt x="267" y="58" on="0"/>
        <pt x="344" y="125" on="1"/>
        <pt x="372" y="325" on="0"/>
      </contour>
    </TTGlyph>
    <TTGlyph name="germandbls" xMin="57" yMin="-6" xMax="497" yMax="710">
      <contour>
        <pt x="145" y="624" on="0"/>
        <pt x="239" y="710" on="0"/>
        <pt x="412" y="710" on="0"/>
        <pt x="497" y="625" on="0"/>
        <pt x="497" y="491" on="0"/>
        <pt x="413" y="388" on="0"/>
        <pt x="364" y="382" on="1"/>
        <pt x="414" y="374" on="0"/>
        <pt x="476" y="295" on="0"/>
        <pt x="476" y="232" on="1"/>
        <pt x="476" y="120" on="0"/>
        <pt x="341" y="-6" on="0"/>
        <pt x="250" y="-6" on="1"/>
        <pt x="220" y="-6" on="0"/>
        <pt x="193" y="-1" on="1"/>
        <pt x="200" y="52" on="1"/>
        <pt x="299" y="52" on="0"/>
        <pt x="409" y="142" on="0"/>
        <pt x="409" y="227" on="1"/>
        <pt x="409" y="274" on="0"/>
        <pt x="342" y="342" on="0"/>
        <pt x="277" y="343" on="1"/>
        <pt x="251" y="343" on="1"/>
        <pt x="260" y="407" on="1"/>
        <pt x="285" y="407" on="1"/>
        <pt x="339" y="407" on="0"/>
        <pt x="430" y="491" on="0"/>
        <pt x="430" y="549" on="1"/>
        <pt x="430" y="592" on="0"/>
        <pt x="377" y="645" on="0"/>
        <pt x="331" y="645" on="1"/>
        <pt x="258" y="645" on="0"/>
        <pt x="204" y="574" on="0"/>
        <pt x="194" y="498" on="1"/>
        <pt x="124" y="0" on="1"/>
        <pt x="57" y="0" on="1"/>
        <pt x="132" y="532" on="1"/>
      </contour>
    </TTGlyph>
    <TTGlyph name="grave" xMin="120" yMin="571" xMax="275" yMax="733">
      <contour>
        <pt x="275" y="592" on="1"/>
        <pt x="219" y="571" on="1"/>
        <pt x="120" y="703" on="1"/>
        <pt x="193" y="733" on="1"/>
      </contour>
    </TTGlyph>
    <TTGlyph name="graveMAY" xMin="148" yMin="701" xMax="273" yMax="825">
      <contour>
        <pt x="273" y="701" on="1"/>
        <pt x="218" y="701" on="1"/>
        <pt x="148" y="825" on="1"/>
        <pt x="224" y="825" on="1"/>
      </contour>
    </TTGlyph>
    <TTGlyph name="greater" xMin="53" yMin="46" xMax="444" yMax="551">
      <contour>
        <pt x="437" y="270" on="1"/>
        <pt x="53" y="46" on="1"/>
        <pt x="64" y="123" on="1"/>
        <pt x="375" y="298" on="1"/>
        <pt x="113" y="471" on="1"/>
        <pt x="124" y="551" on="1"/>
        <pt x="444" y="326" on="1"/>
      </contour>
    </TTGlyph>
    <TTGlyph name="greaterequal" xMin="-13" yMin="0" xMax="394" yMax="627">
      <contour>
        <pt x="386" y="346" on="1"/>
        <pt x="3" y="122" on="1"/>
        <pt x="13" y="199" on="1"/>
        <pt x="325" y="374" on="1"/>
        <pt x="62" y="547" on="1"/>
        <pt x="74" y="627" on="1"/>
        <pt x="394" y="402" on="1"/>
      </contour>
      <contour>
        <pt x="338" y="0" on="1"/>
        <pt x="-13" y="0" on="1"/>
        <pt x="-4" y="65" on="1"/>
        <pt x="347" y="65" on="1"/>
      </contour>
    </TTGlyph>
    <TTGlyph name="guillemotleft" xMin="74" yMin="78" xMax="439" yMax="518">
      <contour>
        <pt x="386" y="108" on="1"/>
        <pt x="338" y="89" on="1"/>
        <pt x="249" y="297" on="1"/>
        <pt x="398" y="506" on="1"/>
        <pt x="439" y="488" on="1"/>
        <pt x="320" y="299" on="1"/>
      </contour>
      <contour>
        <pt x="216" y="97" on="1"/>
        <pt x="168" y="78" on="1"/>
        <pt x="74" y="297" on="1"/>
        <pt x="231" y="518" on="1"/>
        <pt x="273" y="499" on="1"/>
        <pt x="147" y="299" on="1"/>
      </contour>
    </TTGlyph>
    <TTGlyph name="guillemotright" xMin="62" yMin="78" xMax="427" yMax="518">
      <contour>
        <pt x="115" y="488" on="1"/>
        <pt x="163" y="507" on="1"/>
        <pt x="252" y="299" on="1"/>
        <pt x="103" y="90" on="1"/>
        <pt x="62" y="108" on="1"/>
        <pt x="180" y="297" on="1"/>
      </contour>
      <contour>
        <pt x="285" y="499" on="1"/>
        <pt x="333" y="518" on="1"/>
        <pt x="427" y="299" on="1"/>
        <pt x="270" y="78" on="1"/>
        <pt x="228" y="97" on="1"/>
        <pt x="354" y="297" on="1"/>
      </contour>
    </TTGlyph>
    <TTGlyph name="guilsinglleft" xMin="73" yMin="82" xMax="274" yMax="512">
      <contour>
        <pt x="220" y="105" on="1"/>
        <pt x="167" y="82" on="1"/>
        <pt x="73" y="296" on="1"/>
        <pt x="229" y="512" on="1"/>
        <pt x="274" y="489" on="1"/>
        <pt x="151" y="298" on="1"/>
      </contour>
    </TTGlyph>
    <TTGlyph name="guilsinglright" xMin="64" yMin="82" xMax="266" yMax="512">
      <contour>
        <pt x="118" y="489" on="1"/>
        <pt x="172" y="512" on="1"/>
        <pt x="266" y="298" on="1"/>
        <pt x="110" y="82" on="1"/>
        <pt x="64" y="105" on="1"/>
        <pt x="188" y="296" on="1"/>
      </contour>
    </TTGlyph>
    <TTGlyph name="h" xMin="57" yMin="0" xMax="444" yMax="700">
      <contour>
        <pt x="375" y="360" on="1"/>
        <pt x="375" y="447" on="0"/>
        <pt x="298" y="447" on="1"/>
        <pt x="230" y="447" on="0"/>
        <pt x="180" y="399" on="1"/>
        <pt x="124" y="0" on="1"/>
        <pt x="57" y="0" on="1"/>
        <pt x="155" y="700" on="1"/>
        <pt x="221" y="700" on="1"/>
        <pt x="188" y="460" on="1"/>
        <pt x="210" y="477" on="0"/>
        <pt x="235" y="494" on="0"/>
        <pt x="288" y="510" on="0"/>
        <pt x="321" y="510" on="1"/>
        <pt x="376" y="510" on="0"/>
        <pt x="444" y="443" on="0"/>
        <pt x="444" y="381" on="1"/>
        <pt x="444" y="368" on="0"/>
        <pt x="442" y="348" on="1"/>
        <pt x="393" y="0" on="1"/>
        <pt x="326" y="0" on="1"/>
        <pt x="375" y="347" on="0"/>
      </contour>
    </TTGlyph>
    <TTGlyph name="hbar" xMin="56" yMin="0" xMax="444" yMax="700">
      <contour>
        <pt x="321" y="510" on="1"/>
        <pt x="376" y="510" on="0"/>
        <pt x="444" y="443" on="0"/>
        <pt x="444" y="381" on="1"/>
        <pt x="444" y="368" on="0"/>
        <pt x="442" y="348" on="1"/>
        <pt x="393" y="0" on="1"/>
        <pt x="326" y="0" on="1"/>
        <pt x="375" y="347" on="0"/>
        <pt x="375" y="360" on="1"/>
        <pt x="375" y="447" on="0"/>
        <pt x="298" y="447" on="1"/>
        <pt x="230" y="447" on="0"/>
        <pt x="180" y="399" on="1"/>
        <pt x="124" y="0" on="1"/>
        <pt x="56" y="0" on="1"/>
        <pt x="138" y="585" on="1"/>
        <pt x="62" y="585" on="1"/>
        <pt x="70" y="640" on="1"/>
        <pt x="146" y="640" on="1"/>
        <pt x="154" y="700" on="1"/>
        <pt x="221" y="700" on="1"/>
        <pt x="213" y="640" on="1"/>
        <pt x="355" y="640" on="1"/>
        <pt x="347" y="585" on="1"/>
        <pt x="205" y="585" on="1"/>
        <pt x="188" y="460" on="1"/>
        <pt x="210" y="477" on="0"/>
        <pt x="235" y="494" on="0"/>
        <pt x="288" y="510" on="0"/>
      </contour>
    </TTGlyph>
    <TTGlyph name="hungarumlaut" xMin="110" yMin="571" xMax="443" yMax="733">
      <contour>
        <pt x="159" y="571" on="1"/>
        <pt x="110" y="592" on="1"/>
        <pt x="231" y="733" on="1"/>
        <pt x="294" y="703" on="1"/>
      </contour>
      <contour>
        <pt x="308" y="571" on="1"/>
        <pt x="259" y="592" on="1"/>
        <pt x="381" y="733" on="1"/>
        <pt x="443" y="703" on="1"/>
      </contour>
    </TTGlyph>
    <TTGlyph name="hyphen" xMin="59" yMin="254" xMax="240" yMax="329">
      <contour>
        <pt x="230" y="254" on="1"/>
        <pt x="59" y="254" on="1"/>
        <pt x="69" y="329" on="1"/>
        <pt x="240" y="329" on="1"/>
      </contour>
    </TTGlyph>
    <TTGlyph name="i" xMin="45" yMin="0" xMax="210" yMax="700">
      <contour>
        <pt x="45" y="0" on="1"/>
        <pt x="115" y="500" on="1"/>
        <pt x="182" y="500" on="1"/>
        <pt x="112" y="0" on="1"/>
      </contour>
      <contour>
        <pt x="210" y="700" on="1"/>
        <pt x="198" y="611" on="1"/>
        <pt x="131" y="611" on="1"/>
        <pt x="143" y="700" on="1"/>
      </contour>
    </TTGlyph>
    <TTGlyph name="iacute" xMin="52" yMin="0" xMax="278" yMax="733">
      <contour>
        <pt x="52" y="0" on="1"/>
        <pt x="122" y="500" on="1"/>
        <pt x="187" y="500" on="1"/>
        <pt x="117" y="0" on="1"/>
      </contour>
      <contour>
        <pt x="143" y="571" on="1"/>
        <pt x="93" y="592" on="1"/>
        <pt x="215" y="733" on="1"/>
        <pt x="278" y="703" on="1"/>
      </contour>
    </TTGlyph>
    <TTGlyph name="icircumflex" xMin="-25" yMin="0" xMax="264" yMax="712">
      <contour>
        <pt x="52" y="0" on="1"/>
        <pt x="122" y="500" on="1"/>
        <pt x="189" y="500" on="1"/>
        <pt x="119" y="0" on="1"/>
      </contour>
      <contour>
        <pt x="113" y="712" on="1"/>
        <pt x="156" y="712" on="1"/>
        <pt x="264" y="612" on="1"/>
        <pt x="243" y="583" on="1"/>
        <pt x="126" y="658" on="1"/>
        <pt x="-12" y="583" on="1"/>
        <pt x="-25" y="612" on="1"/>
      </contour>
    </TTGlyph>
    <TTGlyph name="idieresis" xMin="4" yMin="0" xMax="243" yMax="700">
      <contour>
        <pt x="52" y="0" on="1"/>
        <pt x="122" y="500" on="1"/>
        <pt x="189" y="500" on="1"/>
        <pt x="119" y="0" on="1"/>
      </contour>
      <contour>
        <pt x="4" y="594" on="1"/>
        <pt x="18" y="700" on="1"/>
        <pt x="82" y="700" on="1"/>
        <pt x="68" y="594" on="1"/>
      </contour>
      <contour>
        <pt x="166" y="594" on="1"/>
        <pt x="180" y="700" on="1"/>
        <pt x="243" y="700" on="1"/>
        <pt x="229" y="594" on="1"/>
      </contour>
    </TTGlyph>
    <TTGlyph name="igrave" xMin="2" yMin="0" xMax="187" yMax="727">
      <contour>
        <pt x="52" y="0" on="1"/>
        <pt x="122" y="500" on="1"/>
        <pt x="187" y="500" on="1"/>
        <pt x="117" y="0" on="1"/>
      </contour>
      <contour>
        <pt x="157" y="586" on="1"/>
        <pt x="101" y="565" on="1"/>
        <pt x="2" y="697" on="1"/>
        <pt x="75" y="727" on="1"/>
      </contour>
    </TTGlyph>
    <TTGlyph name="ij" xMin="45" yMin="-239" xMax="418" yMax="700">
      <contour>
        <pt x="45" y="0" on="1"/>
        <pt x="115" y="500" on="1"/>
        <pt x="182" y="500" on="1"/>
        <pt x="112" y="0" on="1"/>
      </contour>
      <contour>
        <pt x="210" y="700" on="1"/>
        <pt x="198" y="611" on="1"/>
        <pt x="131" y="611" on="1"/>
        <pt x="143" y="700" on="1"/>
      </contour>
      <contour>
        <pt x="418" y="700" on="1"/>
        <pt x="405" y="612" on="1"/>
        <pt x="338" y="612" on="1"/>
        <pt x="351" y="700" on="1"/>
      </contour>
      <contour>
        <pt x="188" y="-204" on="1"/>
        <pt x="231" y="-150" on="0"/>
        <pt x="248" y="-34" on="1"/>
        <pt x="323" y="500" on="1"/>
        <pt x="390" y="500" on="1"/>
        <pt x="318" y="-10" on="1"/>
        <pt x="306" y="-96" on="0"/>
        <pt x="261" y="-198" on="0"/>
        <pt x="221" y="-239" on="1"/>
      </contour>
    </TTGlyph>
    <TTGlyph name="infinity" xMin="73" yMin="133" xMax="769" yMax="457">
      <contour>
        <pt x="634" y="457" on="1"/>
        <pt x="696" y="457" on="0"/>
        <pt x="769" y="389" on="0"/>
        <pt x="769" y="328" on="1"/>
        <pt x="769" y="244" on="0"/>
        <pt x="670" y="133" on="0"/>
        <pt x="498" y="133" on="0"/>
        <pt x="411" y="254" on="1"/>
        <pt x="296" y="133" on="0"/>
        <pt x="208" y="133" on="1"/>
        <pt x="146" y="133" on="0"/>
        <pt x="73" y="201" on="0"/>
        <pt x="73" y="262" on="1"/>
        <pt x="73" y="346" on="0"/>
        <pt x="172" y="457" on="0"/>
        <pt x="259" y="457" on="1"/>
        <pt x="308" y="457" on="0"/>
        <pt x="389" y="393" on="0"/>
        <pt x="431" y="338" on="1"/>
        <pt x="548" y="457" on="0"/>
      </contour>
      <contour>
        <pt x="338" y="343" on="0"/>
        <pt x="279" y="397" on="0"/>
        <pt x="199" y="397" on="0"/>
        <pt x="138" y="326" on="0"/>
        <pt x="138" y="282" on="1"/>
        <pt x="138" y="196" on="0"/>
        <pt x="220" y="196" on="1"/>
        <pt x="278" y="196" on="0"/>
        <pt x="374" y="294" on="1"/>
      </contour>
      <contour>
        <pt x="495" y="248" on="0"/>
        <pt x="555" y="196" on="0"/>
        <pt x="639" y="196" on="0"/>
        <pt x="700" y="262" on="0"/>
        <pt x="700" y="352" on="0"/>
        <pt x="658" y="397" on="0"/>
        <pt x="621" y="397" on="1"/>
        <pt x="565" y="397" on="0"/>
        <pt x="462" y="294" on="1"/>
      </contour>
    </TTGlyph>
    <TTGlyph name="integral" xMin="-41" yMin="-201" xMax="387" yMax="804">
      <contour>
        <pt x="201" y="742" on="0"/>
        <pt x="279" y="804" on="0"/>
        <pt x="357" y="804" on="0"/>
        <pt x="387" y="793" on="1"/>
        <pt x="374" y="744" on="1"/>
        <pt x="330" y="744" on="1"/>
        <pt x="268" y="744" on="0"/>
        <pt x="258" y="676" on="1"/>
        <pt x="153" y="-77" on="1"/>
        <pt x="144" y="-139" on="0"/>
        <pt x="65" y="-201" on="0"/>
        <pt x="-11" y="-201" on="0"/>
        <pt x="-41" y="-190" on="1"/>
        <pt x="-28" y="-141" on="1"/>
        <pt x="15" y="-141" on="1"/>
        <pt x="76" y="-141" on="0"/>
        <pt x="86" y="-73" on="1"/>
        <pt x="193" y="680" on="1"/>
      </contour>
    </TTGlyph>
    <TTGlyph name="itilde" xMin="-10" yMin="0" xMax="293" yMax="707">
      <contour>
        <pt x="52" y="0" on="1"/>
        <pt x="122" y="500" on="1"/>
        <pt x="189" y="500" on="1"/>
        <pt x="119" y="0" on="1"/>
      </contour>
      <contour>
        <pt x="216" y="587" on="0"/>
        <pt x="181" y="587" on="0"/>
        <pt x="85" y="642" on="0"/>
        <pt x="61" y="642" on="0"/>
        <pt x="32" y="623" on="0"/>
        <pt x="15" y="604" on="1"/>
        <pt x="-10" y="637" on="1"/>
        <pt x="8" y="661" on="0"/>
        <pt x="66" y="707" on="0"/>
        <pt x="101" y="707" on="0"/>
        <pt x="197" y="652" on="0"/>
        <pt x="221" y="652" on="0"/>
        <pt x="250" y="671" on="0"/>
        <pt x="267" y="690" on="1"/>
        <pt x="293" y="664" on="1"/>
        <pt x="292" y="657" on="1"/>
        <pt x="274" y="633" on="0"/>
      </contour>
    </TTGlyph>
    <TTGlyph name="j" xMin="-17" yMin="-239" xMax="213" yMax="700">
      <contour>
        <pt x="213" y="700" on="1"/>
        <pt x="200" y="612" on="1"/>
        <pt x="133" y="612" on="1"/>
        <pt x="146" y="700" on="1"/>
      </contour>
      <contour>
        <pt x="-17" y="-204" on="1"/>
        <pt x="26" y="-150" on="0"/>
        <pt x="43" y="-34" on="1"/>
        <pt x="118" y="500" on="1"/>
        <pt x="185" y="500" on="1"/>
        <pt x="113" y="-10" on="1"/>
        <pt x="101" y="-96" on="0"/>
        <pt x="56" y="-198" on="0"/>
        <pt x="16" y="-239" on="1"/>
      </contour>
    </TTGlyph>
    <TTGlyph name="jcircumflex" xMin="-21" yMin="-239" xMax="268" yMax="712">
      <contour>
        <pt x="23" y="-239" on="1"/>
        <pt x="-10" y="-204" on="1"/>
        <pt x="33" y="-150" on="0"/>
        <pt x="50" y="-34" on="1"/>
        <pt x="125" y="500" on="1"/>
        <pt x="192" y="500" on="1"/>
        <pt x="120" y="-10" on="1"/>
        <pt x="108" y="-95" on="0"/>
        <pt x="63" y="-198" on="0"/>
      </contour>
      <contour>
        <pt x="117" y="712" on="1"/>
        <pt x="160" y="712" on="1"/>
        <pt x="268" y="612" on="1"/>
        <pt x="247" y="583" on="1"/>
        <pt x="130" y="658" on="1"/>
        <pt x="-8" y="583" on="1"/>
        <pt x="-21" y="612" on="1"/>
      </contour>
    </TTGlyph>
    <TTGlyph name="k" xMin="57" yMin="0" xMax="472" yMax="700">
      <contour>
        <pt x="155" y="700" on="1"/>
        <pt x="222" y="700" on="1"/>
        <pt x="164" y="288" on="1"/>
        <pt x="387" y="500" on="1"/>
        <pt x="472" y="500" on="1"/>
        <pt x="254" y="297" on="1"/>
        <pt x="412" y="0" on="1"/>
        <pt x="336" y="0" on="1"/>
        <pt x="207" y="250" on="1"/>
        <pt x="151" y="196" on="1"/>
        <pt x="124" y="0" on="1"/>
        <pt x="57" y="0" on="1"/>
      </contour>
    </TTGlyph>
    <TTGlyph name="kcedilla" xMin="57" yMin="-217" xMax="472" yMax="700">
      <component glyphName="k" x="0" y="0" flags="0x1004"/>
      <component glyphName="cedilla" x="28" y="-40" flags="0x1004"/>
    </TTGlyph>
    <TTGlyph name="kgreenlandic" xMin="64" yMin="0" xMax="479" yMax="500">
      <contour>
        <pt x="134" y="500" on="1"/>
        <pt x="201" y="500" on="1"/>
        <pt x="171" y="288" on="1"/>
        <pt x="394" y="500" on="1"/>
        <pt x="479" y="500" on="1"/>
        <pt x="261" y="297" on="1"/>
        <pt x="419" y="0" on="1"/>
        <pt x="343" y="0" on="1"/>
        <pt x="214" y="250" on="1"/>
        <pt x="158" y="196" on="1"/>
        <pt x="131" y="0" on="1"/>
        <pt x="64" y="0" on="1"/>
      </contour>
    </TTGlyph>
    <TTGlyph name="l" xMin="57" yMin="0" xMax="222" yMax="700">
      <contour>
        <pt x="57" y="0" on="1"/>
        <pt x="155" y="700" on="1"/>
        <pt x="222" y="700" on="1"/>
        <pt x="124" y="0" on="1"/>
      </contour>
    </TTGlyph>
    <TTGlyph name="ldot" xMin="57" yMin="0" xMax="329" yMax="700">
      <contour>
        <pt x="57" y="0" on="1"/>
        <pt x="155" y="700" on="1"/>
        <pt x="222" y="700" on="1"/>
        <pt x="124" y="0" on="1"/>
      </contour>
      <contour>
        <pt x="314" y="247" on="1"/>
        <pt x="247" y="247" on="1"/>
        <pt x="262" y="350" on="1"/>
        <pt x="329" y="350" on="1"/>
      </contour>
    </TTGlyph>
    <TTGlyph name="less" xMin="71" yMin="45" xMax="463" yMax="551">
      <contour>
        <pt x="392" y="45" on="1"/>
        <pt x="71" y="269" on="1"/>
        <pt x="79" y="326" on="1"/>
        <pt x="463" y="551" on="1"/>
        <pt x="452" y="471" on="1"/>
        <pt x="140" y="298" on="1"/>
        <pt x="403" y="123" on="1"/>
      </contour>
    </TTGlyph>
    <TTGlyph name="lessequal" xMin="-13" yMin="0" xMax="425" yMax="624">
      <contour>
        <pt x="354" y="118" on="1"/>
        <pt x="34" y="342" on="1"/>
        <pt x="42" y="399" on="1"/>
        <pt x="425" y="624" on="1"/>
        <pt x="414" y="544" on="1"/>
        <pt x="103" y="371" on="1"/>
        <pt x="365" y="196" on="1"/>
      </contour>
      <contour>
        <pt x="338" y="0" on="1"/>
        <pt x="-13" y="0" on="1"/>
        <pt x="-4" y="65" on="1"/>
        <pt x="347" y="65" on="1"/>
      </contour>
    </TTGlyph>
    <TTGlyph name="logicalnot" xMin="55" yMin="125" xMax="451" yMax="334">
      <contour>
        <pt x="422" y="125" on="1"/>
        <pt x="354" y="125" on="1"/>
        <pt x="374" y="269" on="1"/>
        <pt x="55" y="269" on="1"/>
        <pt x="64" y="334" on="1"/>
        <pt x="451" y="334" on="1"/>
      </contour>
    </TTGlyph>
    <TTGlyph name="lozenge" xMin="60" yMin="-1" xMax="477" yMax="700">
      <contour>
        <pt x="477" y="352" on="1"/>
        <pt x="246" y="-1" on="1"/>
        <pt x="191" y="-1" on="1"/>
        <pt x="60" y="350" on="1"/>
        <pt x="291" y="700" on="1"/>
        <pt x="346" y="700" on="1"/>
      </contour>
      <contour>
        <pt x="394" y="350" on="1"/>
        <pt x="306" y="617" on="1"/>
        <pt x="143" y="352" on="1"/>
        <pt x="232" y="85" on="1"/>
      </contour>
    </TTGlyph>
    <TTGlyph name="lslash" xMin="40" yMin="0" xMax="307" yMax="700">
      <contour>
        <pt x="189" y="415" on="1"/>
        <pt x="131" y="0" on="1"/>
        <pt x="68" y="0" on="1"/>
        <pt x="122" y="382" on="1"/>
        <pt x="40" y="332" on="1"/>
        <pt x="50" y="404" on="1"/>
        <pt x="132" y="453" on="1"/>
        <pt x="166" y="700" on="1"/>
        <pt x="229" y="700" on="1"/>
        <pt x="199" y="485" on="1"/>
        <pt x="307" y="551" on="1"/>
        <pt x="297" y="479" on="1"/>
      </contour>
    </TTGlyph>
    <TTGlyph name="m" xMin="64" yMin="0" xMax="717" yMax="510">
      <contour>
        <pt x="325" y="510" on="1"/>
        <pt x="410" y="510" on="0"/>
        <pt x="440" y="442" on="1"/>
        <pt x="525" y="510" on="0"/>
        <pt x="647" y="510" on="0"/>
        <pt x="717" y="446" on="0"/>
        <pt x="717" y="384" on="1"/>
        <pt x="717" y="370" on="0"/>
        <pt x="715" y="352" on="1"/>
        <pt x="666" y="0" on="1"/>
        <pt x="600" y="0" on="1"/>
        <pt x="645" y="321" on="1"/>
        <pt x="647" y="333" on="0"/>
        <pt x="647" y="353" on="1"/>
        <pt x="647" y="398" on="0"/>
        <pt x="606" y="445" on="0"/>
        <pt x="571" y="445" on="1"/>
        <pt x="514" y="445" on="0"/>
        <pt x="450" y="395" on="1"/>
        <pt x="450" y="367" on="0"/>
        <pt x="448" y="352" on="1"/>
        <pt x="399" y="0" on="1"/>
        <pt x="333" y="0" on="1"/>
        <pt x="381" y="342" on="0"/>
        <pt x="381" y="354" on="1"/>
        <pt x="381" y="398" on="0"/>
        <pt x="340" y="445" on="0"/>
        <pt x="277" y="445" on="0"/>
        <pt x="230" y="429" on="0"/>
        <pt x="207" y="413" on="0"/>
        <pt x="187" y="397" on="1"/>
        <pt x="132" y="0" on="1"/>
        <pt x="64" y="0" on="1"/>
        <pt x="134" y="500" on="1"/>
        <pt x="178" y="500" on="1"/>
        <pt x="182" y="448" on="1"/>
        <pt x="206" y="468" on="0"/>
        <pt x="235" y="488" on="0"/>
        <pt x="293" y="510" on="0"/>
      </contour>
    </TTGlyph>
    <TTGlyph name="macron" xMin="119" yMin="614" xMax="414" yMax="679">
      <contour>
        <pt x="119" y="614" on="1"/>
        <pt x="129" y="679" on="1"/>
        <pt x="414" y="679" on="1"/>
        <pt x="404" y="614" on="1"/>
      </contour>
    </TTGlyph>
    <TTGlyph name="minus" xMin="80" yMin="275" xMax="477" yMax="340">
      <contour>
        <pt x="468" y="275" on="1"/>
        <pt x="80" y="275" on="1"/>
        <pt x="89" y="340" on="1"/>
        <pt x="477" y="340" on="1"/>
      </contour>
    </TTGlyph>
    <TTGlyph name="mu" xMin="40" yMin="-236" xMax="479" yMax="500">
      <contour>
        <pt x="290" y="15" on="0"/>
        <pt x="237" y="-6" on="0"/>
        <pt x="178" y="-6" on="0"/>
        <pt x="142" y="10" on="1"/>
        <pt x="107" y="-236" on="1"/>
        <pt x="40" y="-236" on="1"/>
        <pt x="143" y="500" on="1"/>
        <pt x="212" y="500" on="1"/>
        <pt x="162" y="140" on="0"/>
        <pt x="162" y="90" on="0"/>
        <pt x="190" y="58" on="0"/>
        <pt x="255" y="58" on="0"/>
        <pt x="336" y="102" on="0"/>
        <pt x="359" y="127" on="1"/>
        <pt x="411" y="500" on="1"/>
        <pt x="479" y="500" on="1"/>
        <pt x="409" y="0" on="1"/>
        <pt x="370" y="0" on="1"/>
        <pt x="355" y="59" on="1"/>
        <pt x="325" y="37" on="0"/>
      </contour>
    </TTGlyph>
    <TTGlyph name="multiply" xMin="47" yMin="42" xMax="549" yMax="544">
      <contour>
        <pt x="549" y="498" on="1"/>
        <pt x="339" y="296" on="1"/>
        <pt x="490" y="95" on="1"/>
        <pt x="435" y="42" on="1"/>
        <pt x="283" y="243" on="1"/>
        <pt x="82" y="50" on="1"/>
        <pt x="47" y="96" on="1"/>
        <pt x="249" y="289" on="1"/>
        <pt x="98" y="489" on="1"/>
        <pt x="153" y="542" on="1"/>
        <pt x="304" y="342" on="1"/>
        <pt x="514" y="544" on="1"/>
      </contour>
    </TTGlyph>
    <TTGlyph name="n" xMin="64" yMin="0" xMax="449" yMax="510">
      <contour>
        <pt x="325" y="510" on="1"/>
        <pt x="380" y="510" on="0"/>
        <pt x="449" y="444" on="0"/>
        <pt x="449" y="382" on="1"/>
        <pt x="449" y="365" on="0"/>
        <pt x="446" y="347" on="1"/>
        <pt x="398" y="0" on="1"/>
        <pt x="331" y="0" on="1"/>
        <pt x="379" y="347" on="0"/>
        <pt x="379" y="359" on="1"/>
        <pt x="379" y="446" on="0"/>
        <pt x="302" y="446" on="1"/>
        <pt x="239" y="446" on="0"/>
        <pt x="186" y="397" on="1"/>
        <pt x="131" y="0" on="1"/>
        <pt x="64" y="0" on="1"/>
        <pt x="134" y="500" on="1"/>
        <pt x="177" y="500" on="1"/>
        <pt x="181" y="451" on="1"/>
        <pt x="204" y="469" on="0"/>
        <pt x="233" y="489" on="0"/>
        <pt x="293" y="510" on="0"/>
      </contour>
    </TTGlyph>
    <TTGlyph name="nacute" xMin="64" yMin="0" xMax="449" yMax="733">
      <contour>
        <pt x="325" y="510" on="1"/>
        <pt x="380" y="510" on="0"/>
        <pt x="449" y="444" on="0"/>
        <pt x="449" y="382" on="1"/>
        <pt x="449" y="365" on="0"/>
        <pt x="446" y="347" on="1"/>
        <pt x="398" y="0" on="1"/>
        <pt x="331" y="0" on="1"/>
        <pt x="379" y="347" on="0"/>
        <pt x="379" y="359" on="1"/>
        <pt x="379" y="446" on="0"/>
        <pt x="302" y="446" on="1"/>
        <pt x="239" y="446" on="0"/>
        <pt x="186" y="397" on="1"/>
        <pt x="131" y="0" on="1"/>
        <pt x="64" y="0" on="1"/>
        <pt x="134" y="500" on="1"/>
        <pt x="177" y="500" on="1"/>
        <pt x="181" y="451" on="1"/>
        <pt x="204" y="469" on="0"/>
        <pt x="233" y="489" on="0"/>
        <pt x="293" y="510" on="0"/>
      </contour>
      <contour>
        <pt x="281" y="571" on="1"/>
        <pt x="231" y="592" on="1"/>
        <pt x="353" y="733" on="1"/>
        <pt x="416" y="703" on="1"/>
      </contour>
    </TTGlyph>
    <TTGlyph name="nine" xMin="56" yMin="-6" xMax="495" yMax="710">
      <contour>
        <pt x="401" y="318" on="1"/>
        <pt x="333" y="281" on="0"/>
        <pt x="175" y="281" on="0"/>
        <pt x="87" y="362" on="0"/>
        <pt x="87" y="439" on="1"/>
        <pt x="87" y="555" on="0"/>
        <pt x="212" y="710" on="0"/>
        <pt x="319" y="710" on="1"/>
        <pt x="409" y="710" on="0"/>
        <pt x="495" y="597" on="0"/>
        <pt x="495" y="407" on="0"/>
        <pt x="462" y="237" on="0"/>
        <pt x="393" y="85" on="0"/>
        <pt x="269" y="-6" on="0"/>
        <pt x="187" y="-6" on="1"/>
        <pt x="152" y="-6" on="0"/>
        <pt x="86" y="10" on="0"/>
        <pt x="56" y="27" on="1"/>
        <pt x="80" y="87" on="1"/>
        <pt x="139" y="60" on="0"/>
        <pt x="204" y="60" on="1"/>
        <pt x="351" y="60" on="0"/>
      </contour>
      <contour>
        <pt x="304" y="645" on="1"/>
        <pt x="241" y="645" on="0"/>
        <pt x="161" y="530" on="0"/>
        <pt x="161" y="454" on="1"/>
        <pt x="161" y="346" on="0"/>
        <pt x="270" y="346" on="1"/>
        <pt x="336" y="346" on="0"/>
        <pt x="415" y="392" on="1"/>
        <pt x="415" y="396" on="1"/>
        <pt x="422" y="442" on="0"/>
        <pt x="422" y="487" on="1"/>
        <pt x="422" y="645" on="0"/>
      </contour>
    </TTGlyph>
    <TTGlyph name="notequal" xMin="8" yMin="1" xMax="430" yMax="672">
      <contour>
        <pt x="407" y="672" on="1"/>
        <pt x="297" y="428" on="1"/>
        <pt x="430" y="428" on="1"/>
        <pt x="421" y="363" on="1"/>
        <pt x="268" y="363" on="1"/>
        <pt x="215" y="243" on="1"/>
        <pt x="404" y="243" on="1"/>
        <pt x="395" y="177" on="1"/>
        <pt x="185" y="177" on="1"/>
        <pt x="106" y="1" on="1"/>
        <pt x="43" y="1" on="1"/>
        <pt x="123" y="177" on="1"/>
        <pt x="8" y="177" on="1"/>
        <pt x="17" y="243" on="1"/>
        <pt x="152" y="243" on="1"/>
        <pt x="206" y="363" on="1"/>
        <pt x="34" y="363" on="1"/>
        <pt x="43" y="428" on="1"/>
        <pt x="235" y="428" on="1"/>
        <pt x="345" y="672" on="1"/>
      </contour>
    </TTGlyph>
    <TTGlyph name="ntilde" xMin="64" yMin="0" xMax="468" yMax="699">
      <contour>
        <pt x="302" y="446" on="1"/>
        <pt x="239" y="446" on="0"/>
        <pt x="186" y="397" on="1"/>
        <pt x="131" y="0" on="1"/>
        <pt x="64" y="0" on="1"/>
        <pt x="134" y="500" on="1"/>
        <pt x="177" y="500" on="1"/>
        <pt x="181" y="451" on="1"/>
        <pt x="204" y="469" on="0"/>
        <pt x="233" y="489" on="0"/>
        <pt x="293" y="510" on="0"/>
        <pt x="325" y="510" on="1"/>
        <pt x="380" y="510" on="0"/>
        <pt x="449" y="444" on="0"/>
        <pt x="449" y="382" on="1"/>
        <pt x="449" y="365" on="0"/>
        <pt x="446" y="347" on="1"/>
        <pt x="398" y="0" on="1"/>
        <pt x="331" y="0" on="1"/>
        <pt x="379" y="347" on="0"/>
        <pt x="379" y="359" on="1"/>
        <pt x="379" y="446" on="0"/>
      </contour>
      <contour>
        <pt x="391" y="579" on="0"/>
        <pt x="356" y="579" on="0"/>
        <pt x="260" y="634" on="0"/>
        <pt x="236" y="634" on="0"/>
        <pt x="207" y="615" on="0"/>
        <pt x="190" y="596" on="1"/>
        <pt x="165" y="629" on="1"/>
        <pt x="183" y="653" on="0"/>
        <pt x="241" y="699" on="0"/>
        <pt x="276" y="699" on="0"/>
        <pt x="372" y="644" on="0"/>
        <pt x="396" y="644" on="0"/>
        <pt x="425" y="663" on="0"/>
        <pt x="442" y="682" on="1"/>
        <pt x="468" y="656" on="1"/>
        <pt x="467" y="649" on="1"/>
        <pt x="449" y="625" on="0"/>
      </contour>
    </TTGlyph>
    <TTGlyph name="numbersign" xMin="29" yMin="0" xMax="578" yMax="700">
      <contour>
        <pt x="569" y="465" on="1"/>
        <pt x="475" y="465" on="1"/>
        <pt x="428" y="256" on="1"/>
        <pt x="516" y="256" on="1"/>
        <pt x="507" y="191" on="1"/>
        <pt x="412" y="191" on="1"/>
        <pt x="368" y="0" on="1"/>
        <pt x="300" y="0" on="1"/>
        <pt x="345" y="191" on="1"/>
        <pt x="202" y="191" on="1"/>
        <pt x="157" y="0" on="1"/>
        <pt x="88" y="0" on="1"/>
        <pt x="133" y="191" on="1"/>
        <pt x="29" y="191" on="1"/>
        <pt x="38" y="256" on="1"/>
        <pt x="148" y="256" on="1"/>
        <pt x="197" y="465" on="1"/>
        <pt x="90" y="465" on="1"/>
        <pt x="99" y="530" on="1"/>
        <pt x="211" y="530" on="1"/>
        <pt x="251" y="700" on="1"/>
        <pt x="319" y="700" on="1"/>
        <pt x="279" y="530" on="1"/>
        <pt x="422" y="530" on="1"/>
        <pt x="463" y="700" on="1"/>
        <pt x="530" y="700" on="1"/>
        <pt x="492" y="530" on="1"/>
        <pt x="578" y="530" on="1"/>
      </contour>
      <contour>
        <pt x="409" y="465" on="1"/>
        <pt x="266" y="465" on="1"/>
        <pt x="216" y="256" on="1"/>
        <pt x="359" y="256" on="1"/>
      </contour>
    </TTGlyph>
    <TTGlyph name="o" xMin="50" yMin="-6" xMax="448" yMax="510">
      <contour>
        <pt x="274" y="445" on="1"/>
        <pt x="195" y="445" on="0"/>
        <pt x="119" y="303" on="0"/>
        <pt x="119" y="126" on="0"/>
        <pt x="165" y="59" on="0"/>
        <pt x="218" y="59" on="1"/>
        <pt x="299" y="59" on="0"/>
        <pt x="379" y="192" on="0"/>
        <pt x="379" y="370" on="0"/>
        <pt x="328" y="445" on="0"/>
      </contour>
      <contour>
        <pt x="212" y="-6" on="1"/>
        <pt x="50" y="-6" on="0"/>
        <pt x="50" y="199" on="1"/>
        <pt x="50" y="333" on="0"/>
        <pt x="174" y="510" on="0"/>
        <pt x="283" y="510" on="1"/>
        <pt x="363" y="510" on="0"/>
        <pt x="448" y="404" on="0"/>
        <pt x="448" y="299" on="1"/>
        <pt x="448" y="169" on="0"/>
        <pt x="325" y="-6" on="0"/>
      </contour>
    </TTGlyph>
    <TTGlyph name="oacute" xMin="50" yMin="-6" xMax="448" yMax="733">
      <contour>
        <pt x="274" y="445" on="1"/>
        <pt x="195" y="445" on="0"/>
        <pt x="119" y="303" on="0"/>
        <pt x="119" y="126" on="0"/>
        <pt x="165" y="59" on="0"/>
        <pt x="218" y="59" on="1"/>
        <pt x="299" y="59" on="0"/>
        <pt x="379" y="192" on="0"/>
        <pt x="379" y="370" on="0"/>
        <pt x="328" y="445" on="0"/>
      </contour>
      <contour>
        <pt x="212" y="-6" on="1"/>
        <pt x="50" y="-6" on="0"/>
        <pt x="50" y="199" on="1"/>
        <pt x="50" y="333" on="0"/>
        <pt x="174" y="510" on="0"/>
        <pt x="283" y="510" on="1"/>
        <pt x="363" y="510" on="0"/>
        <pt x="448" y="404" on="0"/>
        <pt x="448" y="299" on="1"/>
        <pt x="448" y="169" on="0"/>
        <pt x="325" y="-6" on="0"/>
      </contour>
      <contour>
        <pt x="283" y="571" on="1"/>
        <pt x="233" y="592" on="1"/>
        <pt x="355" y="733" on="1"/>
        <pt x="418" y="703" on="1"/>
      </contour>
    </TTGlyph>
    <TTGlyph name="ocircumflex" xMin="50" yMin="-6" xMax="448" yMax="712">
      <component glyphName="o" x="0" y="0" flags="0x1004"/>
      <component glyphName="circumflex" x="30" y="-108" flags="0x1004"/>
    </TTGlyph>
    <TTGlyph name="odieresis" xMin="50" yMin="-6" xMax="448" yMax="700">
      <component glyphName="o" x="0" y="0" flags="0x1004"/>
      <component glyphName="dieresis" x="28" y="-115" flags="0x1004"/>
    </TTGlyph>
    <TTGlyph name="oe" xMin="52" yMin="-6" xMax="749" yMax="510">
      <contour>
        <pt x="551" y="-6" on="1"/>
        <pt x="431" y="-6" on="0"/>
        <pt x="394" y="89" on="1"/>
        <pt x="328" y="-6" on="0"/>
        <pt x="214" y="-6" on="1"/>
        <pt x="52" y="-6" on="0"/>
        <pt x="52" y="199" on="1"/>
        <pt x="52" y="333" on="0"/>
        <pt x="176" y="510" on="0"/>
        <pt x="398" y="510" on="0"/>
        <pt x="434" y="407" on="1"/>
        <pt x="498" y="510" on="0"/>
        <pt x="606" y="510" on="1"/>
        <pt x="674" y="510" on="0"/>
        <pt x="749" y="444" on="0"/>
        <pt x="749" y="318" on="0"/>
        <pt x="627" y="231" on="0"/>
        <pt x="505" y="231" on="1"/>
        <pt x="480" y="231" on="0"/>
        <pt x="450" y="234" on="1"/>
        <pt x="446" y="211" on="0"/>
        <pt x="446" y="188" on="1"/>
        <pt x="446" y="118" on="0"/>
        <pt x="514" y="58" on="0"/>
        <pt x="567" y="58" on="1"/>
        <pt x="607" y="58" on="0"/>
        <pt x="648" y="72" on="1"/>
        <pt x="694" y="87" on="1"/>
        <pt x="696" y="29" on="1"/>
        <pt x="601" y="-6" on="0"/>
      </contour>
      <contour>
        <pt x="276" y="445" on="1"/>
        <pt x="197" y="445" on="0"/>
        <pt x="121" y="303" on="0"/>
        <pt x="121" y="126" on="0"/>
        <pt x="167" y="59" on="0"/>
        <pt x="220" y="59" on="1"/>
        <pt x="301" y="59" on="0"/>
        <pt x="381" y="192" on="0"/>
        <pt x="381" y="370" on="0"/>
        <pt x="330" y="445" on="0"/>
      </contour>
      <contour>
        <pt x="510" y="288" on="1"/>
        <pt x="583" y="288" on="0"/>
        <pt x="684" y="334" on="0"/>
        <pt x="684" y="381" on="1"/>
        <pt x="684" y="445" on="0"/>
        <pt x="597" y="445" on="1"/>
        <pt x="495" y="445" on="0"/>
        <pt x="461" y="291" on="1"/>
        <pt x="485" y="288" on="0"/>
      </contour>
    </TTGlyph>
    <TTGlyph name="ogonek" xMin="43" yMin="-194" xMax="211" yMax="0">
      <contour>
        <pt x="153" y="-29" on="0"/>
        <pt x="109" y="-78" on="0"/>
        <pt x="109" y="-141" on="0"/>
        <pt x="149" y="-141" on="1"/>
        <pt x="163" y="-141" on="0"/>
        <pt x="205" y="-129" on="1"/>
        <pt x="211" y="-169" on="1"/>
        <pt x="165" y="-194" on="0"/>
        <pt x="115" y="-194" on="1"/>
        <pt x="43" y="-194" on="0"/>
        <pt x="43" y="-133" on="1"/>
        <pt x="43" y="-54" on="0"/>
        <pt x="128" y="0" on="1"/>
        <pt x="203" y="0" on="1"/>
      </contour>
    </TTGlyph>
    <TTGlyph name="ograve" xMin="50" yMin="-6" xMax="448" yMax="733">
      <contour>
        <pt x="274" y="445" on="1"/>
        <pt x="195" y="445" on="0"/>
        <pt x="119" y="303" on="0"/>
        <pt x="119" y="126" on="0"/>
        <pt x="165" y="59" on="0"/>
        <pt x="218" y="59" on="1"/>
        <pt x="299" y="59" on="0"/>
        <pt x="379" y="192" on="0"/>
        <pt x="379" y="370" on="0"/>
        <pt x="328" y="445" on="0"/>
      </contour>
      <contour>
        <pt x="212" y="-6" on="1"/>
        <pt x="50" y="-6" on="0"/>
        <pt x="50" y="199" on="1"/>
        <pt x="50" y="333" on="0"/>
        <pt x="174" y="510" on="0"/>
        <pt x="283" y="510" on="1"/>
        <pt x="363" y="510" on="0"/>
        <pt x="448" y="404" on="0"/>
        <pt x="448" y="299" on="1"/>
        <pt x="448" y="169" on="0"/>
        <pt x="325" y="-6" on="0"/>
      </contour>
      <contour>
        <pt x="331" y="592" on="1"/>
        <pt x="275" y="571" on="1"/>
        <pt x="176" y="703" on="1"/>
        <pt x="249" y="733" on="1"/>
      </contour>
    </TTGlyph>
    <TTGlyph name="one" xMin="12" yMin="0" xMax="402" yMax="700">
      <contour>
        <pt x="12" y="0" on="1"/>
        <pt x="21" y="65" on="1"/>
        <pt x="197" y="65" on="1"/>
        <pt x="276" y="626" on="1"/>
        <pt x="105" y="515" on="1"/>
        <pt x="80" y="571" on="1"/>
        <pt x="286" y="700" on="1"/>
        <pt x="353" y="700" on="1"/>
        <pt x="264" y="65" on="1"/>
        <pt x="402" y="65" on="1"/>
        <pt x="393" y="0" on="1"/>
      </contour>
    </TTGlyph>
    <TTGlyph name="onehalf" xMin="99" yMin="0" xMax="675" yMax="688">
      <contour>
        <pt x="660" y="688" on="1"/>
        <pt x="195" y="0" on="1"/>
        <pt x="130" y="0" on="1"/>
        <pt x="594" y="688" on="1"/>
      </contour>
      <contour>
        <pt x="99" y="316" on="1"/>
        <pt x="105" y="364" on="1"/>
        <pt x="167" y="364" on="1"/>
        <pt x="201" y="600" on="1"/>
        <pt x="120" y="550" on="1"/>
        <pt x="109" y="599" on="1"/>
        <pt x="210" y="662" on="1"/>
        <pt x="255" y="662" on="1"/>
        <pt x="213" y="364" on="1"/>
        <pt x="276" y="364" on="1"/>
        <pt x="270" y="316" on="1"/>
      </contour>
      <contour>
        <pt x="617" y="252" on="1"/>
        <pt x="617" y="296" on="0"/>
        <pt x="572" y="296" on="1"/>
        <pt x="544" y="296" on="0"/>
        <pt x="498" y="285" on="1"/>
        <pt x="508" y="325" on="1"/>
        <pt x="554" y="339" on="0"/>
        <pt x="635" y="339" on="0"/>
        <pt x="675" y="304" on="0"/>
        <pt x="675" y="242" on="0"/>
        <pt x="651" y="182" on="0"/>
        <pt x="623" y="150" on="1"/>
        <pt x="578" y="98" on="0"/>
        <pt x="519" y="47" on="1"/>
        <pt x="667" y="47" on="1"/>
        <pt x="652" y="0" on="1"/>
        <pt x="445" y="0" on="1"/>
        <pt x="450" y="32" on="1"/>
        <pt x="452" y="34" on="0"/>
        <pt x="499" y="78" on="0"/>
        <pt x="525" y="103" on="0"/>
        <pt x="571" y="153" on="0"/>
        <pt x="584" y="171" on="1"/>
        <pt x="617" y="219" on="0"/>
      </contour>
    </TTGlyph>
    <TTGlyph name="onequarter" xMin="99" yMin="0" xMax="724" yMax="688">
      <contour>
        <pt x="660" y="688" on="1"/>
        <pt x="196" y="0" on="1"/>
        <pt x="130" y="0" on="1"/>
        <pt x="594" y="688" on="1"/>
      </contour>
      <contour>
        <pt x="598" y="0" on="1"/>
        <pt x="610" y="85" on="1"/>
        <pt x="427" y="85" on="1"/>
        <pt x="433" y="126" on="1"/>
        <pt x="627" y="427" on="1"/>
        <pt x="679" y="427" on="1"/>
        <pt x="491" y="135" on="1"/>
        <pt x="617" y="135" on="1"/>
        <pt x="633" y="250" on="1"/>
        <pt x="679" y="250" on="1"/>
        <pt x="663" y="134" on="1"/>
        <pt x="724" y="134" on="1"/>
        <pt x="717" y="85" on="1"/>
        <pt x="656" y="85" on="1"/>
        <pt x="644" y="0" on="1"/>
      </contour>
      <contour>
        <pt x="99" y="316" on="1"/>
        <pt x="105" y="364" on="1"/>
        <pt x="168" y="364" on="1"/>
        <pt x="202" y="600" on="1"/>
        <pt x="121" y="550" on="1"/>
        <pt x="110" y="599" on="1"/>
        <pt x="210" y="662" on="1"/>
        <pt x="255" y="662" on="1"/>
        <pt x="213" y="364" on="1"/>
        <pt x="276" y="364" on="1"/>
        <pt x="270" y="316" on="1"/>
      </contour>
    </TTGlyph>
    <TTGlyph name="onesuperior" xMin="88" yMin="316" xMax="265" yMax="662">
      <contour>
        <pt x="88" y="316" on="1"/>
        <pt x="94" y="364" on="1"/>
        <pt x="157" y="364" on="1"/>
        <pt x="190" y="600" on="1"/>
        <pt x="108" y="550" on="1"/>
        <pt x="97" y="599" on="1"/>
        <pt x="199" y="662" on="1"/>
        <pt x="244" y="662" on="1"/>
        <pt x="202" y="364" on="1"/>
        <pt x="265" y="364" on="1"/>
        <pt x="259" y="316" on="1"/>
      </contour>
    </TTGlyph>
    <TTGlyph name="ordfeminine" xMin="49" yMin="234" xMax="322" yMax="685">
      <contour>
        <pt x="264" y="234" on="1"/>
        <pt x="49" y="234" on="1"/>
        <pt x="57" y="289" on="1"/>
        <pt x="272" y="289" on="1"/>
      </contour>
      <contour>
        <pt x="245" y="399" on="1"/>
        <pt x="196" y="358" on="0"/>
        <pt x="114" y="358" on="0"/>
        <pt x="73" y="417" on="0"/>
        <pt x="73" y="466" on="1"/>
        <pt x="73" y="685" on="0"/>
        <pt x="218" y="685" on="1"/>
        <pt x="234" y="685" on="0"/>
        <pt x="273" y="668" on="0"/>
        <pt x="283" y="658" on="1"/>
        <pt x="299" y="680" on="1"/>
        <pt x="322" y="680" on="1"/>
        <pt x="279" y="361" on="1"/>
        <pt x="254" y="361" on="1"/>
      </contour>
      <contour>
        <pt x="216" y="640" on="1"/>
        <pt x="119" y="640" on="0"/>
        <pt x="119" y="474" on="1"/>
        <pt x="119" y="443" on="0"/>
        <pt x="140" y="405" on="0"/>
        <pt x="157" y="405" on="1"/>
        <pt x="186" y="405" on="0"/>
        <pt x="244" y="451" on="0"/>
        <pt x="248" y="479" on="1"/>
        <pt x="267" y="619" on="1"/>
        <pt x="244" y="640" on="0"/>
      </contour>
    </TTGlyph>
    <TTGlyph name="ordmasculine" xMin="56" yMin="234" xMax="326" yMax="700">
      <contour>
        <pt x="271" y="234" on="1"/>
        <pt x="56" y="234" on="1"/>
        <pt x="63" y="288" on="1"/>
        <pt x="278" y="288" on="1"/>
      </contour>
      <contour>
        <pt x="187" y="408" on="1"/>
        <pt x="213" y="408" on="0"/>
        <pt x="232" y="437" on="1"/>
        <pt x="269" y="491" on="0"/>
        <pt x="269" y="650" on="0"/>
        <pt x="222" y="650" on="1"/>
        <pt x="196" y="650" on="0"/>
        <pt x="176" y="621" on="1"/>
        <pt x="140" y="567" on="0"/>
        <pt x="140" y="408" on="0"/>
      </contour>
      <contour>
        <pt x="228" y="700" on="1"/>
        <pt x="277" y="700" on="0"/>
        <pt x="326" y="636" on="0"/>
        <pt x="326" y="580" on="1"/>
        <pt x="326" y="490" on="0"/>
        <pt x="254" y="358" on="0"/>
        <pt x="181" y="358" on="1"/>
        <pt x="132" y="358" on="0"/>
        <pt x="83" y="422" on="0"/>
        <pt x="83" y="478" on="1"/>
        <pt x="83" y="568" on="0"/>
        <pt x="155" y="700" on="0"/>
      </contour>
    </TTGlyph>
    <TTGlyph name="oslash" xMin="1" yMin="-43" xMax="530" yMax="545">
      <contour>
        <pt x="212" y="-6" on="1"/>
        <pt x="143" y="-6" on="0"/>
        <pt x="105" y="28" on="1"/>
        <pt x="42" y="-43" on="1"/>
        <pt x="1" y="1" on="1"/>
        <pt x="70" y="79" on="1"/>
        <pt x="50" y="125" on="0"/>
        <pt x="50" y="199" on="1"/>
        <pt x="50" y="333" on="0"/>
        <pt x="174" y="510" on="0"/>
        <pt x="283" y="510" on="1"/>
        <pt x="363" y="510" on="0"/>
        <pt x="405" y="457" on="1"/>
        <pt x="483" y="545" on="1"/>
        <pt x="530" y="507" on="1"/>
        <pt x="435" y="399" on="1"/>
        <pt x="448" y="359" on="0"/>
        <pt x="448" y="299" on="1"/>
        <pt x="448" y="169" on="0"/>
        <pt x="325" y="-6" on="0"/>
      </contour>
      <contour>
        <pt x="274" y="447" on="1"/>
        <pt x="233" y="447" on="0"/>
        <pt x="171" y="405" on="0"/>
        <pt x="154" y="369" on="1"/>
        <pt x="119" y="298" on="0"/>
        <pt x="119" y="201" on="1"/>
        <pt x="119" y="166" on="0"/>
        <pt x="124" y="136" on="1"/>
        <pt x="359" y="399" on="1"/>
        <pt x="334" y="447" on="0"/>
      </contour>
      <contour>
        <pt x="379" y="292" on="1"/>
        <pt x="379" y="317" on="0"/>
        <pt x="376" y="338" on="1"/>
        <pt x="148" y="82" on="1"/>
        <pt x="172" y="57" on="0"/>
        <pt x="218" y="57" on="1"/>
        <pt x="299" y="57" on="0"/>
        <pt x="379" y="191" on="0"/>
      </contour>
    </TTGlyph>
    <TTGlyph name="otilde" xMin="50" yMin="-6" xMax="453" yMax="700">
      <contour>
        <pt x="274" y="445" on="1"/>
        <pt x="195" y="445" on="0"/>
        <pt x="119" y="303" on="0"/>
        <pt x="119" y="126" on="0"/>
        <pt x="165" y="59" on="0"/>
        <pt x="218" y="59" on="1"/>
        <pt x="299" y="59" on="0"/>
        <pt x="379" y="192" on="0"/>
        <pt x="379" y="370" on="0"/>
        <pt x="328" y="445" on="0"/>
      </contour>
      <contour>
        <pt x="212" y="-6" on="1"/>
        <pt x="50" y="-6" on="0"/>
        <pt x="50" y="199" on="1"/>
        <pt x="50" y="333" on="0"/>
        <pt x="174" y="510" on="0"/>
        <pt x="283" y="510" on="1"/>
        <pt x="363" y="510" on="0"/>
        <pt x="448" y="404" on="0"/>
        <pt x="448" y="299" on="1"/>
        <pt x="448" y="169" on="0"/>
        <pt x="325" y="-6" on="0"/>
      </contour>
      <contour>
        <pt x="376" y="580" on="0"/>
        <pt x="341" y="580" on="0"/>
        <pt x="245" y="635" on="0"/>
        <pt x="221" y="635" on="0"/>
        <pt x="192" y="616" on="0"/>
        <pt x="175" y="597" on="1"/>
        <pt x="150" y="630" on="1"/>
        <pt x="168" y="654" on="0"/>
        <pt x="226" y="700" on="0"/>
        <pt x="261" y="700" on="0"/>
        <pt x="357" y="645" on="0"/>
        <pt x="381" y="645" on="0"/>
        <pt x="410" y="664" on="0"/>
        <pt x="427" y="683" on="1"/>
        <pt x="453" y="657" on="1"/>
        <pt x="452" y="650" on="1"/>
        <pt x="434" y="626" on="0"/>
      </contour>
    </TTGlyph>
    <TTGlyph name="p" xMin="38" yMin="-236" xMax="482" yMax="510">
      <contour>
        <pt x="350" y="510" on="1"/>
        <pt x="482" y="510" on="0"/>
        <pt x="482" y="337" on="1"/>
        <pt x="482" y="175" on="0"/>
        <pt x="370" y="-6" on="0"/>
        <pt x="260" y="-6" on="1"/>
        <pt x="198" y="-6" on="0"/>
        <pt x="145" y="42" on="1"/>
        <pt x="106" y="-236" on="1"/>
        <pt x="38" y="-236" on="1"/>
        <pt x="141" y="500" on="1"/>
        <pt x="181" y="500" on="1"/>
        <pt x="196" y="443" on="1"/>
        <pt x="287" y="510" on="0"/>
      </contour>
      <contour>
        <pt x="254" y="58" on="1"/>
        <pt x="335" y="58" on="0"/>
        <pt x="410" y="197" on="0"/>
        <pt x="410" y="315" on="1"/>
        <pt x="410" y="379" on="0"/>
        <pt x="369" y="445" on="0"/>
        <pt x="306" y="445" on="0"/>
        <pt x="246" y="419" on="0"/>
        <pt x="217" y="397" on="0"/>
        <pt x="192" y="376" on="1"/>
        <pt x="154" y="110" on="1"/>
        <pt x="169" y="86" on="0"/>
        <pt x="226" y="58" on="0"/>
      </contour>
    </TTGlyph>
    <TTGlyph name="paragraph" xMin="117" yMin="-203" xMax="563" yMax="710">
      <contour>
        <pt x="117" y="502" on="1"/>
        <pt x="117" y="589" on="0"/>
        <pt x="228" y="710" on="0"/>
        <pt x="324" y="710" on="1"/>
        <pt x="563" y="710" on="1"/>
        <pt x="554" y="650" on="1"/>
        <pt x="491" y="650" on="1"/>
        <pt x="371" y="-203" on="1"/>
        <pt x="312" y="-203" on="1"/>
        <pt x="432" y="650" on="1"/>
        <pt x="350" y="650" on="1"/>
        <pt x="230" y="-203" on="1"/>
        <pt x="172" y="-203" on="1"/>
        <pt x="251" y="358" on="1"/>
        <pt x="188" y="358" on="0"/>
        <pt x="117" y="439" on="0"/>
      </contour>
    </TTGlyph>
    <TTGlyph name="parenleft" xMin="81" yMin="-130" xMax="324" yMax="764">
      <contour>
        <pt x="150" y="179" on="1"/>
        <pt x="150" y="29" on="0"/>
        <pt x="200" y="-118" on="1"/>
        <pt x="136" y="-130" on="1"/>
        <pt x="81" y="13" on="0"/>
        <pt x="81" y="175" on="1"/>
        <pt x="81" y="485" on="0"/>
        <pt x="266" y="764" on="1"/>
        <pt x="324" y="751" on="1"/>
        <pt x="150" y="474" on="0"/>
      </contour>
    </TTGlyph>
    <TTGlyph name="parenright" xMin="-22" yMin="-130" xMax="221" yMax="764">
      <contour>
        <pt x="152" y="455" on="1"/>
        <pt x="152" y="605" on="0"/>
        <pt x="102" y="752" on="1"/>
        <pt x="166" y="764" on="1"/>
        <pt x="221" y="621" on="0"/>
        <pt x="221" y="459" on="1"/>
        <pt x="221" y="149" on="0"/>
        <pt x="36" y="-130" on="1"/>
        <pt x="-22" y="-117" on="1"/>
        <pt x="152" y="160" on="0"/>
      </contour>
    </TTGlyph>
</ttFont>
